<?xml version="1.0" standalone="no"?>
<!DOCTYPE svg PUBLIC "-//W3C//DTD SVG 20010904//EN"
 "http://www.w3.org/TR/2001/REC-SVG-20010904/DTD/svg10.dtd">
<svg version="1.0" xmlns="http://www.w3.org/2000/svg"
 width="800.000000pt" height="800.000000pt" viewBox="0 0 800.000000 800.000000"
 preserveAspectRatio="xMidYMid meet">

<g transform="translate(0.000000,800.000000) scale(0.100000,-0.100000)"
fill="#000000" stroke="none">
<path d="M4237 7644 c-27 -174 -89 -665 -85 -670 10 -10 131 -25 138 -17 4 4
16 72 25 151 l18 142 31 -5 c57 -10 249 -35 267 -35 14 0 19 12 24 55 4 31 5
58 2 61 -3 3 -73 15 -156 26 l-152 21 5 26 c3 14 8 50 11 79 8 63 -3 61 209
31 82 -11 150 -18 153 -16 8 9 21 112 15 118 -4 3 -101 18 -217 33 -115 15
-226 30 -246 33 -35 5 -36 4 -42 -33z"/>
<path d="M2595 7444 c-33 -14 -65 -31 -71 -37 -11 -12 -39 -155 -32 -162 2 -3
24 5 48 18 39 20 46 30 81 115 21 50 37 92 36 92 -1 -1 -29 -12 -62 -26z"/>
<path d="M3075 7393 c-103 -37 -155 -100 -155 -186 0 -52 31 -105 75 -126 18
-9 80 -16 158 -20 104 -5 132 -9 140 -22 23 -36 -25 -74 -107 -85 -35 -5 -47
-3 -64 14 -11 11 -21 25 -23 31 -5 13 -131 -20 -136 -35 -6 -19 42 -78 82
-102 81 -47 263 -11 339 67 87 89 55 228 -60 260 -21 6 -86 11 -144 11 -69 0
-110 4 -118 12 -34 34 7 77 81 85 35 4 46 1 65 -20 l23 -24 64 15 c36 9 65 19
65 22 0 15 -46 74 -73 94 -38 28 -144 33 -212 9z"/>
<path d="M4920 7328 c-38 -20 -90 -76 -90 -98 0 -4 27 -15 60 -25 l60 -18 25
23 c20 19 32 22 65 17 74 -10 109 -51 81 -95 -11 -18 -37 -18 -147 -2 -84 12
-96 12 -138 -4 -36 -14 -52 -28 -74 -64 -92 -158 66 -302 250 -227 13 5 17 0
20 -26 3 -30 7 -34 72 -55 l68 -23 -6 31 c-5 24 8 74 50 201 70 209 70 241 2
300 -50 43 -131 77 -203 84 -39 3 -60 -1 -95 -19z m168 -303 c2 -1 -5 -21 -14
-44 -22 -54 -56 -81 -106 -81 -71 0 -107 36 -88 87 18 48 36 55 125 47 44 -4
81 -8 83 -9z"/>
<path d="M5410 6938 c-74 -117 -136 -217 -138 -224 -3 -11 86 -74 105 -74 6 0
53 66 103 146 51 80 103 152 116 161 47 30 124 -14 124 -70 0 -21 -28 -75 -89
-171 -50 -78 -92 -148 -96 -156 -6 -18 102 -88 115 -74 4 5 47 71 95 147 92
145 112 167 158 167 42 0 91 -52 83 -86 -4 -15 -49 -93 -101 -175 -52 -81 -95
-150 -95 -152 0 -11 113 -78 120 -70 28 29 212 333 220 365 16 56 -2 108 -50
151 -58 53 -113 64 -192 41 -15 -4 -18 1 -18 35 0 90 -123 166 -214 131 -30
-11 -32 -4 -10 28 9 13 14 25 13 26 -8 8 -107 66 -111 66 -2 0 -64 -95 -138
-212z"/>
<path d="M2205 7018 c-72 -25 -135 -96 -135 -153 l-1 -30 -23 29 -24 28 -55
-33 c-31 -18 -53 -38 -50 -43 22 -37 267 -423 274 -430 6 -7 66 24 118 60 2 2
-33 61 -77 131 -101 163 -102 164 -102 210 0 65 78 121 130 93 19 -10 59 -68
197 -283 l24 -38 37 21 c20 12 47 29 60 38 l22 17 -101 160 c-55 88 -110 171
-122 184 -43 46 -108 61 -172 39z"/>
<path d="M6452 6667 l-42 -43 50 -49 50 -49 46 46 46 46 -47 43 c-26 24 -50
45 -54 47 -4 1 -26 -17 -49 -41z"/>
<path d="M1624 6578 c-59 -40 -97 -105 -92 -160 l3 -37 -25 24 -26 25 -47 -48
-47 -47 184 -190 184 -190 46 45 c25 24 46 48 46 53 0 4 -51 61 -113 125 -148
152 -163 196 -93 261 52 49 73 38 221 -109 l134 -133 43 38 c24 21 47 41 52
46 11 10 -229 262 -287 302 -58 39 -119 38 -183 -5z"/>
<path d="M6183 6387 l-183 -192 50 -50 50 -50 138 145 c76 80 158 167 182 193
l44 48 -50 49 -49 50 -182 -193z"/>
<path d="M6470 6239 c-146 -127 -266 -234 -268 -238 -1 -5 17 -30 42 -57 l44
-49 29 26 c15 14 132 115 258 224 127 109 235 203 242 209 9 8 1 23 -35 63
l-47 53 -265 -231z"/>
<path d="M4304 6371 c-12 -5 -42 -9 -68 -9 -28 0 -63 -9 -86 -21 -22 -11 -46
-18 -54 -15 -8 3 -24 -4 -36 -16 -22 -22 -23 -37 -8 -100 3 -17 -28 -16 -74 2
-16 6 -40 8 -55 5 -14 -3 -63 1 -107 8 -68 11 -85 11 -109 0 -25 -12 -32 -12
-52 1 -28 19 -135 13 -168 -9 -88 -59 -103 -136 -34 -177 44 -26 64 -48 94
-102 16 -28 37 -51 54 -58 33 -14 37 -25 12 -27 -190 -13 -242 -25 -293 -68
-8 -7 -30 -12 -48 -12 -20 0 -41 -8 -55 -21 -14 -13 -36 -22 -55 -22 -21 0
-43 -10 -67 -31 l-35 -31 -20 23 c-34 39 -43 70 -50 160 -5 79 -9 90 -38 123
-18 21 -32 48 -32 63 0 59 -66 123 -127 123 -16 0 -47 9 -68 21 -53 27 -144
21 -216 -16 -28 -13 -80 -30 -117 -35 -96 -16 -202 -77 -264 -155 -37 -46 -48
-67 -48 -95 0 -20 -6 -44 -13 -54 -13 -18 -15 -17 -36 13 -30 42 -55 40 -152
-11 -132 -69 -226 -194 -237 -316 -4 -50 -6 -53 -47 -71 -41 -18 -208 -174
-246 -229 -16 -23 -16 -28 5 -83 25 -69 50 -83 34 -19 -14 53 10 117 58 159
19 17 34 34 34 39 0 5 23 23 50 40 67 42 160 58 202 36 16 -9 33 -13 36 -9 10
9 -28 35 -61 42 -40 8 -47 27 -8 21 18 -3 34 -1 37 4 6 9 -9 16 -43 21 -33 5
-36 12 -23 54 32 108 41 124 62 117 17 -5 20 -3 15 10 -4 11 2 26 18 42 14 14
25 28 25 33 0 7 59 58 88 75 25 15 116 24 145 14 25 -9 28 -15 27 -47 -3 -54
-3 -55 33 -107 19 -27 38 -62 44 -79 9 -24 12 -27 18 -13 7 19 -5 47 -49 108
-16 22 -26 43 -23 46 3 3 13 -8 23 -25 10 -17 24 -31 31 -31 9 0 4 13 -12 39
-14 21 -28 53 -31 72 -4 29 1 42 40 91 58 72 145 143 159 129 7 -7 14 -3 21
12 6 12 25 26 41 31 17 4 42 14 56 22 14 7 49 14 77 16 29 2 52 6 52 9 0 10
-31 20 -41 13 -5 -3 -9 -1 -9 5 0 19 18 20 54 2 38 -20 47 -13 20 14 -21 20
-15 26 38 36 80 15 107 12 118 -16 8 -21 14 -24 45 -20 34 4 65 -13 65 -37 0
-5 7 -8 15 -5 8 4 23 -5 36 -21 18 -24 19 -27 4 -30 -24 -5 -14 -35 15 -42 19
-5 28 -17 42 -65 10 -33 21 -85 24 -115 4 -30 17 -74 30 -97 17 -30 23 -50 18
-69 -4 -16 -2 -29 5 -34 9 -5 3 -21 -19 -57 -59 -95 -73 -232 -29 -286 26 -32
30 -18 14 45 -16 61 -9 132 19 187 15 28 69 80 102 99 15 8 16 13 6 25 -11 12
-8 18 15 34 53 37 52 37 46 -20 -4 -35 -2 -57 6 -61 7 -5 11 2 11 19 0 14 6
28 14 31 8 3 13 11 11 17 -5 13 8 32 41 60 25 21 102 31 138 18 14 -6 26 -7
26 -2 0 5 -19 16 -42 24 l-43 15 28 11 c16 6 46 14 68 17 35 6 39 5 39 -15 l0
-22 29 21 c39 27 117 22 142 -9 21 -26 29 -27 22 -2 -2 10 -16 24 -29 31 -50
27 -23 36 70 24 62 -9 134 -72 166 -146 20 -47 22 -63 17 -151 -4 -54 -2 -109
3 -123 8 -19 6 -26 -5 -31 -11 -4 -12 -9 -5 -17 7 -9 1 -21 -21 -42 -43 -41
-52 -60 -39 -84 15 -27 32 -25 25 3 -5 17 3 31 30 57 46 44 59 74 43 103 -7
14 -11 64 -10 137 2 104 0 119 -23 166 -29 58 -82 117 -128 140 -56 29 -187
148 -187 170 0 7 -17 26 -37 43 -70 57 -73 60 -66 78 10 29 35 54 75 74 48 25
63 24 82 -3 l16 -22 0 29 0 28 23 -21 c18 -17 36 -22 79 -22 36 0 58 -5 61
-12 3 -10 9 -10 26 0 25 15 127 16 136 2 4 -6 15 -8 24 -5 13 4 26 -5 45 -30
25 -33 56 -47 56 -25 0 5 11 12 24 16 l24 6 -24 41 c-28 49 -32 82 -9 73 10
-3 15 1 15 13 0 25 28 47 74 60 40 10 61 7 51 -9 -13 -21 20 -21 37 0 14 18
24 21 51 16 17 -3 39 -7 47 -9 8 -1 31 -13 50 -25 35 -22 177 -72 206 -72 40
0 95 -26 101 -48 5 -22 6 -22 24 -6 18 16 20 16 39 -1 20 -18 21 -18 37 4 14
21 22 23 69 18 31 -3 54 -2 54 4 0 5 16 9 35 9 19 0 35 -5 35 -11 0 -7 18 -8
49 -5 32 4 61 1 83 -9 32 -14 31 -17 -2 -19 -9 -1 -15 -13 -16 -34 -2 -31 9
-42 21 -22 3 6 13 10 21 10 20 0 8 -47 -23 -83 -24 -30 -30 -53 -14 -59 21 -7
-3 -55 -41 -82 -25 -18 -36 -32 -30 -38 12 -12 127 61 162 104 18 21 29 28 34
20 12 -20 26 -13 26 13 0 16 6 25 15 25 9 0 29 10 46 22 20 15 43 22 70 22 28
-1 39 3 39 13 0 10 9 14 28 13 15 -1 29 -1 32 0 43 20 149 15 182 -10 22 -16
28 -18 28 -6 0 9 -12 23 -26 32 -18 13 -22 19 -12 25 7 4 18 3 24 -2 9 -7 19
-6 34 3 18 11 23 11 33 -3 9 -11 23 -14 50 -11 28 3 37 1 37 -11 0 -19 25 -28
58 -21 24 5 25 4 10 -9 -21 -17 -6 -37 28 -37 25 0 40 -15 24 -25 -19 -12 1
-24 29 -19 23 5 32 2 40 -14 9 -17 8 -23 -6 -31 -17 -10 -17 -10 0 -11 18 0
24 -42 18 -139 -2 -32 6 -62 30 -114 l32 -71 -11 -95 c-6 -52 -9 -98 -6 -103
3 -4 6 -26 6 -48 0 -34 7 -47 43 -81 24 -23 51 -60 61 -82 10 -23 29 -57 41
-76 16 -24 23 -49 23 -83 0 -32 8 -65 25 -98 42 -84 68 -153 76 -205 4 -27 15
-75 24 -105 10 -30 17 -72 17 -93 -2 -38 14 -84 25 -74 3 3 7 37 10 76 3 51 0
78 -11 100 -9 17 -16 43 -16 59 0 17 -6 32 -14 35 -7 3 -17 27 -21 54 -4 26
-12 57 -18 68 -6 11 -10 31 -8 45 1 14 -9 42 -24 63 -32 48 -26 92 11 83 33
-9 30 4 -14 49 -21 22 -46 62 -56 88 -10 27 -43 78 -74 114 -39 46 -55 73 -54
92 2 38 19 171 26 208 10 48 -11 148 -45 204 -18 32 -29 64 -29 88 0 39 -44
136 -78 175 -9 10 -49 33 -88 51 -39 18 -74 38 -78 44 -10 16 -211 13 -320 -4
-61 -10 -105 -24 -142 -45 -64 -36 -151 -70 -158 -62 -4 3 -6 14 -6 25 0 10
-9 30 -20 44 -11 14 -20 33 -20 43 0 50 -105 81 -275 80 -66 -1 -140 4 -164
10 -24 6 -46 8 -49 6 -4 -5 -63 37 -107 77 -10 9 -42 24 -70 33 -61 18 -212
28 -241 15z m251 -60 c41 -19 65 -36 65 -46 0 -11 6 -15 19 -10 10 3 24 -1 31
-10 11 -13 8 -14 -21 -9 -52 9 -171 44 -201 60 -35 18 -27 44 13 44 16 0 59
-13 94 -29z m-1694 -208 c13 -16 12 -17 -3 -4 -10 7 -18 15 -18 17 0 8 8 3 21
-13z m-577 -58 c-3 -8 -14 -17 -24 -20 -10 -3 -44 -30 -74 -60 -31 -30 -58
-55 -61 -55 -14 0 52 74 98 110 52 42 70 49 61 25z m2892 -73 c-23 -23 -33 -6
-10 19 12 13 20 16 22 9 3 -7 -3 -19 -12 -28z m961 -262 c21 -71 9 -81 -20
-16 -32 69 -32 68 -10 64 11 -2 22 -21 30 -48z m-4487 -290 c0 -5 -12 -10 -27
-10 -22 0 -25 2 -13 10 20 13 40 13 40 0z"/>
<path d="M6903 6169 c-24 -17 -43 -34 -43 -38 0 -7 51 -84 70 -104 4 -5 31 8
59 28 l51 37 -38 54 c-20 29 -41 54 -47 53 -5 0 -29 -13 -52 -30z"/>
<path d="M3480 6131 c0 -5 5 -13 10 -16 6 -3 10 -2 10 4 0 5 -4 13 -10 16 -5
3 -10 2 -10 -4z"/>
<path d="M1215 6091 c-91 -41 -183 -189 -172 -274 6 -42 52 -117 72 -117 7 0
27 22 45 49 25 41 29 54 21 70 -21 38 -13 79 22 118 28 30 38 35 60 29 45 -11
44 -44 -2 -144 -62 -135 -55 -205 27 -263 48 -34 84 -42 130 -29 74 19 132
107 132 199 l0 51 27 -11 c20 -7 29 -7 34 3 4 7 24 36 43 63 l36 50 -31 3
c-19 2 -85 40 -171 99 -134 91 -192 123 -220 123 -7 0 -31 -9 -53 -19z m246
-269 c16 -21 20 -36 16 -65 -10 -77 -62 -116 -112 -83 -38 25 -40 56 -8 139
l28 75 27 -19 c15 -11 37 -32 49 -47z"/>
<path d="M6584 5939 c-115 -82 -208 -154 -207 -159 2 -6 19 -32 39 -59 l35
-50 212 151 c117 83 214 153 216 155 6 4 -70 113 -78 113 -4 0 -101 -68 -217
-151z"/>
<path d="M2500 6050 c-12 -8 -11 -10 8 -10 12 0 22 5 22 10 0 13 -11 13 -30 0z"/>
<path d="M4395 5990 c-3 -5 1 -10 10 -10 9 0 13 5 10 10 -3 6 -8 10 -10 10 -2
0 -7 -4 -10 -10z"/>
<path d="M2701 5979 c-57 -11 -91 -34 -91 -61 l0 -21 23 20 c46 42 145 57 179
26 18 -16 24 -8 10 14 -7 12 -57 34 -70 32 -4 -1 -27 -5 -51 -10z"/>
<path d="M4131 5833 c-1 -6 -4 -20 -7 -30 -5 -17 -5 -17 6 0 6 10 9 23 6 30
-3 9 -5 9 -5 0z"/>
<path d="M6785 5739 c-114 -45 -180 -113 -197 -206 -9 -51 -8 -69 6 -114 22
-67 66 -131 108 -157 43 -27 121 -46 153 -38 l26 7 -33 61 c-27 49 -40 63 -68
72 -39 13 -80 66 -80 105 0 32 32 86 59 100 18 10 26 -2 101 -147 45 -86 84
-159 86 -161 5 -6 87 46 121 77 121 113 86 323 -69 403 -50 25 -146 25 -213
-2z m186 -119 c10 -6 26 -24 34 -40 23 -45 19 -85 -13 -121 l-29 -32 -51 94
c-36 66 -47 96 -39 101 17 11 75 10 98 -2z"/>
<path d="M885 5528 c-95 -34 -143 -161 -95 -251 l20 -37 -24 0 c-53 0 -125
-95 -126 -165 0 -17 9 -48 19 -68 l19 -38 -21 7 c-12 4 -27 9 -34 11 -9 4 -53
-91 -53 -116 0 -7 464 -186 484 -186 13 0 58 117 48 126 -4 4 -72 31 -152 60
-169 63 -204 83 -208 123 -5 40 15 81 45 95 26 12 68 0 301 -88 l83 -31 10 28
c41 103 41 102 11 113 -15 6 -80 31 -145 55 -143 54 -173 69 -187 93 -14 28
-12 73 5 98 28 40 55 37 237 -32 95 -35 175 -61 179 -57 13 16 48 122 41 126
-27 17 -355 135 -387 139 -22 3 -53 1 -70 -5z"/>
<path d="M5761 5413 c-1 -26 10 -45 49 -88 28 -30 50 -59 50 -63 1 -4 3 -36 6
-72 2 -36 4 -84 4 -107 0 -23 4 -44 9 -47 14 -9 23 67 12 97 -10 24 -5 117 6
117 2 0 19 -11 36 -24 45 -33 57 -39 57 -28 0 5 -26 31 -57 57 -32 26 -69 63
-82 81 -14 20 -30 33 -38 29 -9 -3 -21 10 -33 38 l-19 42 0 -32z"/>
<path d="M3341 5407 c-19 -7 -36 -18 -39 -24 -5 -18 13 -16 28 2 7 8 18 15 26
15 7 0 16 5 19 10 7 12 9 12 -34 -3z"/>
<path d="M4970 5264 c-239 -59 -447 -106 -583 -134 -81 -16 -152 -32 -158 -36
-6 -3 -72 -18 -147 -34 -110 -22 -137 -31 -136 -44 1 -9 -4 -16 -11 -16 -7 0
-43 -28 -81 -63 l-68 -63 -53 32 c-30 18 -60 37 -67 43 -16 13 -584 19 -969
11 -265 -6 -242 8 -238 -141 l3 -96 -47 -44 c-26 -24 -54 -47 -63 -50 -10 -4
-47 -29 -84 -55 -37 -27 -86 -60 -108 -74 -22 -13 -48 -35 -57 -49 -15 -23
-15 -26 7 -43 17 -13 39 -18 91 -18 80 0 77 6 58 -121 -10 -63 -9 -92 5 -173
9 -53 16 -111 16 -127 l0 -29 -109 0 c-134 0 -189 -10 -314 -56 -54 -20 -100
-34 -103 -31 -3 3 -6 56 -7 118 -1 63 -5 119 -9 124 -3 6 -2 33 3 62 8 41 6
60 -6 89 -29 70 -14 97 59 108 47 7 100 41 90 57 -4 6 -10 7 -17 0 -17 -13
-127 -41 -142 -35 -7 3 -17 -1 -21 -8 -13 -20 -15 -88 -3 -109 12 -24 22 -373
13 -474 l-6 -70 -34 -1 -34 0 6 105 c4 58 7 149 9 201 1 52 3 100 5 105 1 6 1
15 0 20 -15 74 -18 119 -8 146 8 24 8 37 -1 50 -9 16 -8 19 5 19 9 0 14 6 12
13 -3 6 -27 15 -55 18 -77 10 -132 56 -87 73 23 9 11 31 -17 31 -78 2 -157 57
-129 90 7 9 11 16 9 18 -2 1 -13 7 -24 13 -11 6 -26 23 -34 39 -12 24 -11 30
8 56 23 31 14 46 -15 24 -27 -20 -34 -18 -34 10 0 28 51 91 83 101 11 4 29 16
38 28 29 36 30 12 2 -44 -24 -48 -25 -55 -12 -78 8 -14 21 -27 29 -30 12 -4
13 -2 2 9 -18 20 -15 60 9 99 34 55 59 66 59 25 0 -15 6 -25 15 -25 8 0 12 6
9 14 -7 18 30 43 74 52 18 4 32 10 32 15 0 14 -47 11 -85 -5 -19 -8 -35 -11
-35 -6 0 4 -23 8 -50 8 -62 1 -70 6 -70 41 0 38 32 76 80 97 22 10 40 21 40
26 0 4 6 8 13 8 8 0 13 -10 13 -21 -1 -12 5 -24 12 -26 7 -3 12 4 12 15 0 12
6 27 13 34 7 7 16 21 20 31 9 25 71 49 115 45 l37 -3 -48 -22 c-43 -20 -67
-46 -54 -59 3 -3 22 6 44 20 51 34 93 44 93 22 0 -9 5 -16 10 -16 6 0 10 7 10
15 0 21 21 28 51 16 16 -7 19 -10 7 -10 -9 -1 -29 -12 -45 -25 -24 -21 -26
-26 -14 -40 13 -15 15 -15 25 6 10 19 20 23 59 22 81 -1 137 -65 89 -103 -23
-19 -38 -71 -20 -71 6 0 22 10 35 22 19 17 28 20 41 12 26 -17 30 -55 11 -107
-9 -26 -14 -49 -9 -52 12 -7 27 15 40 62 15 49 2 92 -36 122 -14 11 -24 30
-24 44 0 34 -33 72 -80 91 -22 9 -40 20 -40 24 0 14 -48 32 -85 32 -19 0 -36
4 -39 9 -10 16 -75 22 -116 11 -22 -6 -55 -24 -73 -39 -17 -16 -59 -36 -92
-46 -79 -22 -124 -51 -140 -88 -15 -36 -11 -52 22 -88 l24 -26 -50 -36 c-76
-55 -99 -121 -55 -158 8 -6 14 -20 14 -29 0 -10 10 -31 23 -47 13 -15 24 -39
25 -52 1 -32 35 -66 85 -85 32 -12 46 -26 60 -55 13 -29 28 -43 58 -55 21 -9
47 -16 57 -16 16 0 17 -17 15 -218 -1 -267 -14 -392 -42 -410 -93 -63 -181
-135 -181 -148 0 -20 23 -13 125 41 44 23 85 40 92 38 6 -2 25 3 41 11 16 8
39 12 51 9 28 -7 41 10 41 52 0 30 4 32 83 61 60 22 82 34 81 47 -1 9 6 19 15
21 83 26 550 47 576 26 9 -8 40 -10 92 -6 43 3 219 8 392 11 172 3 316 7 320
9 12 8 132 27 191 31 l58 4 7 -52 c10 -72 20 -87 58 -88 18 0 57 -10 88 -22
209 -81 257 -103 265 -122 5 -11 19 -24 31 -30 12 -5 24 -17 26 -27 3 -10 13
-21 24 -25 10 -3 34 -16 53 -28 33 -20 94 -26 119 -11 5 3 14 -1 21 -9 17 -21
108 -21 116 0 9 21 29 19 75 -11 28 -18 44 -22 53 -15 24 20 663 57 1136 65
25 1 50 5 57 9 7 4 41 0 75 -9 35 -9 74 -18 88 -19 68 -8 124 -25 185 -59 42
-23 71 -34 77 -28 11 11 72 -1 93 -18 8 -7 20 -10 27 -7 12 4 33 -5 141 -59
24 -12 29 -12 34 2 7 20 -1 28 -68 64 -156 85 -295 134 -504 179 -54 12 -101
24 -103 26 -14 14 0 874 14 897 3 5 30 8 60 7 64 -3 97 18 74 45 -7 9 -16 16
-21 16 -7 0 -484 478 -609 610 -72 75 -123 83 -280 44z m247 -101 c35 -38 63
-69 63 -70 0 -1 -63 -2 -140 -2 -77 -1 -140 2 -140 6 0 10 133 132 144 133 6
0 38 -30 73 -67z m-212 25 c-26 -31 -169 -177 -479 -488 l-140 -140 -155 0
c-86 0 -280 -9 -431 -20 -279 -19 -320 -17 -275 16 60 44 265 229 265 239 0 6
39 48 86 93 l85 82 112 26 c62 14 148 36 192 49 44 13 118 31 165 40 47 9 130
29 185 45 114 32 344 83 403 89 8 0 3 -13 -13 -31z m408 -216 c45 -44 112
-105 148 -136 64 -53 219 -213 219 -226 0 -3 -147 -6 -327 -5 -181 0 -417 -4
-525 -9 l-198 -9 -2 54 c-1 30 -2 70 -2 89 -1 24 -6 35 -16 35 -12 0 -14 -13
-12 -70 2 -38 5 -77 8 -86 4 -14 -11 -17 -102 -22 -59 -4 -109 -5 -111 -3 -2
1 103 110 234 241 l236 238 185 -6 184 -5 81 -80z m-1866 -88 c196 -16 39 -23
-554 -26 -260 -1 -475 1 -479 4 -3 4 -3 11 0 16 7 12 903 17 1033 6z m159 -41
c18 -16 34 -32 33 -38 0 -5 -18 -25 -40 -44 l-39 -33 0 71 c0 39 2 71 6 71 3
0 21 -12 40 -27z m-706 -74 l0 -49 -35 0 -34 0 15 43 c8 23 16 48 19 54 2 7
11 10 20 7 11 -4 15 -20 15 -55z m66 51 c21 0 23 -3 14 -26 -6 -14 -10 -39
-10 -55 0 -24 -4 -29 -26 -29 -24 0 -25 2 -19 44 5 28 3 46 -4 50 -17 11 -13
29 5 22 9 -3 26 -6 40 -6z m496 -32 c-2 -21 0 -38 5 -38 14 0 33 38 27 55 -4
10 0 15 11 15 15 0 17 -7 13 -45 -4 -27 -1 -48 5 -52 18 -11 -38 -21 -88 -15
-46 5 -47 5 -40 36 3 17 8 42 10 56 2 14 4 26 4 28 1 2 13 2 29 0 25 -3 27 -6
24 -40z m-1008 19 c25 -18 14 -97 -14 -97 -13 0 -19 11 -24 45 -10 63 2 78 38
52z m166 -37 c0 -27 4 -50 9 -50 15 0 21 15 23 59 1 38 4 41 29 41 24 0 27 -4
33 -45 10 -62 22 -64 30 -5 l7 50 39 0 c22 0 40 -3 40 -6 0 -3 -5 -25 -11 -48
-10 -40 -14 -44 -47 -50 -21 -3 -76 -6 -124 -6 l-88 0 0 29 c0 47 17 81 40 81
17 0 20 -6 20 -50z m514 41 c4 -5 9 -30 12 -55 l7 -46 -31 0 c-29 0 -31 2 -34
42 -2 23 -9 43 -16 46 -9 3 -12 -4 -11 -19 5 -61 1 -69 -37 -69 -32 0 -35 2
-27 23 4 12 8 37 8 55 l0 32 62 0 c34 0 64 -4 67 -9z m81 -1 c3 -6 3 -30 -1
-55 -5 -35 -10 -45 -25 -45 -16 0 -19 8 -19 55 0 48 3 55 19 55 11 0 23 -5 26
-10z m158 -20 c-8 -18 -12 -41 -9 -55 6 -25 5 -26 -36 -29 -9 -1 -13 14 -13
41 0 57 -19 59 -25 3 -4 -40 -8 -45 -30 -45 -28 0 -27 0 -16 68 l8 47 68 0 68
0 -15 -30z m-837 -35 c-1 -50 -3 -55 -21 -53 -17 3 -20 11 -21 48 0 54 2 60
25 60 14 0 17 -9 17 -55z m689 -82 l258 -6 -26 -23 c-38 -32 -188 -121 -218
-129 -14 -3 -38 -17 -54 -31 -15 -13 -31 -24 -34 -24 -3 -1 -106 -3 -228 -6
-162 -3 -223 -1 -223 7 0 6 34 45 75 86 41 42 75 79 75 84 0 39 -74 -17 -152
-114 -25 -31 -28 -40 -18 -52 11 -13 -9 -15 -159 -15 -94 0 -171 3 -171 7 0
19 57 83 110 123 32 25 59 53 60 63 0 36 -25 19 -143 -95 -41 -40 -48 -52 -43
-73 l6 -25 -126 0 c-70 0 -125 2 -123 4 2 3 38 27 79 55 41 28 110 75 152 106
l77 54 123 4 c271 6 457 7 703 0z m2356 -135 c8 -15 10 -60 5 -147 -3 -69 -9
-267 -12 -438 l-7 -313 -37 0 c-21 0 -71 -6 -111 -14 -76 -15 -201 -22 -639
-35 -140 -5 -262 -11 -272 -15 -11 -5 -18 -2 -22 11 -3 10 -8 124 -11 254 -3
130 -10 270 -15 310 -14 103 -32 340 -26 354 5 14 339 34 741 45 154 4 306 7
337 8 50 2 59 -1 69 -20z m-2191 -32 c0 -20 46 -47 66 -39 16 6 17 -3 11 -108
-4 -63 -7 -169 -7 -235 l0 -121 -57 -11 c-134 -25 -178 -32 -210 -32 l-34 0 6
53 c4 29 1 120 -5 202 -6 83 -12 161 -13 175 -2 22 11 31 113 81 63 31 118 55
123 52 4 -2 7 -10 7 -17z m1007 -41 c0 -27 5 -120 9 -205 4 -85 6 -269 4 -408
-2 -250 -2 -253 19 -259 31 -8 25 -22 -9 -21 -16 1 -27 5 -24 10 3 4 -4 8 -16
8 -12 0 -18 -4 -15 -10 11 -18 -10 -11 -27 9 -10 12 -13 23 -7 32 13 22 11 55
-6 69 -8 7 -15 25 -15 39 0 33 -27 58 -94 90 -41 20 -58 23 -114 18 -35 -4
-77 -14 -91 -24 -14 -9 -48 -28 -75 -41 l-48 -25 -107 37 c-58 21 -141 48
-185 60 -48 14 -82 29 -88 40 -13 23 -12 533 1 567 9 24 14 26 78 28 82 2 305
20 388 31 33 4 141 7 240 6 l180 -1 2 -50z m-1291 -58 c13 -13 25 -172 22
-302 l-3 -140 -40 -7 c-22 -4 -117 -10 -212 -14 -144 -6 -173 -5 -177 7 -3 8
-7 114 -8 236 l-3 222 120 4 c148 4 294 1 301 -6z m-451 -72 l0 -70 -177 -6
c-159 -6 -181 -9 -213 -29 -20 -12 -38 -21 -40 -19 -5 6 -7 55 -6 132 l1 67
218 -2 217 -3 0 -70z m2 -118 c3 -4 4 -9 2 -11 -2 -2 -91 -6 -198 -9 -148 -4
-191 -3 -182 6 7 7 40 15 74 18 80 7 295 4 304 -4z m-9 -56 c10 -6 13 -33 10
-112 l-4 -104 -204 0 -204 0 -6 25 c-4 14 -10 57 -14 97 -7 71 -7 72 17 78 74
19 382 31 405 16z m1509 -363 c7 18 22 15 54 -13 16 -13 36 -22 44 -19 7 3 18
-4 25 -16 14 -26 8 -36 -10 -15 -15 18 -43 19 -71 4 -20 -10 -20 -11 -2 -24
17 -14 17 -14 -4 -15 -29 0 -39 3 -36 12 2 4 -7 13 -19 19 -20 11 -64 9 -160
-7 -55 -10 -51 19 5 36 23 7 45 16 48 21 3 6 16 6 32 0 21 -8 27 -8 27 3 0 20
21 25 44 12 14 -8 20 -8 23 2z m-197 -107 c0 -25 16 -36 24 -16 3 8 12 15 21
15 25 0 79 -56 80 -81 0 -13 5 -24 12 -24 6 0 15 -3 19 -7 8 -9 98 -11 106 -3
9 10 -16 54 -32 58 -8 2 -25 -3 -37 -11 -19 -11 -23 -11 -31 4 -16 28 9 43 70
42 30 -1 60 2 67 6 8 5 16 3 21 -4 4 -7 12 -10 18 -6 20 12 20 -10 1 -34 -16
-21 -20 -23 -29 -10 -9 13 -11 13 -19 1 -5 -8 -7 -20 -4 -27 2 -7 -3 -24 -13
-39 -22 -33 -46 -30 -144 19 -45 23 -76 33 -92 29 -12 -3 -20 -2 -15 2 8 10
-21 45 -38 45 -7 0 -12 14 -13 30 0 20 4 30 14 30 8 0 14 -9 14 -19z m164 10
c3 -4 0 -16 -7 -25 -11 -15 -14 -15 -35 -1 -12 9 -22 20 -22 26 0 11 57 12 64
0z m126 -1 c0 -5 -7 -10 -16 -10 -8 0 -12 5 -9 10 3 6 10 10 16 10 5 0 9 -4 9
-10z m-225 -120 c3 -6 -1 -7 -9 -4 -18 7 -21 14 -7 14 6 0 13 -4 16 -10z"/>
<path d="M4762 5065 c-74 -84 -124 -154 -117 -165 12 -19 32 -10 45 19 6 16
40 60 76 97 35 38 62 73 61 78 -7 23 -27 14 -65 -29z"/>
<path d="M4643 5068 c-11 -13 -34 -44 -49 -69 -16 -25 -55 -82 -87 -125 -118
-160 -176 -247 -171 -255 12 -21 32 -4 79 69 28 42 79 115 114 162 35 47 81
110 102 142 21 31 44 58 51 60 13 5 4 38 -10 38 -5 0 -18 -10 -29 -22z"/>
<path d="M4439 4979 c-35 -44 -93 -122 -127 -172 -35 -50 -81 -113 -103 -141
-26 -35 -35 -54 -28 -61 13 -12 67 45 125 132 74 110 178 248 208 276 24 23
27 30 15 38 -8 5 -17 9 -20 9 -4 0 -35 -36 -70 -81z"/>
<path d="M4236 4851 c-154 -187 -186 -235 -169 -252 8 -8 20 3 44 38 31 46
197 252 259 322 27 31 34 61 13 61 -4 0 -70 -76 -147 -169z"/>
<path d="M4144 4912 c-39 -42 -100 -111 -135 -152 -35 -41 -76 -88 -91 -105
-29 -31 -35 -50 -19 -59 5 -3 28 20 52 52 24 31 62 77 84 102 118 128 190 206
198 211 10 7 1 29 -11 29 -4 0 -39 -35 -78 -78z"/>
<path d="M3858 4762 c-93 -92 -168 -172 -168 -179 0 -30 30 -16 71 33 24 30
99 106 167 170 113 107 142 145 110 144 -7 -1 -88 -76 -180 -168z"/>
<path d="M5027 4953 c3 -47 0 -102 -8 -138 -15 -73 -18 -168 -4 -175 6 -3 12
20 16 55 3 33 11 93 18 134 14 81 7 173 -14 191 -11 9 -12 -2 -8 -67z"/>
<path d="M5122 4849 c2 -112 7 -164 15 -166 8 -3 11 39 10 158 -2 122 -5 163
-15 167 -10 3 -12 -30 -10 -159z"/>
<path d="M5235 4858 c4 -201 4 -198 19 -198 11 0 13 27 10 148 -4 147 -9 182
-23 182 -4 0 -7 -60 -6 -132z"/>
<path d="M4889 4944 c-12 -23 -11 -27 5 -40 17 -12 18 -23 12 -139 -5 -83 -4
-125 3 -125 5 0 12 4 15 8 8 13 17 282 11 303 -9 27 -29 24 -46 -7z"/>
<path d="M5346 4923 c5 -16 8 -57 6 -93 -4 -81 6 -170 19 -170 13 0 12 247 -1
271 -17 30 -34 24 -24 -8z"/>
<path d="M4795 4748 c0 -81 4 -123 11 -125 8 -3 13 30 16 104 5 117 2 143 -16
143 -8 0 -11 -36 -11 -122z"/>
<path d="M5447 4834 c-3 -4 -2 -14 3 -23 4 -9 10 -43 13 -76 6 -80 27 -87 26
-8 -1 86 -19 130 -42 107z"/>
<path d="M5579 4733 c-2 -32 2 -58 12 -67 5 -6 9 6 9 31 0 41 -19 72 -21 36z"/>
<path d="M2986 4610 c-81 -70 -103 -97 -88 -112 8 -8 21 -1 44 23 18 19 57 54
87 79 43 37 51 48 40 57 -11 9 -28 -1 -83 -47z"/>
<path d="M2484 4638 c-55 -41 -164 -145 -164 -157 0 -25 32 -8 98 53 39 36 82
72 96 81 27 18 35 45 13 45 -7 0 -27 -10 -43 -22z"/>
<path d="M2743 4590 c-40 -37 -73 -75 -73 -83 0 -23 31 -30 37 -10 2 10 33 43
68 73 59 51 82 91 53 90 -7 -1 -46 -32 -85 -70z"/>
<path d="M2620 4575 c-59 -59 -72 -77 -62 -87 10 -10 28 3 87 62 72 71 90 100
62 100 -7 0 -46 -34 -87 -75z"/>
<path d="M3077 4577 c-76 -70 -88 -87 -66 -87 25 0 169 125 169 147 0 26 -27
11 -103 -60z"/>
<path d="M3202 4589 c-40 -38 -62 -66 -58 -75 6 -15 26 -20 26 -6 0 5 29 32
65 62 36 29 64 58 62 64 -8 25 -35 12 -95 -45z"/>
<path d="M3350 4585 c-58 -47 -71 -65 -48 -65 21 0 140 89 133 100 -11 18 -30
10 -85 -35z"/>
<path d="M3408 4438 c-6 -15 -13 -228 -12 -336 1 -64 14 -105 28 -91 10 10 9
420 -1 430 -7 7 -12 6 -15 -3z"/>
<path d="M3495 4430 c-4 -6 -4 -35 -1 -64 4 -31 0 -105 -9 -180 -12 -86 -14
-131 -7 -138 28 -28 31 -1 45 331 2 52 -12 77 -28 51z"/>
<path d="M3325 4368 c-3 -8 -4 -79 -3 -158 3 -119 6 -145 18 -148 13 -2 15 20
13 155 -1 101 -5 159 -12 161 -6 2 -13 -3 -16 -10z"/>
<path d="M3698 4423 l-48 -4 -2 -107 c-1 -59 -3 -125 -4 -147 -2 -65 9 -77 64
-69 81 11 87 19 88 115 0 47 8 110 18 142 9 32 14 62 11 67 -6 10 -31 10 -127
3z m77 -85 c-4 -29 -9 -84 -11 -122 -2 -38 -5 -70 -6 -71 -2 -2 -20 -6 -40
-10 l-38 -7 0 115 c0 63 3 122 6 131 4 11 19 16 51 16 l46 0 -8 -52z"/>
<path d="M3925 4421 l-60 -6 -2 -100 c-1 -55 -2 -126 -4 -158 -3 -69 0 -72 93
-87 95 -16 101 -14 104 40 9 188 21 254 50 275 40 29 -61 49 -181 36z m127
-41 c-2 -8 -13 -75 -25 -148 l-22 -133 -50 7 c-27 3 -51 8 -53 9 -2 2 -4 63
-5 137 l-2 133 55 6 c82 9 106 6 102 -11z"/>
<path d="M4164 4415 c3 -9 1 -71 -4 -138 -5 -67 -6 -149 -2 -182 l7 -60 85
-11 c47 -6 98 -14 113 -19 l29 -8 -7 134 c-4 79 -2 163 4 204 6 40 6 74 1 79
-4 4 -59 10 -121 13 -100 4 -111 3 -105 -12z m131 -26 l62 -11 -3 -146 c-2
-81 -4 -154 -4 -163 0 -13 -11 -15 -62 -11 -81 6 -94 13 -101 60 -7 38 9 257
19 273 7 11 14 11 89 -2z"/>
<path d="M7020 5128 c-129 -38 -236 -71 -238 -73 -8 -7 35 -125 45 -125 7 0
74 18 149 40 75 22 158 40 185 40 40 0 51 -4 73 -31 31 -36 35 -98 9 -124 -21
-21 -36 -27 -210 -77 -80 -23 -147 -47 -150 -54 -7 -18 27 -124 40 -124 25 1
353 101 387 118 54 29 80 74 80 141 -1 88 -34 148 -104 184 l-30 15 32 7 c37
8 38 13 17 83 -11 37 -21 52 -33 51 -9 -1 -123 -32 -252 -71z"/>
<path d="M1740 4975 c0 -8 12 -17 28 -21 74 -16 82 -22 82 -61 0 -13 5 -23 11
-23 6 0 9 -7 6 -15 -8 -20 11 -29 28 -15 27 22 48 4 42 -35 -7 -41 8 -46 25
-10 17 37 -17 81 -61 79 -27 -2 -31 1 -31 23 0 49 -25 71 -102 87 -21 5 -28 3
-28 -9z"/>
<path d="M1620 4812 c-61 -63 -95 -133 -80 -161 6 -12 15 -21 21 -21 6 0 6 6
0 18 -20 38 63 159 126 183 19 7 32 6 49 -6 19 -12 24 -13 24 -2 0 23 -23 37
-59 37 -28 0 -43 -9 -81 -48z"/>
<path d="M2056 4763 c-3 -3 1 -14 8 -25 29 -41 -23 -111 -98 -135 -43 -13 -48
-37 -6 -28 29 6 31 5 22 -12 -20 -36 -79 -84 -108 -87 -17 -2 -30 -10 -32 -20
-4 -20 28 -21 67 -2 35 18 101 91 101 111 0 9 18 33 39 53 42 40 57 77 47 116
-6 23 -29 40 -40 29z"/>
<path d="M1662 4672 c-25 -50 -32 -72 -23 -72 13 0 62 80 56 90 -10 16 -19 11
-33 -18z"/>
<path d="M550 4643 c0 -51 -9 -55 -84 -42 -37 6 -69 10 -71 8 -1 -2 -6 -34
-10 -70 l-7 -66 68 -9 69 -9 -2 -36 c-2 -40 10 -49 68 -49 23 0 28 5 33 35 6
31 10 34 34 30 113 -21 288 -45 320 -45 62 0 94 45 107 153 l7 57 -28 0 c-16
0 -39 3 -51 6 -19 5 -23 1 -28 -30 -4 -20 -12 -39 -17 -42 -5 -3 -79 4 -164
17 l-155 23 7 41 c5 38 4 43 -18 48 -12 4 -35 7 -50 7 -24 0 -28 -4 -28 -27z"/>
<path d="M1466 4644 c-20 -20 -20 -48 -1 -64 16 -13 18 -9 16 26 -1 12 5 24
13 27 9 4 16 11 16 17 0 15 -27 12 -44 -6z"/>
<path d="M1830 4646 c0 -8 -22 -41 -50 -73 -47 -55 -53 -86 -8 -47 55 49 98
134 68 134 -5 0 -10 -6 -10 -14z"/>
<path d="M7395 4580 c-39 -5 -40 -6 -40 -43 0 -20 0 -37 0 -38 0 0 -93 -13
-207 -28 -114 -15 -210 -30 -212 -32 -7 -6 9 -117 17 -126 4 -3 98 5 209 20
111 14 206 23 210 21 4 -3 8 -23 8 -45 0 -43 6 -45 70 -33 31 7 32 8 27 50 -4
41 -3 43 25 49 35 8 58 -8 58 -42 0 -30 18 -37 76 -28 l45 6 -7 47 c-17 124
-68 170 -171 158 l-53 -6 0 34 c0 41 -3 44 -55 36z"/>
<path d="M1672 4237 c-8 -18 -9 -35 -3 -45 8 -14 10 -13 16 10 4 14 5 35 2 45
-3 15 -6 13 -15 -10z"/>
<path d="M497 4203 c-9 -9 -9 -105 1 -120 5 -8 63 -12 182 -15 150 -3 179 -6
202 -21 46 -31 56 -113 19 -151 -20 -20 -33 -21 -211 -24 l-190 -4 0 -70 0
-69 208 3 c186 3 211 5 247 24 99 50 113 207 28 297 l-27 27 37 0 37 0 0 65 0
65 -263 0 c-145 0 -267 -3 -270 -7z"/>
<path d="M7108 4155 c-52 -17 -107 -66 -135 -118 -9 -18 -18 -65 -21 -109 -4
-69 -2 -83 23 -134 26 -53 90 -114 120 -114 14 0 25 44 25 97 0 25 -8 43 -30
65 -52 52 -33 145 35 174 67 28 65 33 65 -166 l0 -180 58 0 c79 0 143 24 191
70 92 89 92 271 -1 357 -66 62 -228 90 -330 58z m232 -150 c76 -39 66 -154
-17 -186 -13 -5 -29 -9 -34 -9 -10 0 -13 193 -2 203 10 10 21 9 53 -8z"/>
<path d="M840 3553 c-96 -24 -177 -46 -179 -49 -5 -4 57 -274 65 -282 6 -8
114 22 114 32 0 6 -7 36 -15 66 -25 95 -23 99 48 79 109 -30 165 -164 111
-270 -44 -87 -227 -150 -341 -119 -134 38 -186 206 -91 299 l30 30 -17 70 -17
70 -29 -14 c-38 -20 -94 -79 -116 -123 -14 -28 -18 -59 -18 -132 1 -160 57
-260 178 -320 208 -102 503 12 563 217 20 68 14 153 -16 221 -26 57 -43 77
-97 112 l-42 27 39 18 c22 10 40 20 40 22 0 17 -24 93 -29 92 -3 0 -85 -21
-181 -46z"/>
<path d="M7015 3561 c-22 -10 -50 -29 -62 -42 -52 -57 -91 -207 -73 -283 32
-140 193 -184 278 -76 11 14 40 67 66 118 43 86 49 93 74 90 37 -4 49 -42 31
-99 -12 -37 -20 -46 -49 -55 -31 -10 -36 -17 -47 -60 -20 -86 -20 -87 36 -82
89 9 146 76 171 204 20 100 -17 190 -93 224 -101 46 -148 18 -230 -137 -65
-123 -87 -142 -119 -102 -15 18 -18 32 -13 63 11 64 36 100 72 104 30 3 32 6
46 70 11 50 12 69 4 74 -19 12 -50 9 -92 -11z"/>
<path d="M3347 3419 c-242 -27 -367 -211 -398 -589 -27 -321 39 -628 161 -750
23 -23 72 -56 108 -73 59 -27 79 -31 177 -35 173 -7 270 23 356 108 211 210
229 928 31 1197 -81 110 -245 163 -435 142z m163 -244 c93 -47 125 -192 117
-525 -8 -300 -36 -398 -125 -441 -52 -26 -120 -22 -161 8 -85 63 -106 160
-106 478 0 258 10 342 48 410 48 84 141 113 227 70z"/>
<path d="M5523 3415 c-218 -47 -362 -243 -363 -491 0 -198 85 -340 250 -418
56 -26 79 -31 165 -34 118 -5 187 16 250 73 l38 35 -6 -72 c-14 -158 -56 -252
-132 -295 -98 -55 -233 -7 -252 89 l-5 28 -140 0 -140 0 7 -42 c30 -186 212
-327 422 -328 219 0 378 112 458 325 50 133 60 203 60 430 0 223 -7 279 -51
397 -69 183 -181 279 -361 307 -89 14 -121 13 -200 -4z m243 -260 c69 -53 104
-202 74 -315 -16 -58 -80 -123 -138 -141 -53 -15 -136 -2 -181 30 -80 57 -104
258 -45 373 47 91 202 120 290 53z"/>
<path d="M2163 3405 c-119 -32 -204 -102 -254 -209 -31 -67 -59 -177 -59 -238
l0 -38 134 0 133 0 7 61 c14 123 55 179 146 198 143 31 240 -50 240 -198 0
-82 -30 -152 -93 -215 -24 -24 -114 -96 -199 -159 -84 -63 -182 -146 -217
-183 -92 -98 -146 -223 -165 -376 l-6 -48 485 0 485 0 0 125 0 125 -307 2
-307 3 44 46 c25 25 117 97 205 160 88 62 188 142 222 177 227 230 176 595
-104 736 -87 44 -283 59 -390 31z"/>
<path d="M4517 3414 c-4 -4 -7 -16 -7 -26 0 -42 -51 -128 -93 -156 -59 -40
-99 -52 -199 -59 l-88 -6 0 -93 0 -94 165 0 165 0 0 -490 0 -490 145 0 145 0
-2 708 -3 707 -111 3 c-60 1 -113 -1 -117 -4z"/>
<path d="M6788 2963 c-23 -25 -68 -118 -68 -142 0 -9 71 -41 90 -41 6 0 10 6
10 14 0 8 8 24 18 36 l18 22 139 -52 c77 -28 144 -55 148 -59 5 -5 2 -24 -6
-44 l-15 -35 39 -16 c53 -22 56 -21 69 19 13 41 18 42 88 15 29 -11 56 -20 61
-20 8 0 56 119 49 125 -1 1 -31 13 -66 25 -66 24 -68 27 -47 82 4 9 -10 19
-40 31 l-46 16 -15 -34 -14 -34 -67 25 c-38 14 -108 41 -158 60 -112 42 -152
44 -187 7z"/>
<path d="M1381 2219 c-22 -36 -14 -67 20 -76 10 -3 19 -9 19 -14 0 -17 37 -9
55 12 18 18 18 23 5 62 -13 36 -19 42 -47 45 -27 3 -36 -2 -52 -29z"/>
<path d="M1240 2138 c-55 -32 -155 -104 -171 -124 -16 -20 -19 -56 -5 -66 6
-4 4 -13 -4 -23 -11 -13 -10 -18 6 -29 10 -8 16 -18 12 -21 -4 -4 -3 -16 3
-27 8 -15 19 -19 45 -16 26 3 33 1 30 -9 -4 -9 4 -13 27 -12 18 0 26 3 18 6
-9 4 -2 11 20 21 28 13 31 16 14 19 -11 2 -40 22 -65 44 -41 36 -44 40 -27 53
9 7 17 18 17 25 0 6 7 11 15 11 8 0 14 5 13 12 -2 7 3 12 10 13 7 0 16 6 21
13 4 7 15 10 24 6 13 -4 17 -1 17 15 0 17 4 20 29 15 28 -6 29 -6 27 42 -1 41
-4 49 -21 51 -11 1 -36 -7 -55 -19z m-100 -272 c0 -3 -4 -8 -10 -11 -5 -3 -10
-1 -10 4 0 6 5 11 10 11 6 0 10 -2 10 -4z"/>
<path d="M6187 2008 c-9 -6 -8 -8 3 -8 12 0 12 -2 1 -9 -25 -16 17 -77 103
-149 44 -38 93 -76 108 -86 25 -16 26 -16 30 1 3 10 -2 31 -10 47 -13 26 -12
28 3 23 14 -6 13 -3 -3 21 -39 54 -113 123 -124 116 -6 -4 -8 -3 -5 3 3 5 0
19 -8 30 -15 22 -71 28 -98 11z"/>
<path d="M1456 1898 c-5 -18 -8 -20 -15 -9 -5 8 -21 15 -36 17 -32 3 -108 -34
-99 -48 4 -6 1 -9 -7 -6 -8 3 -22 -5 -31 -18 -19 -24 -25 -59 -8 -49 14 9 13
-8 -2 -23 -9 -9 -9 -12 -1 -12 8 0 9 -9 3 -31 -8 -27 -6 -35 18 -59 15 -14 34
-30 42 -33 11 -5 12 -9 3 -13 -9 -4 -7 -11 7 -26 11 -12 17 -25 14 -30 -9 -13
26 -48 48 -48 10 0 18 -5 18 -10 0 -7 7 -7 20 0 16 8 26 7 42 -5 14 -9 17 -15
9 -15 -8 0 -11 -3 -8 -6 4 -4 13 -1 21 5 22 19 1 57 -45 79 -67 33 -115 105
-103 155 4 18 7 37 6 44 -3 16 19 28 27 14 5 -7 19 -3 43 14 19 13 38 21 42
18 3 -3 11 -1 18 5 10 7 22 1 47 -24 19 -19 44 -37 55 -40 35 -11 66 -47 54
-61 -7 -9 -6 -17 5 -27 13 -13 17 -13 31 3 9 10 16 25 16 34 0 9 5 19 10 22
16 10 1 25 -18 18 -15 -6 -16 -5 -2 12 9 11 10 16 3 11 -8 -4 -13 -1 -13 8 0
9 -4 16 -10 16 -5 0 -10 7 -10 16 0 8 -4 12 -10 9 -5 -3 -10 1 -10 9 0 9 -7
16 -15 16 -8 0 -15 -5 -15 -11 0 -5 -5 -7 -11 -3 -8 5 -7 9 1 14 31 19 -12 50
-55 40 -37 -8 -55 -6 -55 7 0 8 4 12 9 9 5 -3 14 0 20 8 9 11 7 15 -11 20 -34
9 -35 8 -42 -16z m-46 -82 c0 -8 -4 -18 -10 -21 -5 -3 -10 3 -10 14 0 12 5 21
10 21 6 0 10 -6 10 -14z m155 4 c-3 -5 -1 -10 6 -10 7 0 10 -3 6 -6 -9 -9 -28
6 -22 17 4 5 8 9 11 9 3 0 2 -4 -1 -10z m75 -50 c0 -5 -4 -10 -10 -10 -5 0
-10 5 -10 10 0 6 5 10 10 10 6 0 10 -4 10 -10z m-266 -231 c-3 -5 -10 -7 -15
-3 -5 3 -7 10 -3 15 3 5 10 7 15 3 5 -3 7 -10 3 -15z"/>
<path d="M6090 1851 c0 -4 -11 -6 -24 -4 -52 10 -44 -55 16 -125 23 -26 70
-73 106 -105 52 -45 68 -55 74 -43 4 8 4 26 -2 41 -13 33 -13 38 0 30 25 -15
-5 38 -55 96 -16 20 -43 52 -60 72 -30 36 -55 54 -55 38z"/>
<path d="M1810 1783 c-19 -31 -70 -97 -112 -146 -43 -50 -78 -93 -78 -98 0 -4
-30 -38 -66 -76 -61 -63 -64 -68 -42 -73 12 -3 27 -15 33 -26 8 -16 16 -19 44
-13 18 4 43 17 55 29 l21 22 -22 -11 c-29 -15 -51 -15 -36 0 13 13 83 20 83 8
0 -17 19 -9 25 11 3 11 10 20 15 20 5 0 7 -7 4 -15 -7 -17 31 -22 41 -5 3 6
11 10 16 10 17 0 5 -53 -18 -76 -23 -23 -32 -51 -13 -39 14 9 12 -9 -2 -23
-10 -10 -10 -14 0 -21 10 -6 10 -10 -3 -21 -19 -16 -19 -40 1 -68 20 -29 55
-28 83 2 16 17 20 30 15 50 -3 14 -12 26 -20 26 -8 0 -11 6 -8 15 5 13 9 13
22 3 13 -11 14 -10 8 10 -6 17 -2 28 13 41 11 10 18 21 14 25 -4 3 2 12 12 20
12 9 16 21 13 39 -3 17 -1 24 7 21 16 -7 24 26 13 55 -7 19 -14 23 -43 19 -19
-2 -36 0 -37 4 -2 4 -20 3 -41 -3 -21 -5 -46 -8 -56 -4 -10 3 -31 1 -46 -5
-41 -16 -42 -5 -1 22 20 13 36 31 36 41 0 10 7 20 15 23 8 4 15 13 15 21 0 10
7 14 19 10 21 -5 36 17 25 35 -3 5 10 25 30 43 24 22 33 36 25 41 -7 4 0 12
20 20 23 9 31 20 31 37 0 27 -23 52 -40 42 -5 -3 -10 -1 -10 4 0 28 -29 6 -60
-46z"/>
<path d="M6573 1678 c-35 -17 -27 -55 25 -110 19 -21 29 -25 39 -17 14 12 18
33 5 25 -5 -3 -8 4 -7 15 1 11 7 24 14 28 16 10 -1 56 -24 65 -21 8 -25 7 -52
-6z"/>
<path d="M6393 1486 c-30 -14 -29 -33 7 -90 33 -52 55 -56 55 -10 0 16 5 32
12 36 23 16 -11 80 -41 77 -6 -1 -21 -6 -33 -13z"/>
<path d="M5658 1401 c-40 -20 -41 -54 -2 -88 33 -30 40 -29 75 9 35 39 37 58
7 78 -32 20 -42 20 -80 1z"/>
<path d="M5723 1243 c-7 -3 -13 -10 -13 -17 0 -30 80 -166 139 -233 20 -24 55
-30 66 -13 5 8 11 7 21 -1 11 -9 18 -9 26 -1 7 7 22 12 34 12 28 0 39 17 35
52 -2 22 1 27 13 22 13 -5 16 1 16 27 0 26 -3 30 -10 19 -8 -12 -10 -12 -10 5
0 11 -7 29 -15 39 -15 20 -15 20 -15 0 0 -10 -18 -39 -39 -63 l-38 -44 -26 19
c-15 10 -27 24 -27 31 0 7 -7 10 -17 6 -13 -5 -15 -2 -10 11 4 10 1 19 -8 23
-10 3 -13 12 -10 23 4 12 -1 19 -15 23 -18 5 -20 9 -11 26 16 29 14 31 -22 29
-19 -1 -38 1 -43 4 -5 3 -15 3 -21 1z m287 -203 c0 -5 -2 -10 -4 -10 -3 0 -8
5 -11 10 -3 6 -1 10 4 10 6 0 11 -4 11 -10z"/>
<path d="M4873 1206 c3 -8 -2 -16 -14 -19 -26 -7 -24 -29 5 -72 14 -20 23 -42
20 -50 -3 -8 17 -64 45 -125 28 -61 51 -119 51 -130 0 -10 7 -31 15 -47 8 -15
29 -68 46 -118 20 -58 41 -98 58 -112 l26 -23 18 25 c10 14 25 25 32 25 8 0
18 6 22 13 4 6 17 17 28 23 11 6 18 15 17 19 -2 4 0 11 5 14 17 12 33 63 27
87 -5 19 -2 24 14 24 24 0 35 28 26 64 -5 21 -2 26 12 27 17 0 16 1 -2 9 -31
12 -39 40 -11 40 16 0 18 3 8 9 -7 5 -11 15 -9 22 8 22 -20 69 -37 63 -10 -4
-15 0 -15 10 0 9 -17 24 -37 34 -21 9 -39 20 -41 25 -6 12 -39 8 -51 -7 -6 -8
-32 -19 -57 -25 -42 -11 -48 -10 -73 12 -15 12 -26 28 -24 34 6 17 -36 104
-65 136 -28 29 -48 36 -39 13z m350 -269 c0 -11 8 -28 19 -39 24 -24 18 -61
-22 -134 -21 -38 -26 -54 -17 -63 6 -6 7 -14 3 -18 -4 -4 -10 -2 -14 4 -9 14
-35 -4 -46 -32 -6 -18 -9 -17 -28 13 -11 18 -18 41 -15 52 3 13 1 18 -6 13 -7
-4 -8 0 -4 11 4 10 -2 38 -13 63 -11 25 -20 58 -20 74 0 37 37 63 75 53 19 -5
26 -3 21 4 -8 13 11 21 44 19 18 -1 25 -7 23 -20z m77 -163 c0 -8 -9 -14 -22
-13 -13 0 -17 3 -10 6 6 2 12 11 12 19 0 9 5 12 10 9 6 -3 10 -13 10 -21z
m-130 -164 c0 -5 -6 -9 -12 -7 -8 1 -12 -6 -10 -18 3 -19 2 -19 -13 -3 -10 9
-14 21 -11 27 9 14 46 15 46 1z"/>
<path d="M5565 1160 c-4 -6 -10 -8 -15 -5 -4 3 -11 -2 -14 -11 -3 -9 -12 -14
-18 -12 -17 6 -41 -19 -32 -33 5 -9 -4 -10 -32 -4 -21 4 -36 4 -32 0 11 -11
-20 -50 -40 -50 -21 0 -22 -31 -2 -65 10 -16 11 -22 2 -16 -7 4 -19 0 -29 -9
-15 -16 -14 -21 10 -71 20 -40 39 -61 74 -84 27 -16 58 -30 70 -30 12 0 25 -4
28 -10 4 -6 17 -4 36 5 16 9 34 13 39 10 16 -10 80 15 80 31 0 8 8 15 18 15
28 2 35 4 85 27 27 12 45 26 42 32 -3 5 -2 10 3 10 6 0 5 10 -1 25 -13 27 -51
34 -60 12 -3 -7 -24 -19 -48 -26 -24 -7 -54 -18 -66 -24 -13 -6 -25 -8 -29 -5
-3 3 -28 0 -57 -8 -63 -16 -84 -3 -33 21 20 10 33 21 30 26 -3 5 2 6 10 3 20
-8 21 10 1 26 -19 16 -10 30 15 23 14 -4 20 0 20 10 0 9 9 22 20 30 24 17 43
64 29 72 -5 4 -7 11 -4 16 4 5 1 9 -4 9 -6 0 -10 6 -8 13 1 8 -10 12 -35 11
-21 0 -39 5 -42 12 -3 9 1 11 12 7 15 -6 15 -5 3 10 -16 20 -18 20 -26 7z m17
-52 c15 -12 15 -16 0 -50 -9 -21 -22 -38 -29 -38 -7 0 -13 -11 -13 -25 0 -15
-6 -25 -14 -25 -20 0 -77 -62 -71 -78 3 -8 0 -12 -7 -9 -17 5 -12 91 8 128 18
36 85 108 100 109 5 0 17 -6 26 -12z m-12 -108 c0 -5 -2 -10 -4 -10 -3 0 -8 5
-11 10 -3 6 -1 10 4 10 6 0 11 -4 11 -10z"/>
<path d="M2288 1123 c-14 -7 -40 -36 -57 -63 -33 -53 -37 -65 -21 -55 15 9 12
-7 -5 -29 -18 -24 -20 -42 -2 -28 10 8 12 2 9 -30 -3 -26 -1 -38 6 -34 6 3 8
-2 5 -13 -6 -25 17 -39 29 -17 14 24 26 19 21 -8 -5 -23 -3 -24 33 -20 26 3
45 13 57 29 17 22 19 23 37 8 10 -9 16 -22 13 -29 -3 -8 2 -14 11 -14 9 0 16
-5 16 -11 0 -7 8 -18 18 -26 9 -8 11 -11 3 -7 -10 5 -12 3 -7 -5 5 -7 14 -10
22 -7 7 3 16 1 20 -5 4 -6 15 -4 31 6 14 9 27 14 31 11 3 -3 2 -6 -3 -6 -4 0
-2 -7 5 -15 8 -10 9 -15 1 -15 -7 0 -8 -8 -1 -24 5 -13 8 -26 7 -28 -1 -2 6 5
15 15 15 16 36 22 90 26 10 0 25 13 34 27 15 22 15 27 3 34 -12 8 -11 11 2 22
18 14 36 128 20 128 -5 0 -11 10 -13 23 -2 12 -8 21 -14 20 -7 -1 -9 8 -6 22
4 21 0 25 -20 25 -16 0 -29 -9 -38 -25 -7 -14 -17 -25 -22 -25 -5 0 1 -18 12
-40 20 -39 26 -93 14 -124 -11 -29 -58 -19 -95 20 -86 91 -76 73 -78 147 -1
39 -4 47 -20 47 -11 0 -32 -11 -48 -24 -51 -42 -106 -59 -126 -39 -8 7 19 52
40 68 17 12 23 83 9 94 -6 4 -23 1 -38 -6z m367 -153 c-3 -5 -11 -10 -16 -10
-6 0 -7 5 -4 10 3 6 11 10 16 10 6 0 7 -4 4 -10z m-210 -50 c-3 -5 -10 -10
-16 -10 -5 0 -9 5 -9 10 0 6 7 10 16 10 8 0 12 -4 9 -10z m-165 -4 c0 -2 -7
-7 -16 -10 -8 -3 -12 -2 -9 4 6 10 25 14 25 6z m240 -96 c0 -5 -5 -10 -11 -10
-5 0 -7 5 -4 10 3 6 8 10 11 10 2 0 4 -4 4 -10z"/>
<path d="M4278 1043 c-22 -5 -30 -47 -33 -166 -3 -120 -3 -120 -19 -114 -7 3
-26 -1 -42 -9 -15 -8 -37 -13 -48 -12 -16 2 -20 -2 -18 -16 3 -17 2 -18 -13
-6 -12 10 -19 10 -27 2 -7 -7 -22 -12 -33 -12 -32 0 -67 -43 -90 -110 -1 -3
-5 -13 -9 -23 -12 -25 2 -87 19 -87 8 0 16 -10 17 -22 2 -43 3 -47 11 -55 13
-13 31 -10 44 7 10 12 12 12 13 1 0 -7 6 -11 14 -8 7 3 18 1 23 -4 13 -13 71
9 76 29 4 15 5 14 6 -1 0 -10 4 -17 9 -15 56 27 82 44 82 53 0 10 68 55 84 55
3 0 6 -6 6 -13 0 -8 16 -22 35 -33 20 -10 42 -29 50 -40 16 -25 59 -36 79 -20
33 27 20 85 -16 71 -18 -7 -74 54 -94 101 -8 19 -14 47 -14 63 0 16 -5 33 -11
36 -6 4 -8 13 -5 20 2 7 -6 25 -19 39 -22 24 -23 28 -9 55 18 35 4 84 -21 75
-8 -3 -15 -1 -15 6 0 6 5 8 10 5 14 -9 41 59 33 82 -9 26 -43 73 -51 72 -4 -1
-15 -3 -24 -6z m-43 -363 c4 -6 11 -8 16 -5 5 3 6 -1 3 -9 -4 -10 -1 -16 7
-16 23 -1 45 -23 52 -52 5 -20 4 -26 -5 -23 -7 3 -37 -13 -66 -35 -86 -64
-149 -73 -199 -27 -27 24 -29 54 -6 101 15 33 22 37 97 55 99 24 93 23 101 11z
m235 -225 c10 -12 10 -15 -4 -15 -9 0 -16 7 -16 15 0 8 2 15 4 15 2 0 9 -7 16
-15z"/>
<path d="M2895 918 c-6 -13 -20 -24 -32 -26 -13 -2 -23 -8 -23 -13 0 -6 -4 -8
-9 -4 -5 3 -17 -2 -26 -11 -13 -14 -14 -19 -3 -25 9 -6 6 -9 -11 -9 -16 0 -21
-4 -17 -15 3 -8 2 -15 -2 -15 -14 0 -30 -55 -30 -103 0 -41 2 -47 17 -42 15 4
17 0 13 -25 -4 -27 0 -32 32 -45 42 -18 151 -16 151 2 0 7 9 19 20 26 17 13
20 12 32 -10 7 -14 13 -34 13 -45 0 -11 13 -26 30 -36 16 -9 30 -23 30 -29 0
-17 57 -17 63 0 2 6 -6 23 -18 37 -27 30 -43 91 -40 154 1 33 -2 46 -12 46 -7
0 -13 4 -13 10 0 5 7 7 16 3 14 -5 16 -1 11 23 -23 120 -50 159 -110 159 -23
1 -49 4 -57 8 -10 5 -18 0 -25 -15z m106 -77 l24 -19 -30 -61 c-16 -34 -33
-61 -37 -61 -5 0 -6 -5 -3 -10 4 -6 3 -10 -2 -9 -4 1 -15 0 -23 -4 -60 -23
-123 -9 -118 27 1 12 -1 26 -5 32 -4 7 2 14 17 18 14 3 30 20 40 41 9 19 18
35 19 35 1 0 20 7 42 15 51 18 49 18 76 -4z"/>
<path d="M3290 826 c0 -16 -2 -17 -16 -5 -15 12 -16 11 -10 -8 4 -12 2 -24 -4
-28 -16 -10 -12 -21 21 -54 31 -31 31 -31 20 -97 -5 -36 -7 -72 -4 -80 3 -8 0
-21 -6 -28 -7 -8 -11 -36 -9 -63 3 -45 5 -48 28 -45 34 5 60 40 60 82 0 20 4
40 10 46 5 5 10 40 11 77 1 36 5 64 10 61 5 -3 9 0 9 6 0 6 8 10 18 8 9 -2 22
3 28 10 11 15 54 8 54 -9 0 -5 8 -17 19 -28 20 -20 51 -12 51 15 0 8 4 13 9 9
19 -11 21 15 4 42 -43 68 -86 88 -128 60 -41 -28 -65 -27 -96 4 -18 18 -34 27
-45 22 -9 -3 -20 0 -25 8 -7 11 -9 10 -9 -5z"/>
<path d="M4632 820 c-7 -11 -15 -19 -20 -19 -34 6 -49 -3 -49 -27 0 -15 -8
-31 -17 -36 -9 -5 -14 -13 -11 -18 3 -4 -2 -10 -10 -14 -18 -7 -20 -46 -2 -46
7 0 5 -5 -5 -10 -13 -8 -15 -19 -11 -48 7 -43 50 -132 65 -132 5 0 6 5 3 10
-3 6 -2 10 3 10 5 0 14 -12 21 -26 11 -25 15 -26 58 -20 26 3 56 15 68 26 12
11 28 20 37 20 9 0 18 7 22 15 3 8 1 15 -4 15 -6 0 -5 11 2 25 14 32 20 31 56
-5 20 -19 41 -30 59 -30 16 0 33 -4 39 -9 14 -14 54 6 54 27 0 14 -9 21 -31
26 -34 6 -85 56 -114 110 -11 20 -26 36 -33 36 -8 0 -11 7 -8 18 4 12 -6 31
-31 58 -59 63 -118 81 -141 44z m82 -66 c20 -20 21 -112 3 -157 -17 -39 -79
-77 -103 -62 -9 6 -15 14 -14 19 1 5 -6 13 -15 19 -15 8 -15 10 0 27 9 10 15
31 14 51 -3 40 11 70 47 98 32 25 47 26 68 5z"/>
</g>
</svg>
