<?xml version="1.0" standalone="no"?>
<!DOCTYPE svg PUBLIC "-//W3C//DTD SVG 20010904//EN"
 "http://www.w3.org/TR/2001/REC-SVG-20010904/DTD/svg10.dtd">
<svg version="1.0" xmlns="http://www.w3.org/2000/svg"
 width="800.000000pt" height="800.000000pt" viewBox="0 0 800.000000 800.000000"
 preserveAspectRatio="xMidYMid meet">

<g transform="translate(0.000000,800.000000) scale(0.100000,-0.100000)"
fill="#000000" stroke="none">
<path d="M4400 6259 c-14 -6 -51 -12 -82 -14 -36 -2 -71 -11 -93 -24 -19 -11
-42 -18 -50 -15 -30 12 -47 -16 -43 -70 l3 -51 -30 2 c-102 8 -225 22 -258 28
-28 5 -44 3 -63 -10 -23 -15 -27 -15 -43 -1 -20 18 -114 22 -155 6 -14 -5 -39
-23 -55 -41 -41 -42 -42 -91 -4 -122 54 -44 94 -90 108 -123 10 -24 26 -40 50
-50 20 -8 34 -18 31 -23 -7 -11 -143 -34 -155 -26 -16 9 -91 -13 -141 -43 -25
-14 -55 -25 -68 -23 -13 1 -38 -9 -57 -23 -18 -14 -45 -26 -58 -26 -13 0 -41
-12 -62 -26 l-38 -25 -23 22 c-29 27 -44 77 -48 165 -3 56 -9 73 -40 118 -20
29 -36 65 -36 80 0 43 -58 96 -105 96 -21 0 -53 10 -72 21 -48 30 -156 23
-229 -14 -29 -14 -78 -31 -110 -36 -72 -12 -94 -20 -166 -62 -75 -44 -138
-126 -138 -178 0 -25 -7 -44 -20 -56 -20 -18 -21 -18 -50 14 -35 37 -40 37
-140 -16 -124 -66 -207 -174 -232 -303 -12 -61 -15 -65 -59 -89 -52 -29 -236
-204 -245 -234 -3 -11 1 -36 9 -56 8 -20 18 -45 21 -55 11 -33 16 -11 6 24
-16 57 6 106 81 182 37 37 82 74 99 83 40 21 164 32 174 16 4 -6 15 -11 24
-10 9 0 -7 12 -36 25 -50 23 -61 43 -24 45 10 1 7 4 -8 8 -33 9 -35 40 -7 121
16 48 26 65 40 64 10 -1 17 5 17 15 0 10 31 47 70 83 71 67 95 78 175 78 53 0
74 -22 70 -70 -3 -27 5 -48 31 -87 34 -53 55 -72 33 -31 -8 15 -8 23 -1 26 6
2 -3 28 -20 61 -18 36 -28 66 -24 78 13 42 184 216 205 210 3 -1 19 7 34 18
16 10 37 19 47 20 10 1 25 7 34 14 8 7 43 15 77 18 44 4 57 9 45 15 -9 5 -21
6 -26 3 -6 -3 -10 -2 -10 3 0 19 14 21 47 7 l35 -15 -16 25 c-21 32 -11 37 80
43 66 4 73 3 83 -17 9 -16 19 -20 46 -16 28 3 38 -1 60 -26 14 -17 25 -28 25
-24 0 3 8 1 19 -4 24 -13 34 -50 15 -58 -20 -7 -17 -23 4 -23 11 0 26 -8 35
-17 17 -20 57 -166 57 -211 0 -16 10 -42 21 -57 32 -40 33 -118 1 -169 -29
-47 -52 -119 -52 -166 0 -42 17 -107 30 -115 11 -7 8 18 -5 48 -4 10 -5 50 -2
88 7 82 27 119 91 169 36 27 45 40 41 57 -4 16 3 26 29 42 44 28 46 27 46 -14
0 -27 3 -33 16 -28 8 3 13 11 10 18 -7 19 66 85 94 85 29 0 53 13 48 26 -4 11
36 29 80 38 28 5 35 3 39 -14 7 -25 11 -25 39 1 16 15 29 19 41 14 28 -11 84
-12 73 0 -17 16 -11 23 26 29 22 5 41 3 49 -4 8 -7 19 -9 25 -5 15 9 74 -30
117 -78 27 -32 32 -35 18 -12 -28 47 -55 73 -98 94 -56 28 -186 149 -202 188
-8 18 -19 33 -24 33 -6 0 -26 14 -45 30 l-35 31 21 35 c26 44 109 89 137 74
11 -5 21 -13 23 -17 3 -5 3 -3 2 4 -5 20 18 27 31 10 9 -13 28 -17 73 -17 45
0 63 -4 70 -16 8 -14 10 -14 21 0 16 19 126 23 136 5 4 -6 14 -8 22 -5 9 4 28
-7 48 -30 32 -34 34 -35 57 -20 14 9 28 13 33 9 4 -5 -5 16 -19 46 -28 55 -28
85 -1 75 10 -4 13 -2 10 8 -8 21 34 54 84 66 39 9 44 9 48 -9 7 -24 15 -24 38
1 15 16 26 19 49 14 17 -4 38 -8 47 -9 8 0 29 -10 45 -22 32 -22 144 -62 238
-85 39 -9 63 -20 70 -33 6 -11 12 -22 13 -24 2 -2 9 2 17 8 11 9 19 9 34 0 16
-10 23 -8 42 11 19 19 29 21 66 16 24 -3 46 -1 49 4 9 15 61 12 74 -4 8 -10
21 -12 47 -6 56 13 150 -23 96 -37 -13 -3 -19 -12 -18 -28 1 -18 5 -21 17 -14
37 19 39 -30 4 -77 -21 -27 -24 -39 -19 -76 6 -43 5 -45 -35 -71 -23 -15 -41
-32 -41 -38 0 -11 1 -11 82 45 32 21 64 49 73 63 9 13 24 23 33 21 9 -2 22 5
27 16 6 10 13 17 16 15 3 -2 20 9 38 24 26 22 42 27 70 25 22 -2 40 2 47 11
11 14 20 16 135 27 52 5 74 2 100 -11 l34 -18 -24 27 c-14 14 -23 26 -20 27
32 7 100 6 104 -1 3 -5 18 -7 33 -4 20 4 35 -1 57 -20 22 -19 32 -22 42 -14
10 8 17 8 24 1 8 -8 7 -13 0 -17 -19 -12 -12 -26 12 -26 31 0 49 -14 42 -33
-5 -12 1 -16 32 -19 33 -3 38 -6 38 -28 0 -14 3 -30 7 -35 6 -10 9 -76 6 -151
-1 -17 7 -46 16 -65 41 -80 46 -107 36 -198 -14 -127 -3 -189 43 -235 20 -20
49 -60 63 -89 15 -29 33 -60 41 -69 9 -10 16 -41 18 -75 2 -43 11 -76 37 -128
42 -84 62 -142 60 -174 -1 -12 4 -37 12 -55 22 -50 37 -118 36 -163 0 -23 5
-45 11 -49 8 -5 10 -2 6 8 -3 9 -1 33 4 55 8 30 7 49 -6 83 -9 25 -19 59 -22
75 -3 17 -12 39 -19 50 -7 11 -16 39 -20 63 -4 23 -11 45 -15 48 -5 3 -9 22
-9 43 0 24 -8 48 -21 65 -13 17 -19 37 -17 58 2 28 7 33 26 31 l23 -3 -27 35
c-14 19 -30 35 -34 35 -4 0 -17 26 -29 58 -21 57 -49 96 -107 154 -25 24 -26
30 -19 75 5 26 10 68 11 93 2 25 6 68 10 95 8 70 -9 154 -45 213 -20 32 -31
62 -31 87 0 24 -13 62 -37 106 -36 67 -41 71 -128 110 -16 8 -45 24 -64 37
-32 21 -41 22 -145 16 -177 -9 -242 -21 -315 -59 -67 -35 -151 -68 -158 -62
-1 2 -20 37 -41 78 -36 72 -39 75 -92 93 -41 14 -90 19 -195 21 -193 3 -218 9
-289 66 -43 35 -75 51 -123 63 -86 22 -173 28 -203 15z m235 -58 c41 -19 65
-36 65 -46 0 -11 6 -15 19 -10 10 3 24 -1 31 -10 11 -13 8 -14 -21 -9 -52 9
-171 44 -201 60 -35 18 -27 44 13 44 16 0 59 -13 94 -29z m-1694 -208 c13 -16
12 -17 -3 -4 -10 7 -18 15 -18 17 0 8 8 3 21 -13z m-577 -58 c-3 -8 -14 -17
-24 -20 -10 -3 -44 -30 -74 -60 -31 -30 -58 -55 -61 -55 -14 0 52 74 98 110
52 42 70 49 61 25z m2892 -73 c-23 -23 -33 -6 -10 19 12 13 20 16 22 9 3 -7
-3 -19 -12 -28z m961 -262 c21 -71 9 -81 -20 -16 -32 69 -32 68 -10 64 11 -2
22 -21 30 -48z m-4028 -45 c0 -5 -9 1 -19 14 -11 13 -20 28 -20 35 0 6 9 0 20
-14 11 -14 20 -29 19 -35z m-459 -245 c0 -5 -12 -10 -27 -10 -22 0 -25 2 -13
10 20 13 40 13 40 0z"/>
<path d="M4475 5880 c-3 -5 1 -10 10 -10 9 0 13 5 10 10 -3 6 -8 10 -10 10 -2
0 -7 -4 -10 -10z"/>
<path d="M2751 5855 c-41 -13 -60 -28 -61 -48 0 -4 12 2 28 13 15 11 56 27 92
34 57 13 60 14 25 15 -22 0 -60 -7 -84 -14z"/>
<path d="M3956 5525 c8 -37 14 -45 14 -19 0 10 -5 26 -10 34 -8 11 -9 7 -4
-15z"/>
<path d="M2212 5465 c0 -16 2 -22 5 -12 2 9 2 23 0 30 -3 6 -5 -1 -5 -18z"/>
<path d="M3963 5400 c0 -25 2 -35 4 -22 2 12 2 32 0 45 -2 12 -4 2 -4 -23z"/>
<path d="M3965 5298 c3 -26 0 -50 -6 -53 -5 -4 -7 -14 -4 -24 3 -11 -7 -29
-30 -51 -36 -35 -42 -54 -24 -80 8 -12 9 -10 4 8 -5 18 3 33 40 73 40 43 46
54 40 77 -5 15 -12 43 -16 62 -7 31 -8 29 -4 -12z"/>
<path d="M5845 5296 c6 -30 45 -85 84 -120 17 -15 21 -32 23 -85 1 -59 2 -61
5 -16 6 79 7 80 59 45 25 -18 48 -30 50 -27 3 3 -10 14 -29 26 -18 11 -57 45
-85 74 -28 30 -58 57 -67 61 -9 3 -23 20 -31 38 -15 33 -15 33 -9 4z"/>
<path d="M3401 5291 c-7 -5 -12 -13 -10 -19 2 -6 14 -2 28 9 23 19 9 27 -18
10z"/>
<path d="M5144 5169 c-16 -4 -119 -28 -229 -54 -110 -26 -272 -62 -360 -81
-88 -19 -185 -41 -215 -49 -30 -9 -112 -27 -182 -42 -85 -18 -128 -31 -128
-40 0 -7 -4 -13 -10 -13 -5 0 -41 -29 -79 -65 -37 -36 -71 -65 -75 -65 -4 0
-35 19 -69 41 l-62 42 -180 3 c-99 2 -212 6 -250 9 -39 2 -145 0 -235 -5 -91
-5 -245 -10 -342 -11 -157 -1 -178 -3 -179 -18 0 -9 -2 -60 -4 -115 l-2 -98
-39 -39 c-22 -21 -62 -53 -91 -71 -117 -74 -225 -150 -230 -164 -11 -30 17
-44 87 -44 86 0 92 -7 80 -90 -14 -95 -12 -165 7 -259 10 -53 13 -89 7 -98 -7
-11 -38 -15 -129 -18 -126 -4 -206 -21 -327 -68 -47 -18 -70 -23 -74 -15 -10
16 -24 285 -17 334 4 30 0 50 -12 71 -13 23 -15 37 -8 58 8 24 19 31 83 49 40
12 75 26 77 32 2 7 -17 4 -49 -7 -29 -10 -67 -18 -85 -19 -17 0 -35 -5 -39
-12 -13 -21 -15 -77 -4 -99 13 -24 23 -370 14 -474 l-6 -70 -34 -1 -34 0 6
105 c4 58 7 149 9 201 1 52 3 100 5 105 1 6 1 15 0 20 -15 74 -18 119 -8 146
8 24 8 37 -1 50 -8 13 -8 19 0 19 16 0 5 25 -12 26 -8 1 -29 2 -46 3 -21 1
-44 12 -65 31 -31 28 -32 31 -16 44 23 17 23 28 1 25 -29 -5 -96 22 -125 49
-26 24 -27 27 -13 49 14 21 14 23 -4 23 -23 0 -51 36 -51 65 0 11 7 31 16 43
17 25 9 29 -16 7 -15 -14 -18 -14 -30 1 -12 13 -11 21 5 51 20 37 81 90 92 80
3 -3 14 4 23 16 19 23 41 18 23 -5 -31 -41 -39 -138 -12 -138 5 0 4 8 -2 18
-16 26 -4 65 33 107 34 39 51 41 53 7 2 -29 15 -41 15 -14 0 22 25 40 75 54
29 7 16 7 -65 -3 -8 -1 -41 -1 -73 -1 -51 2 -59 5 -69 27 -8 18 -8 32 2 55 14
33 73 80 101 80 9 0 20 7 23 16 9 22 26 7 27 -24 1 -21 2 -22 6 -7 3 11 11 27
18 35 6 8 15 23 18 33 13 36 145 75 162 47 3 -5 -15 -19 -40 -31 -46 -22 -62
-36 -51 -46 3 -4 14 1 24 10 10 9 34 23 54 31 32 14 37 14 48 1 11 -13 14 -13
24 1 8 11 20 13 39 9 l27 -7 -32 -17 c-32 -15 -53 -61 -28 -61 6 0 9 4 5 10
-3 5 6 16 19 25 36 24 101 11 138 -25 15 -16 28 -25 28 -20 0 15 -33 42 -67
57 -19 7 -42 22 -53 33 -12 12 -33 20 -54 20 -18 0 -47 7 -62 15 -59 30 -146
13 -193 -39 -14 -14 -33 -26 -42 -26 -38 0 -135 -43 -162 -71 -34 -37 -34 -63
0 -107 l27 -35 -25 -16 c-45 -29 -99 -89 -99 -110 0 -12 11 -43 25 -69 14 -26
25 -52 25 -59 0 -7 9 -17 20 -23 12 -6 17 -16 13 -26 -10 -27 19 -62 73 -88
39 -19 57 -34 70 -62 18 -37 62 -64 104 -64 27 0 45 -44 31 -79 -6 -14 -8 -51
-6 -81 13 -174 15 -249 5 -274 -5 -15 -13 -65 -16 -112 l-7 -84 -61 -42 c-98
-66 -145 -102 -146 -110 0 -16 29 -6 114 38 49 25 94 43 101 40 7 -2 22 2 34
10 12 9 36 14 54 12 31 -3 32 -1 37 37 5 43 21 55 123 90 33 12 47 22 45 33
-2 12 11 19 52 29 94 21 524 40 535 23 7 -11 507 -6 526 5 6 4 72 6 147 4 75
-2 142 -1 148 3 14 9 125 26 194 30 l55 2 6 -56 c8 -70 10 -74 58 -81 22 -2
90 -26 153 -52 62 -26 128 -52 147 -59 19 -6 41 -23 50 -38 9 -16 22 -28 28
-28 7 0 20 -11 28 -24 9 -13 24 -27 33 -30 9 -3 32 -15 50 -26 23 -14 49 -20
80 -19 26 1 69 -4 95 -11 45 -11 50 -10 72 10 20 19 26 20 47 10 12 -7 31 -19
40 -27 11 -10 24 -13 35 -7 10 4 25 9 33 10 52 10 546 36 823 44 204 5 333 12
341 19 9 8 32 5 82 -8 38 -10 94 -22 124 -25 34 -5 84 -23 133 -48 53 -28 81
-38 88 -31 7 7 27 5 62 -8 29 -11 61 -19 73 -19 12 0 33 -9 47 -20 14 -11 33
-20 43 -20 9 0 26 -7 36 -17 10 -9 21 -13 24 -10 12 11 -3 32 -32 46 -16 7
-36 17 -44 22 -122 72 -264 122 -475 169 l-120 27 -9 139 c-5 91 -4 191 3 289
6 83 11 223 12 313 1 184 2 186 82 181 23 -1 48 -1 55 0 24 2 12 30 -23 51
-19 12 -38 28 -42 35 -13 23 -589 602 -616 620 -29 19 -78 24 -123 14z m153
-116 c35 -38 63 -69 63 -70 0 -1 -63 -2 -140 -2 -77 -1 -140 2 -140 6 0 10
133 132 144 133 6 0 38 -30 73 -67z m-212 25 c-26 -31 -169 -177 -479 -488
l-140 -140 -155 0 c-86 0 -280 -9 -431 -20 -279 -19 -320 -17 -275 16 61 45
265 229 265 239 0 6 39 50 88 96 l87 85 110 23 c61 12 146 33 190 46 44 13
118 31 165 40 47 9 130 29 185 45 114 32 344 83 403 89 8 0 3 -13 -13 -31z
m408 -216 c45 -44 112 -105 148 -136 64 -53 219 -213 219 -226 0 -3 -147 -6
-327 -5 -181 0 -417 -4 -525 -9 l-198 -9 -2 54 c-1 30 -2 70 -2 89 -1 24 -6
35 -16 35 -12 0 -14 -13 -12 -70 2 -38 5 -77 8 -86 4 -14 -11 -17 -102 -22
-59 -4 -109 -5 -111 -3 -2 1 103 110 234 241 l236 238 185 -6 184 -5 81 -80z
m-1866 -88 c196 -16 39 -23 -554 -26 -260 -1 -475 1 -479 4 -3 4 -3 11 0 16 7
12 903 17 1033 6z m159 -41 c18 -16 34 -32 33 -38 0 -5 -18 -25 -40 -44 l-39
-33 0 71 c0 39 2 71 6 71 3 0 21 -12 40 -27z m-706 -74 l0 -49 -35 0 -34 0 15
43 c8 23 16 48 19 54 2 7 11 10 20 7 11 -4 15 -20 15 -55z m66 51 c21 0 23 -3
14 -26 -6 -14 -10 -39 -10 -55 0 -24 -4 -29 -26 -29 -24 0 -25 2 -19 44 5 28
3 46 -4 50 -17 11 -13 29 5 22 9 -3 26 -6 40 -6z m496 -32 c-2 -21 0 -38 5
-38 14 0 33 38 27 55 -4 10 0 15 11 15 15 0 17 -7 13 -45 -4 -27 -1 -48 5 -52
18 -11 -38 -21 -88 -15 -46 5 -47 5 -40 36 3 17 8 42 10 56 2 14 4 26 4 28 1
2 13 2 29 0 25 -3 27 -6 24 -40z m-1008 19 c25 -18 14 -97 -14 -97 -13 0 -19
11 -24 45 -10 63 2 78 38 52z m166 -37 c0 -27 4 -50 9 -50 15 0 21 15 23 59 1
38 4 41 29 41 24 0 27 -4 33 -45 10 -62 22 -64 30 -5 l7 50 39 0 c22 0 40 -3
40 -6 0 -3 -5 -25 -11 -48 -10 -40 -14 -44 -47 -50 -21 -3 -76 -6 -124 -6
l-88 0 0 29 c0 47 17 81 40 81 17 0 20 -6 20 -50z m514 41 c4 -5 9 -30 12 -55
l7 -46 -31 0 c-29 0 -31 2 -34 42 -2 23 -9 43 -16 46 -9 3 -12 -4 -11 -19 5
-61 1 -69 -37 -69 -32 0 -35 2 -27 23 4 12 8 37 8 55 l0 32 62 0 c34 0 64 -4
67 -9z m81 -1 c3 -6 3 -30 -1 -55 -5 -35 -10 -45 -25 -45 -16 0 -19 8 -19 55
0 48 3 55 19 55 11 0 23 -5 26 -10z m158 -20 c-8 -18 -12 -41 -9 -55 6 -25 5
-26 -36 -29 -9 -1 -13 14 -13 41 0 57 -19 59 -25 3 -4 -40 -8 -45 -30 -45 -28
0 -27 0 -16 68 l8 47 68 0 68 0 -15 -30z m-837 -35 c-1 -50 -3 -55 -21 -53
-17 3 -20 11 -21 48 0 54 2 60 25 60 14 0 17 -9 17 -55z m689 -82 l258 -6 -26
-23 c-38 -32 -188 -121 -218 -129 -14 -3 -38 -17 -54 -31 -15 -13 -31 -24 -34
-24 -3 -1 -106 -3 -228 -6 -162 -3 -223 -1 -223 7 0 6 34 45 75 86 41 42 75
79 75 84 0 39 -74 -17 -152 -114 -25 -31 -28 -40 -18 -52 11 -13 -9 -15 -159
-15 -94 0 -171 3 -171 7 0 19 57 83 110 123 32 25 59 53 60 63 0 36 -25 19
-143 -95 -41 -40 -48 -52 -43 -73 l6 -25 -126 0 c-70 0 -125 2 -123 4 2 3 38
27 79 55 41 28 110 75 152 106 l77 54 123 4 c271 6 457 7 703 0z m2356 -135
c8 -15 10 -60 5 -147 -3 -69 -9 -267 -12 -438 l-7 -313 -37 0 c-21 0 -71 -6
-111 -14 -76 -15 -201 -22 -639 -35 -140 -5 -262 -11 -272 -15 -11 -5 -18 -2
-22 11 -3 10 -8 124 -11 254 -3 130 -10 270 -15 310 -14 103 -32 340 -26 354
5 14 339 34 741 45 154 4 306 7 337 8 50 2 59 -1 69 -20z m-2191 -32 c0 -20
46 -47 66 -39 16 6 17 -3 11 -108 -4 -63 -7 -169 -7 -235 l0 -121 -57 -11
c-134 -25 -178 -32 -210 -32 l-34 0 6 53 c4 29 1 120 -5 202 -6 83 -12 161
-13 175 -2 22 11 31 113 81 63 31 118 55 123 52 4 -2 7 -10 7 -17z m1007 -41
c0 -27 5 -120 9 -205 4 -85 6 -269 4 -408 -2 -250 -2 -253 19 -259 31 -8 25
-22 -9 -21 -16 1 -27 5 -24 10 3 4 -4 8 -16 8 -12 0 -18 -4 -15 -10 11 -18
-10 -11 -27 9 -10 12 -13 23 -7 32 13 22 11 55 -6 69 -8 7 -15 25 -15 39 0 33
-27 58 -94 90 -41 20 -58 23 -114 18 -35 -4 -77 -14 -91 -24 -14 -9 -48 -28
-75 -41 l-48 -25 -107 37 c-58 21 -141 48 -185 60 -48 14 -82 29 -88 40 -13
23 -12 533 1 567 9 24 14 26 78 28 82 2 305 20 388 31 33 4 141 7 240 6 l180
-1 2 -50z m-1291 -58 c13 -13 25 -170 22 -302 l-3 -140 -40 -7 c-22 -4 -117
-10 -212 -14 -144 -6 -173 -5 -177 7 -3 8 -7 114 -9 236 l-3 222 111 4 c144 5
303 2 311 -6z m-451 -72 l0 -70 -177 -6 c-159 -6 -181 -9 -213 -29 -20 -12
-38 -21 -40 -19 -5 6 -7 55 -6 132 l1 67 218 -2 217 -3 0 -70z m2 -118 c3 -4
4 -9 2 -11 -2 -2 -91 -6 -198 -9 -148 -4 -191 -3 -182 6 7 7 40 15 74 18 80 7
295 4 304 -4z m-9 -56 c10 -6 13 -33 10 -112 l-4 -104 -204 0 -204 0 -6 25
c-4 14 -10 57 -14 97 -7 71 -7 72 17 78 74 19 382 31 405 16z m1509 -363 c7
18 22 15 54 -13 16 -13 36 -22 44 -19 7 3 18 -4 25 -16 14 -26 8 -36 -10 -15
-15 18 -43 19 -71 4 -20 -10 -20 -11 -2 -24 17 -14 17 -14 -4 -15 -29 0 -39 3
-36 12 2 4 -7 13 -19 19 -20 11 -64 9 -160 -7 -55 -10 -51 19 5 36 23 7 45 16
48 21 3 6 16 6 32 0 21 -8 27 -8 27 3 0 20 21 25 44 12 14 -8 20 -8 23 2z
m-197 -107 c0 -25 16 -36 24 -16 3 8 12 15 21 15 25 0 79 -56 80 -81 0 -13 5
-24 12 -24 6 0 15 -3 19 -7 8 -9 98 -11 106 -3 9 10 -16 54 -32 58 -8 2 -25
-3 -37 -11 -19 -11 -23 -11 -31 4 -16 28 9 43 70 42 30 -1 60 2 67 6 8 5 16 3
21 -4 4 -7 12 -10 18 -6 20 12 20 -10 1 -34 -16 -21 -20 -23 -29 -10 -9 13
-11 13 -19 1 -5 -8 -7 -20 -4 -27 2 -7 -3 -24 -13 -39 -22 -33 -46 -30 -144
19 -45 23 -76 33 -92 29 -12 -3 -20 -2 -15 2 8 10 -21 45 -38 45 -7 0 -12 14
-13 30 0 20 4 30 14 30 8 0 14 -9 14 -19z m164 10 c3 -4 0 -16 -7 -25 -11 -15
-14 -15 -35 -1 -12 9 -22 20 -22 26 0 11 57 12 64 0z m126 -1 c0 -5 -7 -10
-16 -10 -8 0 -12 5 -9 10 3 6 10 10 16 10 5 0 9 -4 9 -10z m-225 -120 c3 -6
-1 -7 -9 -4 -18 7 -21 14 -7 14 6 0 13 -4 16 -10z"/>
<path d="M4842 4955 c-74 -84 -124 -154 -117 -165 12 -19 32 -10 45 19 6 16
40 60 76 97 35 38 62 73 61 78 -7 23 -27 14 -65 -29z"/>
<path d="M4723 4958 c-11 -13 -34 -44 -49 -69 -16 -25 -55 -82 -87 -125 -118
-160 -176 -247 -171 -255 12 -21 32 -4 79 69 28 42 79 115 114 162 35 47 81
110 102 142 21 31 44 58 51 60 13 5 4 38 -10 38 -5 0 -18 -10 -29 -22z"/>
<path d="M4519 4869 c-35 -44 -93 -122 -127 -172 -35 -50 -81 -113 -103 -141
-26 -35 -35 -54 -28 -61 13 -12 67 45 125 132 74 110 178 248 208 276 24 23
27 30 15 38 -8 5 -17 9 -20 9 -4 0 -35 -36 -70 -81z"/>
<path d="M4316 4741 c-154 -187 -186 -235 -169 -252 8 -8 20 3 44 38 36 54
210 269 259 322 28 30 34 61 13 61 -4 0 -70 -76 -147 -169z"/>
<path d="M4224 4802 c-39 -42 -100 -111 -135 -152 -35 -41 -76 -88 -91 -105
-16 -16 -28 -36 -28 -42 0 -27 28 -11 59 33 18 25 56 71 85 102 97 107 190
207 199 213 10 7 1 29 -11 29 -4 0 -39 -35 -78 -78z"/>
<path d="M3937 4652 c-92 -92 -167 -172 -167 -178 0 -31 30 -17 71 32 24 30
99 106 167 170 112 106 142 145 110 143 -7 0 -88 -76 -181 -167z"/>
<path d="M5107 4843 c4 -53 0 -106 -11 -164 -18 -89 -18 -154 -1 -154 6 0 13
27 16 60 3 33 11 93 18 134 14 81 7 173 -14 191 -11 9 -12 -2 -8 -67z"/>
<path d="M5202 4739 c2 -112 7 -164 15 -166 8 -3 11 39 10 158 -2 122 -5 163
-15 167 -10 3 -12 -30 -10 -159z"/>
<path d="M5315 4748 c4 -201 4 -198 19 -198 11 0 13 27 10 148 -4 147 -9 182
-23 182 -4 0 -7 -60 -6 -132z"/>
<path d="M4969 4834 c-12 -23 -11 -27 5 -40 17 -12 18 -23 12 -139 -5 -83 -4
-125 3 -125 5 0 12 4 15 8 8 13 17 282 11 303 -9 27 -29 24 -46 -7z"/>
<path d="M5426 4813 c5 -16 8 -57 6 -93 -4 -81 6 -170 19 -170 13 0 12 247 -1
271 -17 30 -34 24 -24 -8z"/>
<path d="M4875 4638 c0 -81 4 -123 11 -125 8 -3 13 30 16 104 5 117 2 143 -16
143 -8 0 -11 -36 -11 -122z"/>
<path d="M5527 4724 c-3 -4 -2 -14 3 -23 4 -9 10 -43 13 -76 6 -80 27 -87 26
-8 -1 86 -19 130 -42 107z"/>
<path d="M5659 4623 c-2 -32 2 -58 12 -67 5 -6 9 6 9 31 0 41 -19 72 -21 36z"/>
<path d="M3066 4500 c-81 -70 -103 -97 -88 -112 8 -8 21 -1 44 23 18 19 57 54
87 79 43 37 51 48 40 57 -11 9 -28 -1 -83 -47z"/>
<path d="M2564 4528 c-55 -41 -164 -145 -164 -157 0 -25 32 -8 98 53 39 36 82
72 96 81 27 18 35 45 13 45 -7 0 -27 -10 -43 -22z"/>
<path d="M2823 4480 c-40 -37 -73 -75 -73 -83 0 -23 31 -30 37 -10 2 10 33 43
68 73 59 51 82 91 53 90 -7 -1 -46 -32 -85 -70z"/>
<path d="M2700 4465 c-59 -59 -72 -77 -62 -87 10 -10 28 3 87 62 72 71 90 100
62 100 -7 0 -46 -34 -87 -75z"/>
<path d="M3157 4467 c-76 -70 -88 -87 -66 -87 25 0 169 125 169 147 0 26 -27
11 -103 -60z"/>
<path d="M3282 4479 c-40 -38 -62 -66 -58 -75 6 -15 26 -20 26 -6 0 5 29 32
65 62 36 29 64 58 62 64 -8 25 -35 12 -95 -45z"/>
<path d="M3430 4475 c-58 -47 -71 -65 -48 -65 21 0 140 89 133 100 -11 18 -30
10 -85 -35z"/>
<path d="M3487 4327 c-3 -7 -4 -105 -4 -217 2 -147 5 -204 14 -207 16 -6 23
406 7 425 -9 11 -12 11 -17 -1z"/>
<path d="M3575 4320 c-4 -6 -4 -35 -1 -64 4 -31 0 -105 -9 -180 -12 -86 -14
-131 -7 -138 28 -28 31 -1 45 331 2 52 -12 77 -28 51z"/>
<path d="M3405 4258 c-3 -8 -4 -79 -3 -158 3 -119 6 -145 18 -148 13 -2 15 20
13 155 -1 101 -5 159 -12 161 -6 2 -13 -3 -16 -10z"/>
<path d="M3778 4313 l-48 -4 -2 -107 c-1 -59 -3 -125 -4 -147 -2 -65 9 -77 64
-69 81 11 87 19 88 115 0 47 8 110 18 142 9 32 14 62 11 67 -6 10 -31 10 -127
3z m77 -85 c-4 -29 -9 -84 -11 -122 -2 -38 -5 -70 -6 -71 -2 -2 -20 -6 -40
-10 l-38 -7 0 124 c0 69 3 128 7 131 3 4 26 7 51 7 l45 0 -8 -52z"/>
<path d="M4005 4311 l-60 -6 -2 -100 c-1 -55 -2 -126 -4 -158 -3 -69 0 -72 93
-87 100 -17 101 -17 105 65 8 157 20 229 42 246 16 14 18 19 8 28 -18 14 -108
20 -182 12z m127 -26 c3 -3 -1 -32 -9 -65 -7 -33 -17 -99 -21 -148 -8 -97 -2
-92 -88 -77 -38 6 -39 14 -39 175 l0 105 45 6 c64 8 106 10 112 4z"/>
<path d="M4244 4305 c3 -9 1 -71 -4 -138 -5 -67 -6 -149 -2 -182 l7 -60 85
-11 c47 -6 98 -14 113 -19 l29 -8 -7 134 c-4 79 -2 163 4 204 6 40 6 74 1 79
-4 4 -59 10 -121 13 -100 4 -111 3 -105 -12z m131 -26 l62 -11 -3 -146 c-2
-81 -4 -154 -4 -163 0 -13 -11 -15 -62 -11 -81 6 -94 13 -101 60 -7 38 9 257
19 273 7 11 14 11 89 -2z"/>
<path d="M5963 4975 c0 -27 2 -38 4 -22 2 15 2 37 0 50 -2 12 -4 0 -4 -28z"/>
<path d="M2059 4872 c-8 -9 -20 -27 -27 -39 -16 -30 3 -31 34 -2 18 17 26 19
43 10 30 -17 37 -58 18 -110 -19 -55 -13 -69 8 -18 27 66 16 115 -36 156 -25
19 -27 19 -40 3z"/>
<path d="M1824 4861 c3 -4 22 -11 42 -14 20 -3 46 -14 57 -24 15 -14 19 -15
15 -3 -2 8 -18 21 -34 29 -34 17 -88 25 -80 12z"/>
<path d="M1955 4749 c-11 -17 2 -21 24 -7 18 11 23 10 38 -5 15 -14 16 -22 6
-47 -6 -17 -8 -30 -3 -30 23 0 26 63 4 84 -18 18 -60 21 -69 5z"/>
<path d="M1740 4729 c-36 -21 -95 -90 -105 -124 -6 -20 -6 -20 7 0 7 11 36 44
64 73 50 51 93 68 109 42 3 -5 12 -10 18 -10 7 1 1 10 -12 20 -29 25 -37 25
-81 -1z"/>
<path d="M2151 4626 c23 -50 -16 -102 -106 -139 -36 -15 -37 -17 -11 -15 44 4
42 -15 -7 -66 -30 -32 -52 -46 -70 -46 -27 0 -44 -15 -28 -24 26 -16 151 76
151 111 0 8 18 33 40 56 23 23 43 52 46 63 8 32 1 77 -14 82 -10 3 -10 -2 -1
-22z"/>
<path d="M1620 4564 c0 -10 5 -26 10 -34 8 -11 9 -7 4 15 -8 37 -14 45 -14 19z"/>
<path d="M1740 4541 c-11 -23 -18 -41 -16 -41 8 0 48 71 43 76 -3 3 -15 -12
-27 -35z"/>
<path d="M1547 4533 c-10 -9 -8 -51 2 -57 5 -4 7 2 4 13 -3 12 3 24 18 35 22
15 23 16 3 16 -11 0 -24 -3 -27 -7z"/>
<path d="M1866 4464 c-26 -30 -46 -57 -44 -60 6 -5 64 51 85 84 30 43 7 30
-41 -24z"/>
<path d="M1752 4127 c-8 -18 -9 -35 -3 -45 8 -14 10 -13 16 10 4 14 5 35 2 45
-3 15 -6 13 -15 -10z"/>
<path d="M1471 2114 c-12 -15 -21 -30 -21 -33 0 -9 20 -32 48 -55 22 -19 23
-19 46 3 22 21 23 23 8 66 -11 36 -19 45 -37 45 -13 0 -33 -11 -44 -26z"/>
<path d="M1323 2021 c-63 -35 -162 -110 -177 -133 -8 -13 -8 -23 0 -36 8 -12
8 -22 0 -36 -8 -14 -8 -20 2 -23 6 -3 12 -15 12 -28 0 -29 16 -40 54 -36 23 2
28 0 23 -13 -5 -11 -1 -16 13 -16 11 0 20 4 20 9 0 5 9 11 20 14 11 3 20 10
20 17 0 6 -4 9 -8 6 -5 -3 -31 15 -58 40 l-49 45 25 19 c14 11 21 20 17 20
-13 0 22 33 51 48 14 7 32 10 39 8 8 -4 13 2 13 15 0 17 5 20 25 17 26 -5 43
6 26 16 -5 4 -7 22 -4 41 3 19 2 35 -3 35 -5 0 -32 -13 -61 -29z m-103 -265
c0 -3 -4 -8 -10 -11 -5 -3 -10 -1 -10 4 0 6 5 11 10 11 6 0 10 -2 10 -4z"/>
<path d="M6326 1901 c-3 -5 -14 -7 -25 -4 -42 11 -34 -48 15 -106 45 -54 186
-154 195 -139 5 7 2 22 -6 35 -8 12 -12 28 -9 36 5 14 -96 127 -115 127 -5 0
-12 9 -16 19 -8 25 -31 45 -39 32z"/>
<path d="M1540 1792 c0 -24 -8 -32 -26 -25 -8 3 -11 10 -7 17 4 6 -1 5 -11 -3
-15 -12 -17 -12 -14 0 4 18 -30 13 -53 -7 -8 -8 -24 -14 -34 -14 -10 0 -16 -3
-12 -6 3 -3 -6 -16 -20 -28 -20 -18 -24 -26 -16 -42 10 -20 10 -43 -2 -85 -6
-23 -1 -31 29 -54 20 -15 36 -33 36 -40 0 -19 28 -70 37 -68 5 1 7 -4 6 -10
-4 -16 50 -39 71 -31 9 3 23 1 31 -6 9 -7 18 -10 21 -7 11 11 -11 35 -61 69
-63 42 -103 99 -97 139 2 16 9 32 14 35 5 3 5 11 -2 19 -7 9 -6 16 4 24 9 8
16 8 20 2 6 -9 36 2 107 39 12 6 26 -2 55 -31 21 -22 45 -38 54 -37 17 4 63
-58 55 -73 -13 -20 7 -30 26 -13 10 9 16 21 13 26 -3 5 -1 15 5 22 9 11 8 14
-6 12 -14 -1 -17 5 -15 27 2 19 -1 27 -10 25 -7 -2 -12 3 -10 10 1 8 -2 11 -8
7 -7 -4 -14 2 -17 14 -6 23 -19 28 -25 9 -3 -9 -6 -9 -12 0 -4 7 -2 12 3 12
21 0 10 20 -18 35 -19 9 -32 11 -36 5 -10 -16 -55 -12 -55 5 0 8 5 15 11 15 8
0 8 5 -1 15 -17 20 -30 19 -30 -3z m-50 -86 c0 -8 -4 -18 -10 -21 -5 -3 -10 3
-10 14 0 12 5 21 10 21 6 0 10 -6 10 -14z m155 4 c-3 -5 -1 -10 6 -10 7 0 10
-3 6 -6 -9 -9 -28 6 -22 17 4 5 8 9 11 9 3 0 2 -4 -1 -10z m75 -50 c0 -5 -4
-10 -10 -10 -5 0 -10 5 -10 10 0 6 5 10 10 10 6 0 10 -4 10 -10z"/>
<path d="M6121 1722 c-18 -34 31 -104 144 -204 49 -43 70 -56 76 -47 4 7 3 22
-3 32 -6 11 -11 33 -12 48 -1 18 -16 44 -39 67 -20 21 -37 40 -37 44 0 3 -15
22 -33 42 -24 25 -36 33 -44 25 -8 -8 -13 -8 -17 0 -10 16 -24 13 -35 -7z"/>
<path d="M1890 1664 c-22 -36 -56 -82 -74 -102 -18 -20 -54 -64 -80 -97 -27
-33 -65 -78 -85 -100 -69 -76 -78 -89 -59 -82 11 4 22 -2 32 -19 20 -29 46
-31 77 -5 l24 20 -25 -6 c-20 -5 -23 -3 -13 7 7 8 31 15 54 16 22 1 46 7 52
13 13 13 31 15 23 2 -10 -16 18 -19 36 -4 41 36 47 -25 7 -75 -14 -18 -16 -28
-9 -38 8 -8 8 -14 0 -19 -6 -4 -8 -15 -5 -24 3 -10 -1 -24 -9 -30 -13 -11 -13
-17 1 -47 18 -37 20 -38 57 -24 33 12 44 54 21 80 -18 20 -13 56 6 45 6 -4 9
-1 7 6 -1 8 10 31 26 51 15 21 29 49 30 62 0 13 4 22 9 19 11 -7 20 24 13 50
-5 23 -9 23 -88 21 -46 -2 -102 -6 -125 -9 -51 -7 -57 8 -13 33 16 9 30 25 30
35 0 11 9 21 20 24 11 3 20 12 20 19 0 8 9 14 20 14 14 0 20 7 20 24 0 24 41
76 61 76 8 0 8 4 -1 15 -10 12 -8 16 14 25 14 5 26 16 26 25 0 8 1 18 3 22 1
3 -12 14 -30 24 l-32 18 -41 -65z"/>
<path d="M6653 1564 c-23 -10 -14 -52 18 -89 33 -37 50 -39 44 -4 -2 11 1 29
8 40 22 36 -26 71 -70 53z"/>
<path d="M6478 1369 c-25 -14 -22 -38 7 -82 30 -44 48 -48 43 -9 -2 15 3 32
12 38 11 10 12 17 2 38 -12 27 -35 33 -64 15z"/>
<path d="M5743 1288 c-40 -13 -44 -44 -10 -76 31 -29 40 -28 77 8 25 24 29 34
21 49 -17 31 -36 35 -88 19z"/>
<path d="M5790 1124 c0 -18 59 -124 100 -183 50 -70 54 -73 85 -68 18 3 38 0
44 -6 8 -8 15 -6 25 9 8 10 18 16 21 12 16 -15 45 13 45 42 0 20 5 30 15 30 8
0 15 9 15 21 0 11 -4 17 -10 14 -5 -3 -10 0 -10 8 0 8 -8 21 -17 28 -9 8 -14
9 -11 4 4 -6 -13 -33 -38 -60 l-44 -50 -20 24 c-11 13 -20 20 -20 16 0 -4 -7
-2 -15 5 -22 18 -48 77 -40 89 3 7 -3 11 -15 11 -18 0 -21 4 -16 28 6 27 6 27
-44 28 -27 0 -50 -1 -50 -2z m300 -194 c0 -5 -2 -10 -4 -10 -3 0 -8 5 -11 10
-3 6 -1 10 4 10 6 0 11 -4 11 -10z"/>
<path d="M4956 1084 c-3 -8 -12 -14 -21 -14 -20 0 -19 -4 11 -56 14 -24 24
-50 21 -58 -3 -7 17 -59 44 -116 27 -56 49 -115 49 -130 0 -15 7 -33 15 -40 8
-7 15 -20 15 -29 0 -9 7 -29 15 -45 8 -15 15 -36 15 -45 0 -10 7 -26 15 -37 8
-10 15 -28 15 -40 0 -21 38 -64 57 -64 6 0 13 9 16 20 3 11 16 24 29 29 12 5
38 23 57 40 30 27 34 37 36 83 2 48 4 53 24 51 18 -2 21 2 21 32 0 26 -4 35
-17 36 -13 0 -11 3 6 10 l25 10 -21 20 c-18 19 -19 24 -8 46 15 29 0 77 -21
69 -7 -3 -16 4 -19 15 -4 11 -19 25 -33 32 -15 6 -35 17 -45 26 -15 13 -20 12
-41 -8 -12 -12 -36 -23 -52 -25 -16 -3 -36 -7 -44 -10 -20 -8 -67 41 -72 74
-6 36 -54 126 -72 133 -8 3 -17 -1 -20 -9z m347 -257 c0 -11 8 -28 19 -39 24
-24 18 -61 -22 -134 -21 -38 -26 -54 -17 -63 6 -6 7 -14 3 -18 -4 -4 -10 -2
-14 4 -9 14 -35 -4 -46 -32 -6 -18 -9 -17 -28 13 -11 18 -18 41 -15 52 3 13 1
18 -6 13 -7 -4 -8 0 -4 11 4 10 -2 38 -13 63 -11 25 -20 58 -20 74 0 37 37 63
75 53 19 -5 26 -3 21 4 -8 13 11 21 44 19 18 -1 25 -7 23 -20z m77 -163 c0 -8
-9 -14 -22 -13 -13 0 -17 3 -10 6 6 2 12 11 12 19 0 9 5 12 10 9 6 -3 10 -13
10 -21z m-130 -164 c0 -5 -6 -9 -12 -7 -8 1 -12 -6 -10 -18 3 -19 2 -19 -13
-3 -10 9 -14 21 -11 27 9 14 46 15 46 1z"/>
<path d="M5645 1040 c-4 -6 -10 -8 -15 -5 -12 7 -73 -53 -65 -65 4 -7 -2 -7
-19 0 -22 8 -28 6 -42 -15 -9 -14 -25 -25 -35 -25 -22 0 -24 -10 -6 -29 10
-11 9 -12 -1 -6 -11 6 -11 3 -1 -13 11 -18 10 -23 -12 -41 l-24 -19 25 -48
c32 -61 93 -105 137 -101 17 1 30 0 27 -4 -8 -13 17 -22 29 -10 6 6 30 11 53
11 32 0 48 6 65 25 13 13 30 25 38 25 19 0 104 41 113 54 5 8 -5 39 -18 54 -3
5 -67 -30 -74 -40 -3 -4 -18 -9 -33 -12 -35 -6 -49 -15 -42 -27 4 -5 -5 -5
-20 1 -18 7 -40 6 -70 -1 -54 -14 -83 -6 -65 16 7 8 16 13 20 10 4 -2 15 4 25
15 10 11 22 17 28 13 7 -4 8 1 3 13 -12 30 -12 38 -1 39 26 1 89 91 75 108 -1
1 -3 10 -5 20 -5 26 -9 28 -47 30 -25 2 -33 6 -32 20 2 19 -2 22 -11 7z m17
-42 c15 -12 15 -16 0 -50 -9 -21 -22 -38 -29 -38 -7 0 -13 -11 -13 -25 0 -15
-6 -25 -14 -25 -20 0 -77 -62 -71 -78 3 -8 0 -12 -7 -9 -17 5 -12 91 8 128 18
36 85 108 100 109 5 0 17 -6 26 -12z m-12 -108 c0 -5 -2 -10 -4 -10 -3 0 -8 5
-11 10 -3 6 -1 10 4 10 6 0 11 -4 11 -10z"/>
<path d="M2373 1007 c-32 -18 -75 -79 -70 -99 3 -9 -2 -26 -10 -37 -9 -14 -10
-21 -3 -21 8 0 9 -10 5 -29 -3 -17 -2 -32 4 -36 6 -3 11 -15 11 -26 0 -20 -3
-21 63 12 22 12 22 12 4 -9 -39 -43 18 -60 57 -17 13 14 26 25 30 25 11 0 36
-27 36 -38 0 -6 7 -12 15 -16 8 -3 14 -9 13 -13 -5 -14 26 -49 42 -48 8 0 26
4 39 9 28 10 43 -8 35 -40 -6 -25 11 -41 23 -22 8 13 26 18 70 20 13 0 20 5
16 11 -4 6 0 8 10 4 18 -7 33 25 22 44 -4 5 -1 18 7 27 17 20 22 108 8 117 -6
3 -10 15 -10 26 0 10 -4 19 -10 19 -5 0 -10 11 -10 24 0 30 -27 26 -53 -9 -17
-23 -16 -26 4 -65 24 -45 22 -116 -3 -131 -19 -12 -60 0 -89 27 -14 14 -28 22
-32 19 -4 -3 -5 -2 -2 2 3 3 -7 22 -22 41 -21 28 -27 46 -26 84 0 27 -3 51 -8
54 -5 3 -31 -10 -57 -29 -54 -40 -84 -51 -112 -42 -29 9 -25 37 10 70 23 22
30 38 30 67 0 41 -4 44 -37 25z m362 -147 c-3 -5 -11 -10 -16 -10 -6 0 -7 5
-4 10 3 6 11 10 16 10 6 0 7 -4 4 -10z m-210 -50 c-3 -5 -10 -10 -16 -10 -5 0
-9 5 -9 10 0 6 7 10 16 10 8 0 12 -4 9 -10z m-165 -4 c0 -2 -7 -7 -16 -10 -8
-3 -12 -2 -9 4 6 10 25 14 25 6z m240 -96 c0 -5 -5 -10 -11 -10 -5 0 -7 5 -4
10 3 6 8 10 11 10 2 0 4 -4 4 -10z"/>
<path d="M4349 913 c-10 -11 -15 -50 -16 -127 -1 -61 -2 -117 -2 -123 -1 -7
-9 -13 -18 -13 -10 0 -30 -6 -45 -14 -15 -8 -36 -12 -48 -9 -13 3 -20 1 -20
-8 0 -8 -11 -14 -28 -15 -46 -2 -101 -33 -109 -63 -3 -14 -12 -35 -19 -46 -19
-27 -19 -105 0 -105 13 0 28 -35 30 -70 1 -15 23 -21 41 -10 14 7 37 6 53 -3
6 -5 12 -4 12 1 0 5 11 7 24 5 18 -4 25 1 30 19 6 20 8 21 18 7 10 -14 14 -14
49 3 22 10 39 24 39 31 0 7 18 23 41 35 l41 22 32 -35 c18 -19 38 -35 44 -35
6 0 16 -8 21 -19 13 -23 55 -32 77 -16 23 17 14 49 -16 53 -14 2 -33 11 -44
20 -29 27 -64 93 -71 137 -4 22 -9 47 -12 55 -3 8 -7 21 -9 29 -1 7 -12 23
-24 36 -18 20 -19 23 -5 35 21 18 14 86 -9 82 -9 -2 -16 2 -16 8 0 6 4 9 9 5
28 -17 36 71 11 113 -22 36 -41 40 -61 15z m-34 -343 c4 -6 11 -8 16 -5 5 3 6
-1 3 -9 -4 -10 -1 -16 7 -16 23 -1 45 -23 52 -52 5 -20 4 -26 -5 -23 -7 3 -37
-13 -66 -35 -86 -64 -149 -73 -199 -27 -27 24 -29 54 -6 101 15 33 22 37 97
55 99 24 93 23 101 11z m235 -225 c10 -12 10 -15 -4 -15 -9 0 -16 7 -16 15 0
8 2 15 4 15 2 0 9 -7 16 -15z"/>
<path d="M2990 810 c0 -6 -25 -22 -56 -36 -39 -18 -54 -30 -50 -40 4 -9 -3
-18 -17 -24 -12 -5 -18 -9 -14 -9 5 -1 1 -11 -7 -23 -10 -13 -16 -44 -16 -75
0 -45 2 -51 17 -46 14 5 15 1 10 -25 -5 -27 -2 -35 18 -48 29 -19 150 -24 150
-7 0 15 52 56 58 46 2 -5 10 -26 17 -48 12 -39 72 -105 96 -105 21 0 23 28 3
46 -10 9 -19 25 -19 35 0 10 -4 21 -10 24 -5 3 -10 35 -10 70 0 35 -4 67 -10
70 -5 3 -10 13 -10 21 0 9 5 12 11 8 9 -5 10 1 5 22 -4 16 -7 38 -7 49 0 11
-12 37 -26 58 -23 33 -31 38 -55 33 -15 -3 -39 -1 -53 4 -16 6 -25 6 -25 0z
m91 -79 l24 -19 -30 -61 c-16 -34 -33 -61 -37 -61 -5 0 -6 -5 -3 -10 4 -6 3
-10 -2 -9 -4 1 -15 0 -23 -4 -60 -23 -123 -9 -118 27 1 12 -1 26 -5 32 -4 7 2
14 17 18 14 3 30 20 40 41 9 19 18 35 19 35 1 0 20 7 42 15 51 18 49 18 76 -4z"/>
<path d="M4723 710 c-10 -11 -30 -20 -46 -20 -21 0 -28 -4 -24 -14 3 -8 -10
-35 -30 -61 -33 -44 -34 -47 -16 -60 17 -13 17 -14 1 -20 -14 -6 -16 -15 -11
-48 7 -54 45 -121 60 -106 8 8 15 3 25 -18 11 -23 20 -28 47 -26 19 1 47 11
63 23 17 12 37 23 46 25 11 1 16 10 14 24 -2 12 2 28 8 36 7 8 8 20 4 27 -4 7
8 1 27 -15 18 -15 43 -33 54 -41 25 -17 88 -27 105 -16 18 11 5 40 -20 40 -21
0 -102 78 -95 91 3 4 -2 9 -10 13 -8 3 -15 15 -15 26 0 12 -7 20 -16 20 -9 0
-14 6 -11 13 8 20 -62 94 -105 112 -36 14 -39 14 -55 -5z m71 -66 c20 -20 21
-112 3 -157 -17 -39 -79 -77 -103 -62 -9 6 -15 14 -14 19 1 5 -6 13 -15 19
-15 8 -15 10 0 27 9 10 15 31 14 51 -3 40 11 70 47 98 32 25 47 26 68 5z"/>
<path d="M3346 676 c-6 -25 -2 -35 19 -52 26 -20 26 -22 20 -110 -4 -49 -11
-104 -16 -123 -12 -51 -2 -83 24 -75 47 15 61 57 72 232 1 22 35 54 52 51 4
-1 16 1 25 5 20 9 54 4 51 -7 -2 -4 7 -17 19 -29 21 -21 21 -21 35 -2 8 10 19
18 24 17 23 -7 1 43 -40 90 -28 31 -36 32 -73 13 -53 -28 -85 -29 -109 -5 -15
15 -36 23 -60 24 -34 1 -38 -1 -43 -29z"/>
</g>
</svg>
