<?xml version="1.0" encoding="UTF-8" standalone="no"?>
<!-- Created with Inkscape (http://www.inkscape.org/) -->

<svg
   width="210mm"
   height="297mm"
   viewBox="0 0 210 297"
   version="1.1"
   id="svg1"
   xml:space="preserve"
   sodipodi:docname="Huette_v.svg"
   inkscape:version="1.3.2 (091e20e, 2023-11-25)"
   xmlns:inkscape="http://www.inkscape.org/namespaces/inkscape"
   xmlns:sodipodi="http://sodipodi.sourceforge.net/DTD/sodipodi-0.dtd"
   xmlns="http://www.w3.org/2000/svg"
   xmlns:svg="http://www.w3.org/2000/svg"><sodipodi:namedview
     id="namedview1"
     pagecolor="#ffffff"
     bordercolor="#000000"
     borderopacity="0.25"
     inkscape:showpageshadow="2"
     inkscape:pageopacity="0.0"
     inkscape:pagecheckerboard="0"
     inkscape:deskcolor="#d1d1d1"
     inkscape:document-units="mm"
     inkscape:zoom="0.5946522"
     inkscape:cx="343.05767"
     inkscape:cy="486.8392"
     inkscape:window-width="1680"
     inkscape:window-height="952"
     inkscape:window-x="0"
     inkscape:window-y="25"
     inkscape:window-maximized="1"
     inkscape:current-layer="layer4" /><defs
     id="defs1"><linearGradient
       id="swatch66"
       inkscape:swatch="solid"><stop
         style="stop-color:#000000;stop-opacity:1;"
         offset="0"
         id="stop66" /></linearGradient></defs><g
     inkscape:label="Ebene 1"
     inkscape:groupmode="layer"
     id="layer1"
     style="display:inline"
     sodipodi:insensitive="true"><path
       d="m 120.88373,43.575225 c -0.49389,0.211667 -1.79916,0.423333 -2.89277,0.493889 -1.27001,0.07055 -2.50473,0.388055 -3.28084,0.846667 -0.67028,0.388055 -1.48167,0.635 -1.76389,0.529166 -1.05833,-0.423333 -1.65805,0.564445 -1.51694,2.469445 l 0.10583,1.799167 -1.05833,-0.07056 c -3.59834,-0.282222 -7.9375,-0.776111 -9.10167,-0.987778 -0.98778,-0.176389 -1.552222,-0.105833 -2.222499,0.352778 -0.811389,0.529167 -0.952501,0.529167 -1.516945,0.03528 -0.705556,-0.635 -4.021667,-0.776111 -5.468056,-0.211667 -0.493889,0.176389 -1.375833,0.811389 -1.940278,1.446389 -1.446389,1.481667 -1.481667,3.210278 -0.141111,4.303889 1.905,1.552223 3.316111,3.175001 3.81,4.339167 0.352778,0.846667 0.917223,1.411111 1.763889,1.763889 0.705556,0.282223 1.199445,0.635 1.093611,0.811389 -0.246944,0.388056 -5.044722,1.199445 -5.468055,0.917222 -0.564445,-0.3175 -3.210278,0.458612 -4.974167,1.516945 -0.881945,0.493889 -1.940278,0.881945 -2.398889,0.811389 -0.458612,-0.03528 -1.340556,0.3175 -2.010834,0.811389 -0.635,0.493889 -1.5875,0.917222 -2.046111,0.917222 -0.458611,0 -1.446389,0.423334 -2.187223,0.917222 l -1.340555,0.881945 -0.811389,-0.776111 c -1.023056,-0.9525 -1.552222,-2.716389 -1.693334,-5.820834 -0.105833,-1.975556 -0.3175,-2.575278 -1.411111,-4.162778 -0.705555,-1.023056 -1.27,-2.293056 -1.27,-2.822222 0,-1.516945 -2.046111,-3.386667 -3.704167,-3.386667 -0.740833,0 -1.869722,-0.352778 -2.54,-0.740834 -1.693333,-1.058333 -5.503334,-0.811389 -8.078611,0.493889 -1.023056,0.493889 -2.751667,1.093612 -3.880556,1.27 -2.54,0.423334 -3.316112,0.705556 -5.856112,2.187223 -2.645833,1.552222 -4.868333,4.445 -4.868333,6.279445 0,0.881944 -0.246945,1.552222 -0.705556,1.975555 -0.705556,0.635 -0.740833,0.635 -1.763889,-0.493889 -1.234722,-1.305277 -1.411111,-1.305277 -4.938889,0.564445 -4.374445,2.328333 -7.302501,6.138334 -8.184445,10.689167 -0.423334,2.151945 -0.529167,2.293056 -2.081389,3.139723 -1.834445,1.023055 -8.325556,7.196667 -8.643056,8.255 -0.105834,0.388056 0.03528,1.27 0.3175,1.975556 0.282222,0.705555 0.635,1.5875 0.740833,1.940278 0.388056,1.164166 0.564445,0.388055 0.211667,-0.846667 -0.564445,-2.010833 0.211666,-3.739445 2.8575,-6.420556 1.305278,-1.305278 2.892778,-2.610556 3.4925,-2.928056 1.411111,-0.740833 5.785556,-1.128889 6.138334,-0.564444 0.141111,0.211666 0.529167,0.388055 0.846667,0.352778 0.3175,0 -0.246945,-0.423334 -1.27,-0.881945 -1.763889,-0.811389 -2.151945,-1.516944 -0.846667,-1.5875 0.352778,-0.03528 0.246944,-0.141111 -0.282222,-0.282222 -1.164167,-0.3175 -1.234723,-1.411111 -0.246945,-4.268612 0.564445,-1.693333 0.917222,-2.293055 1.411111,-2.257778 0.352778,0.03528 0.599723,-0.176388 0.599723,-0.529166 0,-0.352778 1.093611,-1.658056 2.469444,-2.928056 2.504723,-2.363611 3.351389,-2.751667 6.173612,-2.751667 1.869722,0 2.610555,0.776111 2.469444,2.469445 -0.105833,0.9525 0.176389,1.693333 1.093611,3.069167 1.199445,1.869722 1.940278,2.54 1.164167,1.093611 -0.282222,-0.529167 -0.282222,-0.811389 -0.03528,-0.917222 0.211667,-0.07056 -0.105833,-0.987778 -0.705555,-2.151945 -0.635,-1.27 -0.987778,-2.328334 -0.846667,-2.751667 0.458611,-1.481667 6.491112,-7.62 7.231945,-7.408334 0.105833,0.03528 0.670278,-0.246944 1.199445,-0.635 0.564444,-0.352778 1.305277,-0.670278 1.658055,-0.705555 0.352778,-0.03528 0.881945,-0.246945 1.199445,-0.493889 0.282222,-0.246945 1.516944,-0.529167 2.716389,-0.635 1.552222,-0.141111 2.010833,-0.3175 1.5875,-0.529167 -0.3175,-0.176389 -0.740834,-0.211667 -0.917222,-0.105833 -0.211667,0.105833 -0.352778,0.07055 -0.352778,-0.105834 0,-0.670277 0.493889,-0.740833 1.658055,-0.246944 l 1.234723,0.529167 -0.564445,-0.881945 c -0.740833,-1.128889 -0.388055,-1.305278 2.822223,-1.516944 2.328333,-0.141112 2.575278,-0.105834 2.928055,0.599722 0.3175,0.564444 0.670278,0.705555 1.622778,0.564444 0.987778,-0.105833 1.340556,0.03528 2.116667,0.917223 0.493889,0.599722 0.881945,0.987777 0.881945,0.846666 0,-0.105833 0.282222,-0.03528 0.670277,0.141111 0.846667,0.458612 1.199445,1.763889 0.529167,2.046112 -0.705555,0.246944 -0.599722,0.811389 0.141111,0.811389 0.388056,0 0.917223,0.282222 1.234723,0.599722 0.599722,0.705555 2.010833,5.856111 2.010833,7.443611 0,0.564445 0.352778,1.481667 0.740833,2.010834 1.128889,1.411111 1.164167,4.162778 0.03528,5.961945 -1.023055,1.658055 -1.834444,4.198056 -1.834444,5.856111 0,1.481667 0.599722,3.774723 1.058333,4.056945 0.388056,0.246944 0.282222,-0.635 -0.176389,-1.693334 -0.141111,-0.352777 -0.176389,-1.763889 -0.07055,-3.104444 0.246944,-2.892778 0.9525,-4.198056 3.210278,-5.961945 1.27,-0.9525 1.5875,-1.411111 1.446388,-2.010833 -0.141111,-0.564445 0.105834,-0.917223 1.023056,-1.481667 1.552222,-0.987778 1.622778,-0.9525 1.622778,0.493889 0,0.9525 0.105833,1.164166 0.564444,0.987778 0.282223,-0.105834 0.458612,-0.388056 0.352778,-0.635001 -0.246944,-0.670277 2.328334,-2.998611 3.316112,-2.998611 1.023055,0 1.869722,-0.458611 1.693333,-0.917222 -0.141111,-0.388056 1.27,-1.023056 2.822222,-1.340556 0.987778,-0.176389 1.234723,-0.105833 1.375834,0.493889 0.246944,0.881945 0.388055,0.881945 1.375833,-0.03528 0.564445,-0.529166 1.023056,-0.670277 1.446389,-0.493889 0.987778,0.388056 2.963334,0.423334 2.575278,0 -0.599722,-0.564444 -0.388055,-0.811388 0.917222,-1.023055 0.776112,-0.176389 1.446389,-0.105833 1.728612,0.141111 0.282222,0.246944 0.670278,0.3175 0.881944,0.176389 0.529167,-0.3175 2.610548,1.058333 4.127498,2.751667 0.9525,1.128889 1.12889,1.234722 0.635,0.423333 -0.98778,-1.658056 -1.94028,-2.575278 -3.45722,-3.316111 -1.975556,-0.987778 -6.561667,-5.256389 -7.126111,-6.632223 -0.282223,-0.635 -0.670278,-1.164167 -0.846667,-1.164167 -0.211667,0 -0.917222,-0.493889 -1.5875,-1.058333 l -1.234723,-1.093611 0.740834,-1.234722 c 0.917222,-1.552223 3.845278,-3.139723 4.833056,-2.610556 0.388055,0.176389 0.740833,0.458611 0.811389,0.599722 0.105833,0.176389 0.105833,0.105833 0.07055,-0.141111 -0.176389,-0.705556 0.635,-0.9525 1.093611,-0.352778 0.3175,0.458611 0.987778,0.599722 2.575278,0.599722 1.587503,0 2.222503,0.141112 2.469443,0.564445 0.28222,0.493889 0.35278,0.493889 0.74084,0 0.56444,-0.670278 4.445,-0.811389 4.79777,-0.176389 0.14111,0.211667 0.49389,0.282222 0.77611,0.176389 0.3175,-0.141111 0.98778,0.246944 1.69334,1.058333 1.12889,1.199445 1.19944,1.234723 2.01083,0.705556 0.49389,-0.3175 0.98778,-0.458611 1.16417,-0.3175 0.14111,0.176389 -0.17639,-0.564445 -0.67028,-1.622778 -0.98778,-1.940278 -0.98778,-2.998611 -0.0353,-2.645834 0.35278,0.141112 0.45861,0.07056 0.35278,-0.282222 -0.28222,-0.740833 1.19944,-1.905 2.96333,-2.328333 1.37584,-0.3175 1.55223,-0.3175 1.69334,0.3175 0.24694,0.846666 0.52916,0.846666 1.34055,-0.03528 0.52917,-0.564444 0.91723,-0.670278 1.72861,-0.493889 0.59973,0.141111 1.34056,0.282222 1.65806,0.3175 0.28222,0 1.02306,0.352778 1.5875,0.776111 1.12889,0.776111 5.08,2.187223 8.39611,2.998612 1.37583,0.3175 2.2225,0.705555 2.46945,1.164166 0.21166,0.388056 0.42333,0.776111 0.45861,0.846667 0.0705,0.07056 0.3175,-0.07056 0.59972,-0.282222 0.38806,-0.3175 0.67028,-0.3175 1.19944,0 0.56445,0.352778 0.81139,0.282222 1.48167,-0.388056 0.67028,-0.670278 1.02306,-0.740833 2.32833,-0.564444 0.84667,0.105833 1.62278,0.03528 1.72862,-0.141111 0.3175,-0.529167 2.15194,-0.423334 2.61055,0.141111 0.28222,0.352778 0.74083,0.423333 1.65806,0.211666 1.97555,-0.458611 5.29166,0.811389 3.38666,1.305278 -0.45861,0.105834 -0.67027,0.423334 -0.635,0.987778 0.0353,0.635 0.17639,0.740833 0.59973,0.493889 1.30527,-0.670278 1.37583,1.058333 0.14111,2.716389 -0.74084,0.9525 -0.84667,1.375834 -0.67028,2.681111 0.21167,1.516945 0.17639,1.5875 -1.23472,2.504723 -0.81139,0.529166 -1.44639,1.128889 -1.44639,1.340555 0,0.388056 0.0353,0.388056 2.89278,-1.5875 1.12888,-0.740833 2.25777,-1.728611 2.57527,-2.2225 0.3175,-0.458611 0.84667,-0.811389 1.16417,-0.740833 0.3175,0.07055 0.77611,-0.176389 0.9525,-0.564445 0.21167,-0.352778 0.45861,-0.599722 0.56445,-0.529166 0.10583,0.07056 0.70555,-0.3175 1.34055,-0.846667 0.91722,-0.776111 1.48167,-0.9525 2.46945,-0.881945 0.77611,0.07056 1.41111,-0.07055 1.65805,-0.388055 0.38806,-0.493889 0.70556,-0.564445 4.7625,-0.9525 1.83445,-0.176389 2.61056,-0.07056 3.52778,0.388055 l 1.19944,0.635 -0.84666,-0.9525 c -0.49389,-0.493889 -0.81139,-0.917222 -0.70556,-0.9525 1.12889,-0.246944 3.52778,-0.211666 3.66889,0.03528 0.10583,0.176389 0.635,0.246944 1.16417,0.141111 0.70555,-0.141111 1.23472,0.03528 2.01083,0.705556 0.77611,0.670278 1.12889,0.776111 1.48167,0.493889 0.35278,-0.282223 0.59972,-0.282223 0.84666,-0.03528 0.28223,0.282222 0.24695,0.458611 0,0.599722 -0.67027,0.423333 -0.42333,0.917222 0.42334,0.917222 1.09361,0 1.72861,0.493889 1.48166,1.164167 -0.17638,0.423334 0.0353,0.564445 1.12889,0.670278 1.16417,0.105833 1.34056,0.211667 1.34056,0.987778 0,0.493889 0.10583,1.058333 0.24694,1.234722 0.21167,0.352778 0.3175,2.681111 0.21167,5.326945 -0.0353,0.599722 0.24694,1.622778 0.56444,2.293056 1.44639,2.822222 1.62278,3.774722 1.27,6.985 -0.49388,4.480278 -0.10583,6.6675 1.51695,8.290278 0.70555,0.705556 1.72861,2.116667 2.2225,3.139723 0.52917,1.023055 1.16417,2.116667 1.44639,2.434167 0.3175,0.352777 0.56444,1.446389 0.635,2.645833 0.0705,1.516945 0.38805,2.681111 1.30528,4.515556 1.48166,2.963333 2.18722,5.009441 2.11666,6.138331 -0.0353,0.42333 0.14111,1.30528 0.42334,1.94028 0.77611,1.76389 1.30527,4.16277 1.27,5.75027 0,0.81139 0.17639,1.5875 0.38805,1.72862 0.28222,0.17638 0.35278,0.0706 0.21167,-0.28223 -0.10583,-0.3175 -0.0353,-1.16416 0.14111,-1.94027 0.28222,-1.05834 0.24694,-1.72862 -0.21167,-2.92806 -0.3175,-0.88194 -0.67027,-2.08139 -0.77611,-2.64583 -0.10583,-0.59973 -0.42333,-1.37584 -0.67028,-1.76389 -0.24694,-0.38806 -0.56444,-1.375832 -0.70555,-2.222499 -0.14111,-0.811389 -0.38806,-1.5875 -0.52917,-1.693333 -0.17639,-0.105833 -0.3175,-0.776111 -0.3175,-1.516945 0,-0.846666 -0.28222,-1.693333 -0.74083,-2.293055 -0.45861,-0.599723 -0.67028,-1.305278 -0.59972,-2.046112 0.0705,-0.987777 0.24694,-1.164166 0.91722,-1.093611 l 0.81139,0.105834 -0.9525,-1.234723 c -0.49389,-0.670278 -1.05834,-1.234722 -1.19945,-1.234722 -0.14111,0 -0.59972,-0.917222 -1.02305,-2.046111 -0.74084,-2.010834 -1.72861,-3.386667 -3.77473,-5.432778 -0.88194,-0.846667 -0.91722,-1.058334 -0.67027,-2.645834 0.17639,-0.917222 0.35277,-2.398889 0.38805,-3.280833 0.0706,-0.881945 0.21167,-2.398889 0.35278,-3.35139 0.28222,-2.469444 -0.3175,-5.432778 -1.5875,-7.514167 -0.70556,-1.128889 -1.09361,-2.187222 -1.09361,-3.069167 0,-0.846666 -0.45861,-2.187222 -1.30528,-3.739444 -1.27,-2.363611 -1.44639,-2.504723 -4.51555,-3.880556 -0.56445,-0.282222 -1.5875,-0.846667 -2.25778,-1.305278 -1.12889,-0.740833 -1.44639,-0.776111 -5.11528,-0.564444 -6.24417,0.3175 -8.53722,0.740833 -11.1125,2.081389 -2.36361,1.234722 -5.32695,2.398889 -5.57389,2.187222 -0.0353,-0.07056 -0.70556,-1.305278 -1.44639,-2.751667 -1.27,-2.54 -1.37583,-2.645833 -3.24556,-3.280833 -1.44638,-0.493889 -3.175,-0.670278 -6.87916,-0.740834 -6.80861,-0.105833 -7.69056,-0.3175 -10.19528,-2.328333 -1.51695,-1.234722 -2.64583,-1.799167 -4.33917,-2.2225 -3.03389,-0.776111 -6.10305,-0.987778 -7.16139,-0.529167 z m 8.29028,2.046111 c 1.44639,0.670278 2.29306,1.27 2.29306,1.622778 0,0.388056 0.21166,0.529167 0.67027,0.352778 0.35278,-0.105833 0.84667,0.03528 1.09362,0.352778 0.38805,0.458611 0.28222,0.493889 -0.74084,0.3175 -1.83444,-0.3175 -6.0325,-1.552223 -7.09083,-2.116667 -1.23472,-0.635 -0.9525,-1.552222 0.45861,-1.552222 0.56444,0 2.08139,0.458611 3.31611,1.023055 z m -59.760558,7.337778 c 0.458611,0.564445 0.423333,0.599723 -0.105833,0.141112 -0.352778,-0.246945 -0.635,-0.529167 -0.635,-0.599723 0,-0.282222 0.282222,-0.105833 0.740833,0.458611 z m -20.355279,2.046112 c -0.105833,0.282222 -0.493889,0.599722 -0.846667,0.705555 -0.352778,0.105834 -1.552222,1.058334 -2.610556,2.116667 -1.093611,1.058333 -2.046111,1.940278 -2.151944,1.940278 -0.493889,0 1.834444,-2.610556 3.457222,-3.880556 1.834445,-1.481667 2.469445,-1.728611 2.151945,-0.881944 z m 102.023337,2.575278 c -0.81139,0.811389 -1.16416,0.211666 -0.35278,-0.670278 0.42334,-0.458611 0.70556,-0.564445 0.77612,-0.3175 0.10583,0.246944 -0.10584,0.670278 -0.42334,0.987778 z m 33.90195,9.242778 c 0.74083,2.504722 0.3175,2.8575 -0.70556,0.564444 -1.12889,-2.434166 -1.12889,-2.398889 -0.35277,-2.257777 0.38805,0.07055 0.77611,0.740833 1.05833,1.693333 z m -142.098899,1.5875 c 0,0.176389 -0.3175,-0.03528 -0.670277,-0.493889 -0.388056,-0.458611 -0.705556,-0.987778 -0.705556,-1.234722 0,-0.211667 0.3175,0 0.705556,0.493889 0.388055,0.493889 0.705555,1.023055 0.670277,1.234722 z M 26.69206,77.053838 c 0,0.176389 -0.423333,0.352778 -0.9525,0.352778 -0.776111,0 -0.881944,-0.07056 -0.458611,-0.352778 0.705556,-0.458611 1.411111,-0.458611 1.411111,0 z"
       id="path1"
       style="fill:#000000;stroke:none;stroke-width:0.0352778" /><path
       d="m 123.52957,56.945504 c -0.10584,0.176389 0.0353,0.352777 0.35277,0.352777 0.3175,0 0.45862,-0.176388 0.35278,-0.352777 -0.10583,-0.211667 -0.28222,-0.352778 -0.35278,-0.352778 -0.0705,0 -0.24694,0.141111 -0.35277,0.352778 z"
       id="path2"
       style="fill:#000000;stroke:none;stroke-width:0.0352778" /><path
       d="m 62.710674,57.827448 c -1.446389,0.458611 -2.116667,0.987778 -2.151945,1.693334 0,0.141111 0.423334,-0.07056 0.987778,-0.458612 0.529167,-0.388055 1.975556,-0.9525 3.245556,-1.199444 2.010833,-0.458611 2.116667,-0.493889 0.881944,-0.529167 -0.776111,0 -2.116666,0.246945 -2.963333,0.493889 z"
       id="path3"
       style="fill:#000000;stroke:none;stroke-width:0.0352778" /><path
       d="m 105.2204,69.469115 c 0.28222,1.305278 0.49389,1.587501 0.49389,0.670278 0,-0.352777 -0.17639,-0.917222 -0.35278,-1.199444 -0.28222,-0.388056 -0.3175,-0.246945 -0.14111,0.529166 z"
       id="path4"
       style="fill:#000000;stroke:none;stroke-width:0.0352778" /><path
       d="m 43.69595,71.585782 c 0,0.564445 0.07056,0.776111 0.176389,0.423334 0.07056,-0.3175 0.07056,-0.811389 0,-1.058334 -0.105833,-0.211666 -0.176389,0.03528 -0.176389,0.635 z"
       id="path5"
       style="fill:#000000;stroke:none;stroke-width:0.0352778" /><path
       d="m 105.46734,73.878838 c 0,0.881945 0.0706,1.234722 0.14111,0.776111 0.0706,-0.423333 0.0706,-1.128889 0,-1.5875 -0.0706,-0.423333 -0.14111,-0.07056 -0.14111,0.811389 z"
       id="path6"
       style="fill:#000000;stroke:none;stroke-width:0.0352778" /><path
       d="m 105.5379,77.477172 c 0.10583,0.917222 0,1.763889 -0.21167,1.869722 -0.17639,0.141111 -0.24694,0.493889 -0.14111,0.846667 0.10583,0.388055 -0.24694,1.023055 -1.05833,1.799166 -1.27,1.234723 -1.48167,1.905001 -0.84667,2.822223 0.28222,0.423333 0.3175,0.352778 0.14111,-0.282222 -0.17639,-0.635 0.10584,-1.164167 1.41111,-2.575278 1.41111,-1.516945 1.62278,-1.905001 1.41111,-2.716389 -0.17638,-0.529167 -0.42333,-1.516945 -0.56444,-2.187223 -0.24694,-1.093611 -0.28222,-1.023055 -0.14111,0.423334 z"
       id="path7"
       style="fill:#000000;stroke:none;stroke-width:0.0352778" /><path
       d="m 195.75352,112.26697 c 0.10583,2.27714 0,4.37912 -0.21167,4.64186 -0.17639,0.35033 -0.24694,1.22616 -0.14111,2.10199 0.10583,0.9634 -0.24694,2.53988 -1.05833,4.46672 -1.27,3.06538 -1.48167,4.72945 -0.84667,7.00659 0.28222,1.05098 0.3175,0.87583 0.14111,-0.70065 -0.17639,-1.57649 0.10584,-2.89023 1.41111,-6.39353 1.41111,-3.76606 1.62278,-4.72946 1.41111,-6.74386 -0.17638,-1.31374 -0.42333,-3.76606 -0.56444,-5.4301 -0.24694,-2.71506 -0.28222,-2.53991 -0.14111,1.05098 z"
       id="path7-3"
       style="display:inline;fill:#000000;stroke:none;stroke-width:0.0555852" /><path
       d="m 171.86013,77.547727 c 0.21166,1.058334 1.5875,2.998611 2.96333,4.233334 0.59972,0.529166 0.74083,1.128889 0.81139,2.998611 0.0353,2.081389 0.0705,2.151945 0.17639,0.564444 0.21166,-2.786944 0.24694,-2.822222 2.08139,-1.5875 0.88194,0.635 1.69333,1.058334 1.76388,0.9525 0.10584,-0.105833 -0.35277,-0.493888 -1.02305,-0.917222 -0.635,-0.388055 -2.01083,-1.5875 -2.99861,-2.610556 -0.98778,-1.058333 -2.04611,-2.010833 -2.36361,-2.151944 -0.3175,-0.105833 -0.81139,-0.705556 -1.09361,-1.340556 -0.52917,-1.164167 -0.52917,-1.164167 -0.3175,-0.141111 z"
       id="path8"
       style="fill:#000000;stroke:none;stroke-width:0.0352778" /><path
       d="m 85.641231,77.724116 c -0.246945,0.176389 -0.423334,0.458611 -0.352778,0.670278 0.07056,0.211667 0.493889,0.07055 0.987778,-0.3175 0.811389,-0.670278 0.3175,-0.9525 -0.635,-0.352778 z"
       id="path9"
       style="fill:#000000;stroke:none;stroke-width:0.0352778" /><path
       d="m 147.1304,82.028005 c -0.56444,0.141111 -4.19805,0.987778 -8.07861,1.905 -3.88056,0.917223 -9.59556,2.187223 -12.7,2.8575 -3.10445,0.670278 -6.52639,1.446389 -7.58472,1.728612 -1.05834,0.3175 -3.95112,0.9525 -6.42056,1.481666 -2.99861,0.635001 -4.51556,1.093612 -4.51556,1.411112 0,0.246944 -0.14111,0.458611 -0.35277,0.458611 -0.17639,0 -1.44639,1.023055 -2.78695,2.293055 -1.30528,1.270001 -2.50472,2.293056 -2.64583,2.293056 -0.14111,0 -1.23472,-0.670278 -2.434168,-1.446389 l -2.187223,-1.481667 -6.35,-0.105833 c -3.4925,-0.07056 -7.478889,-0.211667 -8.819445,-0.3175 -1.375834,-0.07055 -5.115278,0 -8.290278,0.176389 -3.210278,0.176389 -8.643057,0.352778 -12.065001,0.388056 -5.538612,0.03528 -6.279445,0.105833 -6.314723,0.635 0,0.3175 -0.07055,2.116666 -0.141111,4.056944 l -0.07056,3.457223 -1.375834,1.37583 c -0.776111,0.74084 -2.187222,1.86973 -3.210278,2.50473 -4.1275,2.61055 -7.9375,5.29166 -8.113889,5.78555 -0.388056,1.05833 0.599722,1.55222 3.069167,1.55222 3.033889,0 3.245555,0.24695 2.822222,3.175 -0.493889,3.35139 -0.423333,5.82084 0.246944,9.13695 0.352778,1.86972 0.458612,3.13972 0.246945,3.45722 -0.246945,0.38806 -1.340556,0.52917 -4.550834,0.635 -4.445,0.14111 -7.267222,0.74083 -11.535834,2.39889 -1.658055,0.635 -2.469444,0.81139 -2.610555,0.52917 -0.352778,-0.56445 -0.846667,-10.05417 -0.599723,-11.78278 0.141111,-1.05833 0,-1.76389 -0.423333,-2.50472 -0.458611,-0.81139 -0.529167,-1.30528 -0.282222,-2.04611 0.282222,-0.84667 0.670277,-1.09362 2.928055,-1.72862 1.411112,-0.42333 2.645834,-0.91722 2.716389,-1.12889 0.07056,-0.24694 -0.599722,-0.14111 -1.728611,0.24695 -1.023055,0.35278 -2.363611,0.635 -2.998611,0.67028 -0.599722,0 -1.234722,0.17639 -1.375833,0.42333 -0.458612,0.74083 -0.529167,2.71639 -0.141112,3.4925 0.458612,0.84667 0.811389,13.05278 0.493889,16.72167 l -0.211666,2.46944 -1.199445,0.0353 h -1.199444 l 0.211666,-3.70417 c 0.141111,-2.04611 0.246945,-5.25639 0.3175,-7.09083 0.03528,-1.83444 0.105834,-3.52778 0.176389,-3.70417 0.03528,-0.21166 0.03528,-0.52916 0,-0.70555 -0.529166,-2.61056 -0.635,-4.19806 -0.282222,-5.15056 0.282222,-0.84666 0.282222,-1.30528 -0.03528,-1.76389 -0.282222,-0.45861 -0.282222,-0.67027 0,-0.67027 0.564445,0 0.176389,-0.88195 -0.423333,-0.91723 -0.282222,-0.0353 -1.023056,-0.0705 -1.622778,-0.10583 -0.740833,-0.0353 -1.552222,-0.42333 -2.293056,-1.09361 -1.093611,-0.98778 -1.128889,-1.09361 -0.564444,-1.55222 0.811389,-0.59973 0.811389,-0.98778 0.03528,-0.88195 -1.023056,0.17639 -3.386667,-0.77611 -4.409723,-1.72861 -0.917222,-0.84667 -0.9525,-0.9525 -0.458611,-1.72861 0.493889,-0.74083 0.493889,-0.81139 -0.141111,-0.81139 -0.811389,0 -1.799167,-1.27 -1.799167,-2.29306 0,-0.38805 0.246944,-1.09361 0.564444,-1.51694 0.599723,-0.88194 0.317501,-1.02306 -0.564444,-0.24694 -0.529167,0.49388 -0.635,0.49388 -1.058333,-0.0353 -0.423334,-0.45861 -0.388056,-0.74084 0.176389,-1.799169 0.705555,-1.305278 2.8575,-3.175 3.245555,-2.822223 0.105834,0.105834 0.493889,-0.141111 0.811389,-0.564444 0.670278,-0.811389 1.446389,-0.635 0.811389,0.176389 -1.093611,1.446389 -1.375833,4.868337 -0.423333,4.868337 0.176389,0 0.141111,-0.28223 -0.07056,-0.635 -0.564444,-0.917226 -0.141111,-2.293059 1.164167,-3.774726 1.199444,-1.375834 1.799167,-1.446389 1.869722,-0.246945 0.07056,1.023056 0.529167,1.446389 0.529167,0.493889 0,-0.776111 0.881945,-1.411111 2.645834,-1.905 1.023055,-0.246944 0.564444,-0.246944 -2.293056,0.105834 -0.282222,0.03528 -1.446389,0.03528 -2.575278,0.03528 -1.799167,-0.07055 -2.081389,-0.176389 -2.434167,-0.9525 -0.282222,-0.635 -0.282222,-1.128889 0.07056,-1.940278 0.493889,-1.164166 2.575278,-2.822222 3.563055,-2.822222 0.3175,0 0.705556,-0.246944 0.811389,-0.564444 0.3175,-0.776112 0.917223,-0.246945 0.9525,0.846666 0.03528,0.740834 0.07056,0.776111 0.211667,0.246945 0.105833,-0.388056 0.388056,-0.9525 0.635,-1.234723 0.211667,-0.282222 0.529167,-0.811389 0.635,-1.164166 0.458611,-1.27 5.115278,-2.645834 5.715001,-1.658056 0.105833,0.176389 -0.529167,0.670278 -1.411112,1.093611 -1.622778,0.776111 -2.187222,1.27 -1.799166,1.622778 0.105833,0.141111 0.493888,-0.03528 0.846666,-0.352778 0.352778,-0.3175 1.199445,-0.811389 1.905,-1.093611 1.128889,-0.493889 1.305278,-0.493889 1.693334,-0.03528 0.388055,0.458611 0.493889,0.458611 0.846667,-0.03528 0.282222,-0.388056 0.705555,-0.458612 1.375833,-0.317501 l 0.9525,0.246945 -1.128889,0.599722 c -1.128889,0.529167 -1.869722,2.151945 -0.987778,2.151945 0.211667,0 0.3175,-0.141111 0.176389,-0.352778 -0.105833,-0.176389 0.211667,-0.564444 0.670278,-0.881945 1.27,-0.846666 3.563056,-0.388055 4.868334,0.881945 0.529166,0.564444 0.987777,0.881945 0.987777,0.705556 0,-0.529167 -1.164166,-1.481667 -2.363611,-2.010834 -0.670278,-0.246944 -1.481667,-0.776111 -1.869722,-1.164167 -0.423334,-0.423333 -1.164167,-0.705555 -1.905,-0.705555 -0.635,0 -1.658056,-0.246945 -2.187223,-0.529167 -2.081389,-1.058333 -5.150556,-0.458611 -6.808611,1.375834 -0.493889,0.493888 -1.164167,0.917222 -1.481667,0.917222 -1.340556,0 -4.7625,1.516944 -5.715,2.504722 -1.199445,1.305278 -1.199445,2.2225 0,3.774723 l 0.9525,1.234722 -0.881945,0.564444 c -1.5875,1.023056 -3.4925,3.139723 -3.4925,3.880563 0,0.42333 0.388056,1.51694 0.881945,2.43416 0.493888,0.91722 0.881944,1.83445 0.881944,2.08139 0,0.24695 0.3175,0.59972 0.705556,0.81139 0.423333,0.21167 0.599722,0.56444 0.458611,0.91722 -0.352778,0.9525 0.670278,2.18722 2.575278,3.10445 1.375833,0.67027 2.010833,1.19944 2.469444,2.18722 0.635,1.30528 2.187223,2.25778 3.668889,2.25778 0.9525,0 1.587501,1.55222 1.093612,2.78694 -0.211667,0.49389 -0.282223,1.79917 -0.211667,2.8575 0.458611,6.13834 0.529167,8.78417 0.176389,9.66611 -0.176389,0.52917 -0.458611,2.29306 -0.564445,3.95112 l -0.246944,2.96333 -2.151945,1.48167 c -3.457222,2.32833 -5.115278,3.59833 -5.150556,3.88055 0,0.56445 1.023056,0.21167 4.021667,-1.34055 1.728612,-0.88195 3.316112,-1.51695 3.563056,-1.41112 0.246945,0.0706 0.776111,-0.0705 1.199445,-0.35277 0.423333,-0.3175 1.27,-0.49389 1.905,-0.42334 1.093611,0.10584 1.128889,0.0353 1.305278,-1.30527 0.176389,-1.51695 0.740833,-1.94028 4.339167,-3.175 1.164166,-0.42334 1.658055,-0.77612 1.5875,-1.16417 -0.07056,-0.42334 0.388055,-0.67028 1.834444,-1.02306 3.316112,-0.74083 18.485557,-1.41111 18.873612,-0.81139 0.246945,0.38806 17.885835,0.21167 18.556113,-0.17639 0.211666,-0.14111 2.54,-0.21166 5.185833,-0.14111 2.645834,0.0706 5.009445,0.0353 5.221112,-0.10583 0.493889,-0.3175 4.409722,-0.91722 6.843889,-1.05833 l 1.940278,-0.0706 0.211667,1.97556 c 0.282222,2.46944 0.352778,2.61055 2.046111,2.8575 0.776111,0.0705 3.175,0.91722 5.397508,1.83444 2.18722,0.91722 4.51555,1.83445 5.18583,2.08139 0.67028,0.21167 1.44639,0.81139 1.76389,1.34056 0.3175,0.56444 0.77611,0.98777 0.98778,0.98777 0.24694,0 0.70555,0.38806 0.98778,0.84667 0.3175,0.45861 0.84666,0.9525 1.16416,1.05833 0.3175,0.10584 1.12889,0.52917 1.76389,0.91723 0.81139,0.49389 1.72861,0.70555 2.82222,0.67027 0.91723,-0.0353 2.43417,0.14112 3.35139,0.38806 1.5875,0.38806 1.76389,0.35278 2.54,-0.35278 0.70556,-0.67028 0.91723,-0.70555 1.65806,-0.35278 0.42333,0.24695 1.09361,0.67028 1.41111,0.9525 0.38806,0.35278 0.84667,0.45862 1.23472,0.24695 0.35278,-0.14111 0.88195,-0.3175 1.16417,-0.35278 1.83444,-0.35278 19.26167,-1.27 29.03361,-1.55222 7.19667,-0.17639 11.7475,-0.42333 12.02972,-0.67028 0.3175,-0.28222 1.12889,-0.17639 2.89277,0.28222 1.34057,0.35278 3.31612,0.77611 4.37445,0.88195 1.19945,0.17639 2.96334,0.81139 4.69194,1.69333 1.86972,0.98778 2.8575,1.34056 3.10445,1.09361 0.24694,-0.24694 0.9525,-0.17639 2.18722,0.28222 1.02306,0.38806 2.15194,0.67028 2.57528,0.67028 0.42333,0 1.16416,0.3175 1.65805,0.70556 0.49389,0.38805 1.16417,0.70555 1.51695,0.70555 0.3175,0 0.91722,0.24695 1.27001,0.59973 0.35277,0.3175 0.74082,0.45861 0.84666,0.35277 0.42334,-0.38805 -0.10583,-1.12889 -1.12888,-1.62277 -0.56445,-0.24695 -1.27001,-0.59973 -1.55224,-0.77612 -4.30388,-2.54 -9.31333,-4.30388 -16.75694,-5.96194 l -4.23334,-0.9525 -0.3175,-4.90361 c -0.17639,-3.21028 -0.14111,-6.73806 0.10584,-10.19528 0.21166,-2.92806 0.38805,-7.86694 0.42333,-11.04195 0.0353,-6.49111 0.0706,-6.56166 2.89278,-6.38527 0.81139,0.0353 1.69333,0.0353 1.94028,0 0.84666,-0.0706 0.42333,-1.05834 -0.81139,-1.79917 -0.67028,-0.42333 -1.34056,-0.98778 -1.48167,-1.23472 -0.45861,-0.81139 -20.77861,-21.237228 -21.73111,-21.872228 -1.02306,-0.670278 -2.75167,-0.846667 -4.33917,-0.493889 z m 5.3975,4.092223 c 1.23472,1.340555 2.2225,2.434166 2.2225,2.469444 0,0.03528 -2.2225,0.07056 -4.93889,0.07056 -2.71639,0.03528 -4.93889,-0.07056 -4.93889,-0.211667 0,-0.352778 4.69195,-4.656667 5.08,-4.691945 0.21167,0 1.34056,1.058334 2.57528,2.363612 z m -7.47889,-0.881945 c -0.91722,1.093611 -5.96194,6.244167 -16.89805,17.215557 l -4.93889,4.93889 h -5.46806 c -3.03389,0 -9.87778,0.3175 -15.20472,0.70555 -9.842503,0.67028 -11.288892,0.59973 -9.701392,-0.56444 2.151944,-1.5875 9.348612,-8.078611 9.348612,-8.431389 0,-0.211667 1.37583,-1.763889 3.10444,-3.386667 l 3.06917,-2.998611 3.88056,-0.811389 c 2.15194,-0.423334 5.15055,-1.164167 6.70278,-1.622778 1.55222,-0.458611 4.16277,-1.093611 5.82083,-1.411112 1.65805,-0.3175 4.58611,-1.023055 6.52639,-1.5875 4.02167,-1.128889 12.13555,-2.928055 14.21694,-3.139722 0.28223,0 0.10584,0.458611 -0.45861,1.093611 z m 14.39334,7.620001 c 1.5875,1.552222 3.95111,3.704167 5.22111,4.797778 2.25778,1.869722 7.72583,7.514168 7.72583,7.972778 0,0.10583 -5.18583,0.21167 -11.53583,0.17639 -6.38528,0 -14.71084,0.14111 -18.52084,0.3175 l -6.985,0.3175 -0.0705,-1.905 c -0.0353,-1.05833 -0.0706,-2.46945 -0.0706,-3.13972 -0.0353,-0.84667 -0.21167,-1.23473 -0.56444,-1.23473 -0.42334,0 -0.49389,0.45862 -0.42334,2.46945 0.0706,1.34055 0.17639,2.71639 0.28223,3.03389 0.14111,0.49389 -0.38806,0.59972 -3.59834,0.77611 -2.08139,0.14111 -3.84528,0.17639 -3.91583,0.10583 -0.0706,-0.0353 3.63361,-3.88055 8.255,-8.501943 l 8.32556,-8.396111 6.52638,0.211666 6.49112,0.176389 z m -65.828341,3.104444 c 6.914441,0.564445 1.375833,0.811389 -19.54389,0.917223 -9.172223,0.03528 -16.756946,-0.03528 -16.898057,-0.141112 -0.105833,-0.141111 -0.105833,-0.388055 0,-0.564444 0.246945,-0.423333 31.855836,-0.599722 36.441947,-0.211667 z m 5.609167,1.446389 c 0.635,0.564445 1.199444,1.128889 1.164164,1.340556 0,0.176389 -0.634997,0.881944 -1.411108,1.552227 l -1.375834,1.16416 v -2.50472 c 0,-1.375834 0.07056,-2.504723 0.211667,-2.504723 0.105833,0 0.740833,0.423334 1.411111,0.9525 z m -24.906113,2.610553 v 1.72861 h -1.234722 -1.199444 l 0.529166,-1.51694 c 0.282223,-0.811389 0.564445,-1.693334 0.670278,-1.905 0.07056,-0.246945 0.388056,-0.352778 0.705556,-0.246945 0.388055,0.141111 0.529166,0.705556 0.529166,1.940275 z m 2.328334,-1.799164 c 0.740833,0 0.811389,0.105834 0.493889,0.917222 -0.211667,0.493889 -0.352778,1.375832 -0.352778,1.940282 0,0.84666 -0.141111,1.02305 -0.917222,1.02305 -0.846667,0 -0.881945,-0.0705 -0.670278,-1.55222 0.176389,-0.987778 0.105833,-1.622778 -0.141111,-1.763889 -0.599722,-0.388056 -0.458611,-1.023056 0.176389,-0.776111 0.3175,0.105833 0.917222,0.211666 1.411111,0.211666 z m 17.497779,1.128889 c -0.07056,0.740835 0,1.340555 0.176389,1.340555 0.493889,0 1.164166,-1.340555 0.9525,-1.940277 -0.141111,-0.352778 0,-0.529167 0.388055,-0.529167 0.529167,0 0.599723,0.246945 0.458611,1.5875 -0.141111,0.952504 -0.03528,1.693334 0.176389,1.834444 0.635,0.38806 -1.340555,0.74083 -3.104444,0.52917 -1.622778,-0.17639 -1.658056,-0.17639 -1.411111,-1.27 0.105833,-0.59972 0.282222,-1.481669 0.352777,-1.975558 0.07056,-0.493889 0.141111,-0.917222 0.141111,-0.987778 0.03528,-0.07056 0.458612,-0.07056 1.023056,0 0.881945,0.105833 0.9525,0.211667 0.846667,1.411111 z M 58.583174,98.679117 c 0.881944,0.635 0.493888,3.421943 -0.493889,3.421943 -0.458612,0 -0.670278,-0.38805 -0.846667,-1.5875 -0.352778,-2.222498 0.07055,-2.751665 1.340556,-1.834443 z m 5.856111,1.305278 c 0,0.952505 0.141111,1.763885 0.3175,1.763885 0.529167,0 0.740833,-0.52916 0.811389,-2.081385 0.03528,-1.340555 0.141111,-1.446389 1.023056,-1.446389 0.846666,0 0.9525,0.141111 1.164166,1.5875 0.352778,2.187224 0.776111,2.257774 1.058334,0.176389 l 0.246944,-1.763889 h 1.375834 c 0.776111,0 1.411111,0.105834 1.411111,0.211667 0,0.105833 -0.176389,0.881944 -0.388056,1.693337 -0.352778,1.41111 -0.493889,1.55222 -1.658055,1.76389 -0.740834,0.10583 -2.681112,0.21166 -4.374445,0.21166 h -3.104445 v -1.02305 c 0,-1.658059 0.599722,-2.857504 1.411111,-2.857504 0.599723,0 0.705556,0.211667 0.705556,1.763889 z m 18.132779,-1.446389 c 0.141111,0.176389 0.3175,1.058334 0.423333,1.940274 l 0.246945,1.62278 h -1.093611 c -1.023056,0 -1.093612,-0.0705 -1.199445,-1.48166 -0.07056,-0.811394 -0.3175,-1.516949 -0.564444,-1.622783 -0.3175,-0.105833 -0.423334,0.141111 -0.388056,0.670278 0.176389,2.151945 0.03528,2.434165 -1.305278,2.434165 -1.128889,0 -1.234722,-0.0705 -0.9525,-0.81139 0.141111,-0.42333 0.282222,-1.305275 0.282222,-1.940275 v -1.128889 h 2.187223 c 1.199444,0 2.257778,0.141111 2.363611,0.3175 z m 2.8575,0.03528 c 0.105833,0.211667 0.105833,1.058333 -0.03528,1.940274 -0.176389,1.23472 -0.352777,1.5875 -0.881944,1.5875 -0.564445,0 -0.670278,-0.28222 -0.670278,-1.94028 0,-1.693327 0.105833,-1.940272 0.670278,-1.940272 0.388055,0 0.811389,0.176389 0.917222,0.352778 z m 5.573889,0.705556 c -0.282222,0.635 -0.423333,1.446388 -0.3175,1.940278 0.211667,0.88194 0.176389,0.91722 -1.27,1.02305 -0.3175,0.0353 -0.458611,-0.49389 -0.458611,-1.44639 0,-2.010827 -0.670278,-2.081383 -0.881944,-0.10583 -0.141112,1.41111 -0.282223,1.5875 -1.058334,1.5875 -0.987778,0 -0.9525,0 -0.564444,-2.398886 l 0.282222,-1.658056 h 2.398889 2.398889 z m -29.527502,1.234718 c -0.03528,1.76389 -0.105833,1.94028 -0.740833,1.86972 -0.599722,-0.10583 -0.705555,-0.38805 -0.740833,-1.69333 0,-1.904997 0.07055,-2.116664 0.881944,-2.116664 0.493889,0 0.599722,0.3175 0.599722,1.940274 z m 24.306391,2.89278 9.101667,0.21167 -0.917222,0.81139 c -1.340556,1.12888 -6.632223,4.26861 -7.690556,4.55083 -0.493889,0.10583 -1.340556,0.59972 -1.905,1.09361 -0.529167,0.45861 -1.093611,0.84667 -1.199445,0.84667 -0.105833,0.0353 -3.739444,0.10583 -8.043334,0.21166 -5.715,0.10584 -7.866945,0.0353 -7.866945,-0.24694 0,-0.21167 1.199445,-1.5875 2.645834,-3.03389 1.446389,-1.48167 2.645833,-2.78694 2.645833,-2.96333 0,-1.37584 -2.610555,0.59972 -5.362222,4.02166 -0.881945,1.09361 -0.987778,1.41111 -0.635,1.83445 0.388055,0.45861 -0.3175,0.52916 -5.609167,0.52916 -3.316112,0 -6.032501,-0.10583 -6.032501,-0.24694 0,-0.67028 2.010834,-2.92806 3.880556,-4.33917 1.128889,-0.88194 2.081389,-1.86972 2.116667,-2.2225 0,-1.27 -0.881944,-0.67027 -5.044723,3.35139 -1.446389,1.41111 -1.693333,1.83445 -1.516944,2.57528 l 0.211667,0.88194 h -4.445001 c -2.469444,0 -4.409722,-0.0705 -4.339167,-0.14111 0.07056,-0.10583 1.340556,-0.9525 2.786945,-1.94027 1.446389,-0.98778 3.880556,-2.64584 5.362223,-3.73945 l 2.716389,-1.905 4.339167,-0.14111 c 9.560278,-0.21167 16.121945,-0.24694 24.800279,0 z m 83.114448,4.7625 c 0.28222,0.52917 0.35278,2.11667 0.17639,5.18583 -0.10583,2.43417 -0.3175,9.41917 -0.42333,15.45167 l -0.24695,11.04195 h -1.30528 c -0.74083,0 -2.50472,0.21166 -3.91583,0.49389 -2.68111,0.52916 -7.09083,0.77611 -22.5425,1.23472 -4.93889,0.17639 -9.24278,0.38805 -9.59556,0.52916 -0.38805,0.17639 -0.635,0.0706 -0.77611,-0.38805 -0.10583,-0.35278 -0.28222,-4.37445 -0.38805,-8.96056 -0.10584,-4.58611 -0.35278,-9.525 -0.52917,-10.93611 -0.49389,-3.63361 -1.12889,-11.99444 -0.91722,-12.48833 0.17639,-0.49389 11.95917,-1.19945 26.14083,-1.5875 5.43278,-0.14111 10.795,-0.24695 11.88861,-0.28223 1.76389,-0.0705 2.08139,0.0353 2.43417,0.70556 z m -77.293614,1.12889 c 0,0.70555 1.622777,1.65805 2.328333,1.37583 0.564445,-0.21166 0.599722,0.10584 0.388056,3.81 -0.141111,2.2225 -0.246945,5.96195 -0.246945,8.29028 v 4.26861 l -2.010833,0.38806 c -4.727223,0.88194 -6.279445,1.12889 -7.408334,1.12889 h -1.199445 l 0.211667,-1.86973 c 0.141111,-1.02305 0.03528,-4.23333 -0.176389,-7.12611 -0.211666,-2.92805 -0.423333,-5.67972 -0.458611,-6.17361 -0.07055,-0.77611 0.388056,-1.09361 3.986389,-2.8575 2.2225,-1.09361 4.162778,-1.94028 4.339167,-1.83444 0.141111,0.0705 0.246945,0.35277 0.246945,0.59972 z m 35.524724,1.44639 c 0,0.9525 0.17639,4.23333 0.3175,7.23194 0.14111,2.99861 0.21167,9.48973 0.14111,14.39334 -0.0705,8.81944 -0.0705,8.92528 0.67028,9.13694 1.09361,0.28222 0.88194,0.77611 -0.3175,0.74084 -0.56445,-0.0353 -0.9525,-0.17639 -0.84667,-0.35278 0.10584,-0.14111 -0.14111,-0.28222 -0.56444,-0.28222 -0.42334,0 -0.635,0.14111 -0.52917,0.35277 0.38806,0.635 -0.35278,0.38806 -0.9525,-0.3175 -0.35278,-0.42333 -0.45861,-0.81139 -0.24694,-1.12889 0.45861,-0.77611 0.38805,-1.94027 -0.21167,-2.43416 -0.28222,-0.24695 -0.52917,-0.88195 -0.52917,-1.37584 0,-1.16416 -0.9525,-2.04611 -3.31611,-3.175 -1.44639,-0.70555 -2.04611,-0.81138 -4.02167,-0.635 -1.23472,0.14112 -2.71638,0.49389 -3.21027,0.84667 -0.49389,0.3175 -1.69334,0.98778 -2.64584,1.44639 l -1.69333,0.88194 -3.77472,-1.30527 c -2.04611,-0.74084 -4.97417,-1.69334 -6.526392,-2.11667 -1.693333,-0.49389 -2.892778,-1.02306 -3.104444,-1.41111 -0.458611,-0.81139 -0.423334,-18.80306 0.03528,-20.0025 0.3175,-0.84667 0.493889,-0.91723 2.751667,-0.98778 2.892779,-0.0706 10.759719,-0.70556 13.687779,-1.09361 1.16416,-0.14111 4.97416,-0.24695 8.46666,-0.21167 l 6.35,0.0353 z m -45.543614,2.04611 c 0.458611,0.45861 0.881945,5.99722 0.776111,10.65389 l -0.105833,4.93889 -1.411111,0.24694 c -0.776111,0.14111 -4.127501,0.35278 -7.47889,0.49389 -5.08,0.21167 -6.103056,0.17639 -6.244167,-0.24694 -0.105833,-0.28223 -0.246944,-4.02167 -0.3175,-8.32556 l -0.105833,-7.83167 3.915834,-0.14111 c 5.08,-0.17639 10.689167,-0.0705 10.971389,0.21167 z m -15.910279,2.54 v 2.46944 l -6.244167,0.21167 c -5.609167,0.21167 -6.385278,0.3175 -7.514167,1.02306 -0.705555,0.42333 -1.340556,0.74083 -1.411111,0.67027 -0.176389,-0.21166 -0.246945,-1.94027 -0.211667,-4.65666 l 0.03528,-2.36361 7.690556,0.0705 7.655278,0.10583 z m 0.07056,4.16278 c 0.105833,0.14111 0.141111,0.3175 0.07055,0.38805 -0.07055,0.0706 -3.210278,0.21167 -6.985,0.3175 -5.221111,0.14111 -6.738056,0.10584 -6.420556,-0.21166 0.246944,-0.24695 1.411111,-0.52917 2.610556,-0.635 2.822222,-0.24695 10.406945,-0.14111 10.724445,0.14111 z m -0.3175,1.97555 c 0.352778,0.21167 0.458611,1.16417 0.352778,3.95111 l -0.141111,3.66889 h -7.196668 -7.196667 l -0.211666,-0.88194 c -0.141112,-0.49389 -0.352778,-2.01083 -0.493889,-3.42195 -0.246945,-2.50472 -0.246945,-2.54 0.599722,-2.75166 2.610556,-0.67028 13.476112,-1.09361 14.287501,-0.56445 z m 53.234163,12.80584 c 0.24695,-0.635 0.77611,-0.52917 1.905,0.45861 0.56445,0.45861 1.27,0.77611 1.55223,0.67028 0.24694,-0.10584 0.635,0.14111 0.88194,0.56444 0.49389,0.91722 0.28222,1.27 -0.35278,0.52917 -0.52916,-0.635 -1.51694,-0.67028 -2.50472,-0.14111 -0.70556,0.35277 -0.70556,0.38805 -0.0706,0.84666 0.59973,0.49389 0.59973,0.49389 -0.14111,0.52917 -1.02305,0 -1.37583,-0.10583 -1.27,-0.42333 0.0706,-0.14111 -0.24694,-0.45861 -0.67027,-0.67028 -0.70556,-0.38806 -2.25778,-0.3175 -5.64445,0.24694 -1.94028,0.35278 -1.79917,-0.67027 0.17639,-1.27 0.81139,-0.24694 1.5875,-0.56444 1.69333,-0.74083 0.10584,-0.21167 0.56445,-0.21167 1.12889,0 0.74083,0.28222 0.9525,0.28222 0.9525,-0.10583 0,-0.70556 0.74083,-0.88195 1.55222,-0.42334 0.49389,0.28223 0.70556,0.28223 0.81139,-0.0705 z m -6.94972,3.77472 c 0,0.88194 0.56444,1.27 0.84667,0.56444 0.10583,-0.28222 0.42333,-0.52916 0.74083,-0.52916 0.88194,0 2.78694,1.97555 2.82222,2.8575 0,0.45861 0.17639,0.84666 0.42334,0.84666 0.21166,0 0.52916,0.10584 0.67027,0.24695 0.28223,0.3175 3.45723,0.38805 3.73945,0.10583 0.3175,-0.35278 -0.56445,-1.905 -1.12889,-2.04611 -0.28222,-0.0705 -0.88194,0.10583 -1.30528,0.38806 -0.67028,0.38805 -0.81139,0.38805 -1.09361,-0.14111 -0.56444,-0.98778 0.3175,-1.51695 2.46945,-1.48167 1.05833,0.0353 2.11666,-0.0706 2.36361,-0.21167 0.28222,-0.17639 0.56444,-0.10583 0.74083,0.14111 0.14111,0.24695 0.42333,0.35278 0.635,0.21167 0.70556,-0.42333 0.70556,0.35278 0.0353,1.19944 -0.56445,0.74084 -0.70556,0.81139 -1.02306,0.35278 -0.3175,-0.45861 -0.38805,-0.45861 -0.67028,-0.0353 -0.17638,0.28223 -0.24694,0.70556 -0.14111,0.9525 0.0706,0.24695 -0.10583,0.84667 -0.45861,1.37584 -0.77611,1.16416 -1.62278,1.05833 -5.08,-0.67028 -1.5875,-0.81139 -2.68111,-1.16417 -3.24555,-1.02306 -0.42334,0.10584 -0.70556,0.0706 -0.52917,-0.0705 0.28222,-0.35278 -0.74083,-1.5875 -1.34056,-1.5875 -0.24694,0 -0.42333,-0.49389 -0.45861,-1.05833 0,-0.70556 0.14111,-1.05834 0.49389,-1.05834 0.28222,0 0.49389,0.3175 0.49389,0.67028 z m 5.78556,-0.35278 c 0.10583,0.14111 0,0.56445 -0.24695,0.88195 -0.38805,0.52916 -0.49389,0.52916 -1.23472,0.0353 -0.42333,-0.3175 -0.77611,-0.70555 -0.77611,-0.91722 0,-0.38805 2.01083,-0.42333 2.25778,0 z m 4.445,0.0353 c 0,0.17639 -0.24695,0.35278 -0.56445,0.35278 -0.28222,0 -0.42333,-0.17639 -0.3175,-0.35278 0.10584,-0.21167 0.35278,-0.35278 0.56445,-0.35278 0.17639,0 0.3175,0.14111 0.3175,0.35278 z m -7.9375,4.23333 c 0.10583,0.21167 -0.0353,0.24695 -0.3175,0.14111 -0.635,-0.24694 -0.74084,-0.49388 -0.24695,-0.49388 0.21167,0 0.45861,0.14111 0.56445,0.35277 z"
       id="path10"
       style="fill:#000000;stroke:none;stroke-width:0.0352778" /><path
       d="m 136.47651,89.57745 c -2.61055,2.963334 -4.37444,5.432778 -4.1275,5.820834 0.42333,0.670278 1.12889,0.352778 1.5875,-0.670278 0.21167,-0.564445 1.41111,-2.116667 2.68111,-3.421945 1.23473,-1.340555 2.18723,-2.575278 2.15195,-2.751667 -0.24695,-0.811388 -0.9525,-0.493888 -2.29306,1.023056 z"
       id="path11"
       style="fill:#000000;stroke:none;stroke-width:0.0352778" /><path
       d="m 132.27846,89.471617 c -0.38806,0.458611 -1.19945,1.552222 -1.72862,2.434167 -0.56444,0.881944 -1.94027,2.892778 -3.06916,4.409722 -4.16278,5.644444 -6.20889,8.713614 -6.0325,8.995834 0.42333,0.74083 1.12889,0.14111 2.78694,-2.43417 0.98778,-1.48166 2.78695,-4.056942 4.02167,-5.714997 1.23472,-1.658056 2.8575,-3.880556 3.59833,-5.009445 0.74084,-1.093611 1.55222,-2.046111 1.79917,-2.116667 0.45861,-0.176389 0.14111,-1.340555 -0.35278,-1.340555 -0.17639,0 -0.635,0.352777 -1.02305,0.776111 z"
       id="path12"
       style="fill:#000000;stroke:none;stroke-width:0.0352778" /><path
       d="m 125.08179,92.611339 c -1.23472,1.552222 -3.28083,4.303889 -4.48028,6.067778 -1.23472,1.763893 -2.8575,3.986393 -3.63361,4.974163 -0.91722,1.23473 -1.23472,1.905 -0.98778,2.15195 0.45861,0.42333 2.36361,-1.5875 4.40972,-4.65667 2.61056,-3.880554 6.27945,-8.748888 7.33778,-9.736665 0.84667,-0.811389 0.9525,-1.058334 0.52917,-1.340556 -0.28222,-0.176389 -0.59972,-0.3175 -0.70556,-0.3175 -0.14111,0 -1.23472,1.27 -2.46944,2.8575 z"
       id="path13"
       style="fill:#000000;stroke:none;stroke-width:0.0352778" /><path
       d="m 117.9204,97.126895 c -5.43278,6.596945 -6.56167,8.290275 -5.96195,8.890005 0.28223,0.28222 0.70556,-0.10584 1.55223,-1.34056 1.27,-1.905 7.40833,-9.489723 9.13694,-11.359445 0.98778,-1.058334 1.19945,-2.151945 0.45861,-2.151945 -0.14111,0 -2.46944,2.681111 -5.18583,5.961945 z"
       id="path14"
       style="fill:#000000;stroke:none;stroke-width:0.0352778" /><path
       d="m 114.67484,94.97495 c -1.37583,1.481667 -3.52777,3.915834 -4.7625,5.36222 -1.23472,1.44639 -2.68111,3.10445 -3.21027,3.70417 -0.56445,0.56444 -0.98778,1.27 -0.98778,1.48167 0,0.9525 0.98778,0.38805 2.08139,-1.16417 0.635,-0.88194 1.97555,-2.50472 2.99861,-3.59833 3.42194,-3.774726 6.70278,-7.302504 7.02028,-7.514171 0.35277,-0.246944 0.0353,-1.023055 -0.38806,-1.023055 -0.14111,0 -1.37583,1.234722 -2.75167,2.751666 z"
       id="path15"
       style="fill:#000000;stroke:none;stroke-width:0.0352778" /><path
       d="m 104.55012,100.26662 c -3.24555,3.24555 -5.891388,6.06778 -5.891388,6.27944 0,1.09361 1.058333,0.59972 2.504718,-1.12889 0.84667,-1.05833 3.4925,-3.73944 5.89139,-5.997219 3.95111,-3.739445 5.00945,-5.115278 3.88056,-5.044723 -0.24695,0 -3.10445,2.681111 -6.38528,5.891392 z"
       id="path16"
       style="fill:#000000;stroke:none;stroke-width:0.0352778" /><path
       d="m 145.82512,93.528561 c 0.14111,1.869723 0,3.739445 -0.38805,5.785556 -0.635,3.139723 -0.635,5.432783 -0.0353,5.432783 0.21167,0 0.45861,-0.9525 0.56444,-2.11667 0.10584,-1.16417 0.38806,-3.280835 0.635,-4.727224 0.49389,-2.8575 0.24695,-6.103056 -0.49388,-6.738056 -0.38806,-0.3175 -0.42334,0.07056 -0.28223,2.363611 z"
       id="path17"
       style="fill:#000000;stroke:none;stroke-width:0.0352778" /><path
       d="m 149.17651,97.197451 c 0.0706,3.951109 0.24695,5.785559 0.52917,5.856109 0.28222,0.10584 0.38805,-1.37583 0.35278,-5.573887 -0.0706,-4.303889 -0.17639,-5.750278 -0.52917,-5.891389 -0.35278,-0.105834 -0.42333,1.058333 -0.35278,5.609167 z"
       id="path18"
       style="fill:#000000;stroke:none;stroke-width:0.0352778" /><path
       d="m 153.1629,96.879951 c 0.14111,7.090829 0.14111,6.984999 0.67028,6.984999 0.38806,0 0.45861,-0.9525 0.35278,-5.22111 -0.14111,-5.185834 -0.3175,-6.420556 -0.81139,-6.420556 -0.14111,0 -0.24695,2.116666 -0.21167,4.656667 z"
       id="path19"
       style="fill:#000000;stroke:none;stroke-width:0.0352778" /><path
       d="m 140.95679,93.846061 c -0.42333,0.811389 -0.38806,0.952501 0.17639,1.411112 0.59972,0.423333 0.635,0.811389 0.42333,4.903607 -0.17639,2.92806 -0.14111,4.40973 0.10584,4.40973 0.17638,0 0.42333,-0.14111 0.52916,-0.28223 0.28222,-0.45861 0.59972,-9.94833 0.38806,-10.689163 -0.3175,-0.9525 -1.02306,-0.846667 -1.62278,0.246944 z"
       id="path20"
       style="fill:#000000;stroke:none;stroke-width:0.0352778" /><path
       d="m 157.07874,94.586895 c 0.17638,0.564444 0.28222,2.010833 0.21166,3.280833 -0.14111,2.857502 0.21167,5.997222 0.67028,5.997222 0.45861,0 0.42333,-8.713611 -0.0353,-9.560277 -0.59972,-1.058334 -1.19944,-0.846667 -0.84666,0.282222 z"
       id="path21"
       style="fill:#000000;stroke:none;stroke-width:0.0352778" /><path
       d="m 137.64068,100.76051 c 0,2.8575 0.14111,4.33916 0.38805,4.40972 0.28223,0.10583 0.45862,-1.05833 0.56445,-3.66889 0.17639,-4.127501 0.0705,-5.044723 -0.56445,-5.044723 -0.28222,0 -0.38805,1.27 -0.38805,4.303893 z"
       id="path22"
       style="fill:#000000;stroke:none;stroke-width:0.0352778" /><path
       d="m 160.64179,97.726617 c -0.10583,0.141111 -0.0705,0.493889 0.10583,0.811389 0.14112,0.3175 0.35278,1.516944 0.45862,2.681114 0.21166,2.82222 0.9525,3.06916 0.91722,0.28222 -0.0353,-3.033889 -0.67028,-4.586112 -1.48167,-3.774723 z"
       id="path23"
       style="fill:#000000;stroke:none;stroke-width:0.0352778" /><path
       d="m 165.29846,101.28967 c -0.0706,1.12889 0.0705,2.04611 0.42333,2.36361 0.17639,0.21167 0.3175,-0.21166 0.3175,-1.09361 0,-1.44639 -0.67028,-2.54 -0.74083,-1.27 z"
       id="path24"
       style="fill:#000000;stroke:none;stroke-width:0.0352778" /><path
       d="m 73.823174,105.62884 c -2.8575,2.46944 -3.633611,3.42194 -3.104444,3.95111 0.282222,0.28222 0.740833,0.0353 1.552222,-0.81139 0.635,-0.67028 2.010834,-1.905 3.069167,-2.78694 1.516945,-1.30528 1.799167,-1.69334 1.411111,-2.01084 -0.388055,-0.3175 -0.987778,0.0353 -2.928056,1.65806 z"
       id="path25"
       style="fill:#000000;stroke:none;stroke-width:0.0352778" /><path
       d="m 56.113729,104.64106 c -1.940278,1.44639 -5.785556,5.11528 -5.785556,5.53861 0,0.88195 1.128889,0.28223 3.457222,-1.86972 1.375834,-1.27 2.892778,-2.54 3.386667,-2.8575 0.9525,-0.635 1.234723,-1.5875 0.458611,-1.5875 -0.246944,0 -0.9525,0.35278 -1.516944,0.77611 z"
       id="path26"
       style="fill:#000000;stroke:none;stroke-width:0.0352778" /><path
       d="m 65.250674,106.3344 c -1.411111,1.30527 -2.575278,2.64583 -2.575278,2.92805 0,0.81139 1.093611,1.05833 1.305278,0.35278 0.07056,-0.35278 1.164167,-1.51695 2.398889,-2.57528 2.081389,-1.79917 2.892778,-3.21028 1.869722,-3.175 -0.246944,0.0353 -1.622778,1.12889 -2.998611,2.46945 z"
       id="path27"
       style="fill:#000000;stroke:none;stroke-width:0.0352778" /><path
       d="m 60.911507,106.86356 c -2.081389,2.08139 -2.54,2.71639 -2.187222,3.06917 0.352777,0.35278 0.987777,-0.10583 3.069167,-2.18722 2.54,-2.50473 3.175,-3.52778 2.187222,-3.52778 -0.246945,0 -1.622778,1.19944 -3.069167,2.64583 z"
       id="path28"
       style="fill:#000000;stroke:none;stroke-width:0.0352778" /><path
       d="m 77.033452,106.79301 c -2.681111,2.46944 -3.104444,3.06916 -2.328333,3.06916 0.881944,0 5.961945,-4.40972 5.961945,-5.18583 0,-0.91722 -0.9525,-0.38806 -3.633612,2.11667 z"
       id="path29"
       style="fill:#000000;stroke:none;stroke-width:0.0352778" /><path
       d="m 81.443175,106.36967 c -1.411111,1.34056 -2.187222,2.32834 -2.046111,2.64584 0.211666,0.52916 0.917222,0.70555 0.917222,0.21166 0,-0.17639 1.023056,-1.12889 2.293056,-2.18722 1.27,-1.02305 2.257778,-2.04611 2.187222,-2.25778 -0.282222,-0.88194 -1.234722,-0.42333 -3.351389,1.5875 z"
       id="path30"
       style="fill:#000000;stroke:none;stroke-width:0.0352778" /><path
       d="m 86.664286,106.51078 c -2.046111,1.65806 -2.504722,2.29306 -1.693333,2.29306 0.740833,0 4.938889,-3.13972 4.691945,-3.52778 -0.388056,-0.635 -1.058334,-0.35278 -2.998612,1.23472 z"
       id="path31"
       style="fill:#000000;stroke:none;stroke-width:0.0352778" /><path
       d="m 88.67512,111.7319 c -0.105833,0.24694 -0.141111,3.70416 -0.141111,7.65527 0.07055,5.18584 0.176389,7.19667 0.493889,7.3025 0.564444,0.21167 0.811389,-14.32277 0.246944,-14.99305 -0.3175,-0.38806 -0.423333,-0.38806 -0.599722,0.0353 z"
       id="path32"
       style="fill:#000000;stroke:none;stroke-width:0.0352778" /><path
       d="m 91.779565,111.97884 c -0.141112,0.21167 -0.141112,1.23472 -0.03528,2.25778 0.141111,1.09361 0,3.70417 -0.3175,6.35 -0.423334,3.03389 -0.493889,4.62139 -0.246945,4.86833 0.987778,0.98778 1.093611,0.0353 1.5875,-11.67694 0.07056,-1.83445 -0.423333,-2.71639 -0.987777,-1.79917 z"
       id="path33"
       style="fill:#000000;stroke:none;stroke-width:0.0352778" /><path
       d="m 85.782342,114.16606 c -0.105833,0.28223 -0.141111,2.78695 -0.105833,5.57389 0.105833,4.19806 0.211666,5.11528 0.635,5.22111 0.458611,0.0706 0.529166,-0.70555 0.458611,-5.46805 -0.03528,-3.56306 -0.176389,-5.60917 -0.423334,-5.67973 -0.211666,-0.0706 -0.458611,0.10584 -0.564444,0.35278 z"
       id="path34"
       style="fill:#000000;stroke:none;stroke-width:0.0352778" /><path
       d="m 98.940954,112.22578 -1.693334,0.14112 -0.07055,3.77472 c -0.03528,2.08139 -0.105834,4.40972 -0.141111,5.18583 -0.07056,2.29306 0.3175,2.71639 2.257778,2.43417 2.857503,-0.38806 3.069173,-0.67028 3.104453,-4.05695 0,-1.65805 0.28222,-3.88055 0.635,-5.00944 0.3175,-1.12889 0.49389,-2.18722 0.38805,-2.36361 -0.21166,-0.35278 -1.09361,-0.35278 -4.480281,-0.10584 z m 2.716386,2.99862 c -0.14111,1.02305 -0.3175,2.96333 -0.38805,4.30389 -0.0706,1.34055 -0.17639,2.46944 -0.21167,2.50472 -0.0705,0.0705 -0.70555,0.21166 -1.411111,0.35278 l -1.340555,0.24694 v -4.37444 c 0,-2.43417 0.105833,-4.51556 0.246944,-4.62139 0.105834,-0.14112 0.917223,-0.24695 1.799172,-0.24695 h 1.5875 z"
       id="path35"
       style="fill:#000000;stroke:none;stroke-width:0.0352778" /><path
       d="m 106.94901,112.29634 -2.11667,0.21167 -0.0705,3.52778 c -0.0353,1.94027 -0.0706,4.445 -0.14111,5.57388 -0.10584,2.43417 0,2.54 3.28083,3.06917 3.52778,0.59972 3.56306,0.59972 3.70417,-2.29305 0.28222,-5.53862 0.70555,-8.07862 1.48166,-8.67834 0.56445,-0.49389 0.635,-0.67028 0.28223,-0.98778 -0.635,-0.49389 -3.81,-0.70555 -6.42056,-0.42333 z m 4.48028,0.91722 c 0.10583,0.10584 -0.0353,1.12889 -0.3175,2.29306 -0.24695,1.16417 -0.59972,3.4925 -0.74084,5.22111 -0.28222,3.42194 -0.0705,3.24556 -3.10444,2.71639 -1.34056,-0.21167 -1.37583,-0.49389 -1.37583,-6.17361 v -3.70417 l 1.5875,-0.21167 c 2.25777,-0.28222 3.73944,-0.35277 3.95111,-0.14111 z"
       id="path36"
       style="fill:#000000;stroke:none;stroke-width:0.0352778" /><path
       d="m 115.3804,112.50801 c 0.10583,0.3175 0.0353,2.50472 -0.14111,4.86833 -0.17639,2.36361 -0.21167,5.25639 -0.0706,6.42056 l 0.24695,2.11666 2.99861,0.38806 c 1.65805,0.21167 3.45722,0.49389 3.98639,0.67028 l 1.02305,0.28222 -0.24694,-4.72722 c -0.14111,-2.78695 -0.0706,-5.75028 0.14111,-7.19667 0.21167,-1.41111 0.21167,-2.61056 0.0353,-2.78695 -0.14111,-0.14111 -2.08139,-0.35277 -4.26861,-0.45861 -3.52778,-0.14111 -3.91584,-0.10583 -3.70417,0.42334 z m 4.62139,0.91722 2.18722,0.38805 -0.10583,5.15056 c -0.0706,2.8575 -0.14111,5.43278 -0.14111,5.75028 0,0.45861 -0.38806,0.52917 -2.18723,0.38805 -2.8575,-0.21166 -3.31611,-0.45861 -3.56305,-2.11666 -0.24695,-1.34056 0.3175,-9.06639 0.67028,-9.63084 0.24694,-0.38805 0.49389,-0.38805 3.13972,0.0706 z"
       id="path37"
       style="fill:#000000;stroke:none;stroke-width:0.0352778" /><path
       d="m 176.0229,88.871894 c 0,0.952501 0.0706,1.340556 0.14111,0.776112 0.0706,-0.529167 0.0706,-1.305278 0,-1.763889 -0.0705,-0.423334 -0.14111,0 -0.14111,0.987777 z"
       id="path38"
       style="fill:#000000;stroke:none;stroke-width:0.0352778" /><path
       d="m 143.10955,72.447695 c 0.9372,-0.535281 2.18591,-2.768419 2.92254,-4.463949 0.31251,-0.736218 0.8369,-1.059628 2.5885,-1.717468 1.96356,-0.69128 2.01937,-0.746974 0.47977,-0.345733 -2.711,0.679957 -2.75562,0.657635 -2.16393,-1.47301 0.32373,-1.03742 0.46894,-1.941013 0.34624,-1.9745 -0.13386,-0.06697 -0.35709,0.490775 -0.5469,1.26049 -0.16748,0.725093 -0.87064,2.409475 -1.52909,3.669949 -0.69192,1.271624 -1.26114,2.576734 -1.29467,2.922558 -7e-5,0.334674 -0.41297,0.992784 -0.92624,1.461221 -0.93726,0.869965 -6.04981,6.297137 -5.14605,5.772995 z"
       id="path8-3"
       style="display:inline;fill:#000000;stroke:none;stroke-width:0.0352778"
       inkscape:transform-center-x="3.5820966"
       inkscape:transform-center-y="2.4471587"
       sodipodi:nodetypes="cccccccccccc" /><path
       d="m 152.38044,64.604835 c 0.90368,-0.301022 1.24954,-0.490642 0.69174,-0.379155 -0.52436,0.100253 -1.26069,0.34553 -1.67349,0.557449 -0.37936,0.200674 0.0446,0.133878 0.98175,-0.178294 z"
       id="path38-8"
       style="display:inline;fill:#000000;stroke:none;stroke-width:0.0352778"
       inkscape:transform-center-x="-2.4886097"
       inkscape:transform-center-y="-0.48685441" /><path
       d="m 38.29845,92.505506 c -0.282222,0.3175 -0.705556,0.9525 -0.9525,1.375833 -0.564445,1.058334 0.105833,1.093611 1.199444,0.07056 0.635001,-0.599722 0.917223,-0.670278 1.516945,-0.352778 1.058333,0.599722 1.305278,2.046111 0.635,3.880556 -0.670278,1.940278 -0.458611,2.434167 0.282222,0.635 0.9525,-2.328334 0.564445,-4.056945 -1.27,-5.503334 -0.881944,-0.670278 -0.9525,-0.670278 -1.411111,-0.105833 z"
       id="path39"
       style="fill:#000000;stroke:none;stroke-width:0.0352778" /><path
       d="m 30.008172,92.893561 c 0.105833,0.141112 0.776111,0.388056 1.481666,0.493889 0.705556,0.105834 1.622778,0.493889 2.010834,0.846667 0.529167,0.493889 0.670278,0.529167 0.529167,0.105833 -0.07056,-0.282222 -0.635,-0.740833 -1.199445,-1.023055 -1.199444,-0.599722 -3.104445,-0.881945 -2.822222,-0.423334 z"
       id="path40"
       style="fill:#000000;stroke:none;stroke-width:0.0352778" /><path
       d="m 34.629561,96.844673 c -0.388056,0.599722 0.07055,0.740833 0.846667,0.246944 0.635,-0.388055 0.811389,-0.352778 1.340555,0.176389 0.529167,0.493889 0.564445,0.776111 0.211667,1.658056 -0.211667,0.599722 -0.282222,1.058333 -0.105833,1.058333 0.811389,0 0.917222,-2.2225 0.141111,-2.963333 -0.635,-0.635 -2.116667,-0.740834 -2.434167,-0.176389 z"
       id="path41"
       style="fill:#000000;stroke:none;stroke-width:0.0352778" /><path
       d="m 27.044838,97.550228 c -1.27,0.740834 -3.351389,3.175002 -3.704167,4.374442 -0.211666,0.70556 -0.211666,0.70556 0.246945,0 0.246944,-0.38805 1.27,-1.55222 2.257778,-2.575275 1.763889,-1.799167 3.280833,-2.398889 3.845278,-1.481667 0.105833,0.176389 0.423333,0.352778 0.635,0.352778 0.246944,-0.03528 0.03528,-0.352778 -0.423334,-0.705555 -1.023055,-0.881945 -1.305277,-0.881945 -2.8575,0.03528 z"
       id="path42"
       style="fill:#000000;stroke:none;stroke-width:0.0352778" /><path
       d="m 41.544006,101.18384 c 0.811389,1.76389 -0.564445,3.59833 -3.739445,4.90361 -1.27,0.52917 -1.305278,0.59972 -0.388055,0.52917 1.552222,-0.14111 1.481666,0.52916 -0.246945,2.32833 -1.058333,1.12889 -1.834445,1.62278 -2.469445,1.62278 -0.9525,0 -1.552222,0.52917 -0.987777,0.84667 0.917222,0.56444 5.326944,-2.68112 5.326944,-3.91584 0,-0.28222 0.635,-1.16416 1.411112,-1.97555 0.811389,-0.81139 1.516944,-1.83445 1.622777,-2.2225 0.282223,-1.12889 0.03528,-2.71639 -0.493888,-2.89278 -0.352778,-0.10583 -0.352778,0.0705 -0.03528,0.77611 z"
       id="path43"
       style="fill:#000000;stroke:none;stroke-width:0.0352778" /><path
       d="m 22.811505,103.37106 c 0,0.35278 0.176389,0.91722 0.352777,1.19945 0.282223,0.38805 0.3175,0.24694 0.141112,-0.52917 -0.282223,-1.30528 -0.493889,-1.5875 -0.493889,-0.67028 z"
       id="path44"
       style="fill:#000000;stroke:none;stroke-width:0.0352778" /><path
       d="m 27.044838,104.18245 c -0.388055,0.81139 -0.635,1.44639 -0.564444,1.44639 0.282222,0 1.693333,-2.50472 1.516944,-2.68111 -0.105833,-0.10583 -0.529166,0.42333 -0.9525,1.23472 z"
       id="path45"
       style="fill:#000000;stroke:none;stroke-width:0.0352778" /><path
       d="m 20.236227,104.46467 c -0.352778,0.3175 -0.282223,1.79917 0.07055,2.01084 0.176389,0.14111 0.246945,-0.0706 0.141111,-0.45861 -0.105833,-0.42334 0.105834,-0.84667 0.635,-1.23473 0.776112,-0.52916 0.811389,-0.56444 0.105834,-0.56444 -0.388056,0 -0.846667,0.10583 -0.9525,0.24694 z"
       id="path46"
       style="fill:#000000;stroke:none;stroke-width:0.0352778" /><path
       d="m 31.489838,106.89884 c -0.917222,1.05833 -1.622777,2.01083 -1.552222,2.11667 0.211667,0.17639 2.257778,-1.79917 2.998611,-2.96334 1.058334,-1.51694 0.246945,-1.05833 -1.446389,0.84667 z"
       id="path47"
       style="fill:#000000;stroke:none;stroke-width:0.0352778" /><path
       d="m 27.468172,118.78745 c -0.282223,0.635 -0.3175,1.23472 -0.105834,1.5875 0.282222,0.49389 0.352778,0.45861 0.564445,-0.35278 0.141111,-0.49388 0.176389,-1.23472 0.07055,-1.5875 -0.105833,-0.52916 -0.211666,-0.45861 -0.529166,0.35278 z"
       id="path48"
       style="fill:#000000;stroke:none;stroke-width:0.0352778" /><path
       d="m 147.1304,82.028005 c -0.56444,0.141111 -4.19805,0.987778 -8.07861,1.905 -3.88056,0.917223 -9.59556,2.187223 -12.7,2.8575 -3.10445,0.670278 -6.52639,1.446389 -7.58472,1.728612 -1.05834,0.3175 -3.95112,0.9525 -6.42056,1.481666 -2.99861,0.635001 -4.51556,1.093612 -4.51556,1.411112 0,0.246944 -0.14111,0.458611 -0.35277,0.458611 -0.17639,0 -1.44639,1.023055 -2.78695,2.293055 -1.30528,1.270001 -2.50472,2.293056 -2.64583,2.293056 -0.14111,0 -1.23472,-0.670278 -2.434168,-1.446389 l -2.187223,-1.481667 -6.35,-0.105833 c -3.4925,-0.07056 -7.478889,-0.211667 -8.819445,-0.3175 -1.375834,-0.07055 -5.115278,0 -8.290278,0.176389 -3.210278,0.176389 -8.643057,0.352778 -12.065001,0.388056 -5.538612,0.03528 -6.279445,0.105833 -6.314723,0.635 0,0.3175 -0.07055,2.116666 -0.141111,4.056944 l -0.07056,3.457223 -1.375834,1.37583 c -0.776111,0.74084 -2.187222,1.86973 -3.210278,2.50473 -4.1275,2.61055 -7.9375,5.29166 -8.113889,5.78555 -0.388056,1.05833 0.599722,1.55222 3.069167,1.55222 3.033889,0 3.245555,0.24695 2.822222,3.175 -0.493889,3.35139 -0.423333,5.82084 0.246944,9.13695 0.352778,1.86972 0.458612,3.13972 0.246945,3.45722 -0.246945,0.38806 -1.340556,0.52917 -4.550834,0.635 -4.445,0.14111 -7.267222,0.74083 -11.535834,2.39889 -1.658055,0.635 -2.469444,0.81139 -2.610555,0.52917 -0.352778,-0.56445 -0.846667,-10.05417 -0.599723,-11.78278 0.141111,-1.05833 0,-1.76389 -0.423333,-2.50472 -0.458611,-0.81139 -0.529167,-1.30528 -0.282222,-2.04611 0.282222,-0.84667 0.670277,-1.09362 2.928055,-1.72862 1.411112,-0.42333 2.645834,-0.91722 2.716389,-1.12889 0.07056,-0.24694 -0.599722,-0.14111 -1.728611,0.24695 -1.023055,0.35278 -2.363611,0.635 -2.998611,0.67028 -0.599722,0 -1.234722,0.17639 -1.375833,0.42333 -0.458612,0.74083 -0.529167,2.71639 -0.141112,3.4925 0.458612,0.84667 0.811389,13.05278 0.493889,16.72167 l -0.211666,2.46944 -1.199445,0.0353 h -1.199444 l 0.211666,-3.70417 c 0.141111,-2.04611 0.246945,-5.25639 0.3175,-7.09083 0.03528,-1.83444 0.105834,-3.52778 0.176389,-3.70417 0.03528,-0.21166 0.03528,-0.52916 0,-0.70555 -0.529166,-2.61056 -0.635,-4.19806 -0.282222,-5.15056 0.282222,-0.84666 0.282222,-1.30528 -0.03528,-1.76389 -0.282222,-0.45861 -0.282222,-0.67027 0,-0.67027 0.564445,0 0.176389,-0.88195 -0.423333,-0.91723 -0.282222,-0.0353 -1.023056,-0.0705 -1.622778,-0.10583 -0.740833,-0.0353 -1.552222,-0.42333 -2.293056,-1.09361 -1.093611,-0.98778 -1.128889,-1.09361 -0.564444,-1.55222 0.811389,-0.59973 0.811389,-0.98778 0.03528,-0.88195 -1.023056,0.17639 -3.386667,-0.77611 -4.409723,-1.72861 -0.917222,-0.84667 -0.9525,-0.9525 -0.458611,-1.72861 0.493889,-0.74083 0.493889,-0.81139 -0.141111,-0.81139 -0.811389,0 -1.799167,-1.27 -1.799167,-2.29306 0,-0.38805 0.246944,-1.09361 0.564444,-1.51694 0.599723,-0.88194 0.317501,-1.02306 -0.564444,-0.24694 -0.529167,0.49388 -0.635,0.49388 -1.058333,-0.0353 -0.423334,-0.45861 -0.388056,-0.74084 0.176389,-1.799169 0.705555,-1.305278 2.8575,-3.175 3.245555,-2.822223 0.105834,0.105834 0.493889,-0.141111 0.811389,-0.564444 0.670278,-0.811389 1.446389,-0.635 0.811389,0.176389 -1.093611,1.446389 -1.375833,4.868337 -0.423333,4.868337 0.176389,0 0.141111,-0.28223 -0.07056,-0.635 -0.564444,-0.917226 -0.141111,-2.293059 1.164167,-3.774726 1.199444,-1.375834 1.799167,-1.446389 1.869722,-0.246945 0.07056,1.023056 0.529167,1.446389 0.529167,0.493889 0,-0.776111 0.881945,-1.411111 2.645834,-1.905 1.023055,-0.246944 0.564444,-0.246944 -2.293056,0.105834 -0.282222,0.03528 -1.446389,0.03528 -2.575278,0.03528 -1.799167,-0.07055 -2.081389,-0.176389 -2.434167,-0.9525 -0.282222,-0.635 -0.282222,-1.128889 0.07056,-1.940278 0.493889,-1.164166 2.575278,-2.822222 3.563055,-2.822222 0.3175,0 0.705556,-0.246944 0.811389,-0.564444 0.3175,-0.776112 0.917223,-0.246945 0.9525,0.846666 0.03528,0.740834 0.07056,0.776111 0.211667,0.246945 0.105833,-0.388056 0.388056,-0.9525 0.635,-1.234723 0.211667,-0.282222 0.529167,-0.811389 0.635,-1.164166 0.458611,-1.27 5.115278,-2.645834 5.715001,-1.658056 0.105833,0.176389 -0.529167,0.670278 -1.411112,1.093611 -1.622778,0.776111 -2.187222,1.27 -1.799166,1.622778 0.105833,0.141111 0.493888,-0.03528 0.846666,-0.352778 0.352778,-0.3175 1.199445,-0.811389 1.905,-1.093611 1.128889,-0.493889 1.305278,-0.493889 1.693334,-0.03528 0.388055,0.458611 0.493889,0.458611 0.846667,-0.03528 0.282222,-0.388056 0.705555,-0.458612 1.375833,-0.317501 l 0.9525,0.246945 -1.128889,0.599722 c -1.128889,0.529167 -1.869722,2.151945 -0.987778,2.151945 0.211667,0 0.3175,-0.141111 0.176389,-0.352778 -0.105833,-0.176389 0.211667,-0.564444 0.670278,-0.881945 1.27,-0.846666 3.563056,-0.388055 4.868334,0.881945 0.529166,0.564444 0.987777,0.881945 0.987777,0.705556 0,-0.529167 -1.164166,-1.481667 -2.363611,-2.010834 -0.670278,-0.246944 -1.481667,-0.776111 -1.869722,-1.164167 -0.423334,-0.423333 -1.164167,-0.705555 -1.905,-0.705555 -0.635,0 -1.658056,-0.246945 -2.187223,-0.529167 -2.081389,-1.058333 -5.150556,-0.458611 -6.808611,1.375834 -0.493889,0.493888 -1.164167,0.917222 -1.481667,0.917222 -1.340556,0 -4.7625,1.516944 -5.715,2.504722 -1.199445,1.305278 -1.199445,2.2225 0,3.774723 l 0.9525,1.234722 -0.881945,0.564444 c -1.5875,1.023056 -3.4925,3.139723 -3.4925,3.880563 0,0.42333 0.388056,1.51694 0.881945,2.43416 0.493888,0.91722 0.881944,1.83445 0.881944,2.08139 0,0.24695 0.3175,0.59972 0.705556,0.81139 0.423333,0.21167 0.599722,0.56444 0.458611,0.91722 -0.352778,0.9525 0.670278,2.18722 2.575278,3.10445 1.375833,0.67027 2.010833,1.19944 2.469444,2.18722 0.635,1.30528 2.187223,2.25778 3.668889,2.25778 0.9525,0 1.587501,1.55222 1.093612,2.78694 -0.211667,0.49389 -0.282223,1.79917 -0.211667,2.8575 0.458611,6.13834 0.529167,8.78417 0.176389,9.66611 -0.176389,0.52917 -0.458611,2.29306 -0.564445,3.95112 l -0.246944,2.96333 -2.151945,1.48167 c -3.457222,2.32833 -5.115278,3.59833 -5.150556,3.88055 0,0.56445 1.023056,0.21167 4.021667,-1.34055 1.728612,-0.88195 3.316112,-1.51695 3.563056,-1.41112 0.246945,0.0706 0.776111,-0.0705 1.199445,-0.35277 0.423333,-0.3175 1.27,-0.49389 1.905,-0.42334 1.093611,0.10584 1.128889,0.0353 1.305278,-1.30527 0.176389,-1.51695 0.740833,-1.94028 4.339167,-3.175 1.164166,-0.42334 1.658055,-0.77612 1.5875,-1.16417 -0.07056,-0.42334 0.388055,-0.67028 1.834444,-1.02306 3.316112,-0.74083 18.485557,-1.41111 18.873612,-0.81139 0.246945,0.38806 17.885835,0.21167 18.556113,-0.17639 0.211666,-0.14111 2.54,-0.21166 5.185833,-0.14111 2.645834,0.0706 5.009445,0.0353 5.221112,-0.10583 0.493889,-0.3175 4.409722,-0.91722 6.843889,-1.05833 l 1.940278,-0.0706 0.211667,1.97556 c 0.282222,2.46944 0.352778,2.61055 2.046111,2.8575 0.776111,0.0705 3.175,0.91722 5.397508,1.83444 2.18722,0.91722 4.51555,1.83445 5.18583,2.08139 0.67028,0.21167 1.44639,0.81139 1.76389,1.34056 0.3175,0.56444 0.77611,0.98777 0.98778,0.98777 0.24694,0 0.70555,0.38806 0.98778,0.84667 0.3175,0.45861 0.84666,0.9525 1.16416,1.05833 0.3175,0.10584 1.12889,0.52917 1.76389,0.91723 0.81139,0.49389 1.72861,0.70555 2.82222,0.67027 0.91723,-0.0353 2.43417,0.14112 3.35139,0.38806 1.5875,0.38806 1.76389,0.35278 2.54,-0.35278 0.70556,-0.67028 0.91723,-0.70555 1.65806,-0.35278 0.42333,0.24695 1.09361,0.67028 1.41111,0.9525 0.38806,0.35278 0.84667,0.45862 1.23472,0.24695 0.35278,-0.14111 0.88195,-0.3175 1.16417,-0.35278 1.83444,-0.35278 19.26167,-1.27 29.03361,-1.55222 7.19667,-0.17639 11.7475,-0.42333 12.02972,-0.67028 0.3175,-0.28222 1.12889,-0.17639 2.89277,0.28222 1.34057,0.35278 3.31612,0.77611 4.37445,0.88195 1.19945,0.17639 2.96334,0.81139 4.69194,1.69333 1.86972,0.98778 2.8575,1.34056 3.10445,1.09361 0.24694,-0.24694 0.9525,-0.17639 2.18722,0.28222 1.02306,0.38806 2.15194,0.67028 2.57528,0.67028 0.42333,0 1.16416,0.3175 1.65805,0.70556 0.49389,0.38805 1.16417,0.70555 1.51695,0.70555 0.3175,0 0.91722,0.24695 1.27001,0.59973 0.35277,0.3175 0.74082,0.45861 0.84666,0.35277 0.42334,-0.38805 -0.10583,-1.12889 -1.12888,-1.62277 -0.56445,-0.24695 -1.27001,-0.59973 -1.55224,-0.77612 -4.30388,-2.54 -9.31333,-4.30388 -16.75694,-5.96194 l -4.23334,-0.9525 -0.3175,-4.90361 c -0.17639,-3.21028 -0.14111,-6.73806 0.10584,-10.19528 0.21166,-2.92806 0.38805,-7.86694 0.42333,-11.04195 0.0353,-6.49111 0.0706,-6.56166 2.89278,-6.38527 0.81139,0.0353 1.69333,0.0353 1.94028,0 0.84666,-0.0706 0.42333,-1.05834 -0.81139,-1.79917 -0.67028,-0.42333 -1.34056,-0.98778 -1.48167,-1.23472 -0.45861,-0.81139 -20.77861,-21.237228 -21.73111,-21.872228 -1.02306,-0.670278 -2.75167,-0.846667 -4.33917,-0.493889 z m 5.3975,4.092223 c 1.23472,1.340555 2.2225,2.434166 2.2225,2.469444 0,0.03528 -2.2225,0.07056 -4.93889,0.07056 -2.71639,0.03528 -4.93889,-0.07056 -4.93889,-0.211667 0,-0.352778 4.69195,-4.656667 5.08,-4.691945 0.21167,0 1.34056,1.058334 2.57528,2.363612 z m -7.47889,-0.881945 c -0.91722,1.093611 -5.96194,6.244167 -16.89805,17.215557 l -4.93889,4.93889 h -5.46806 c -3.03389,0 -9.87778,0.3175 -15.20472,0.70555 -9.842503,0.67028 -11.288892,0.59973 -9.701392,-0.56444 2.151944,-1.5875 9.348612,-8.078611 9.348612,-8.431389 0,-0.211667 1.37583,-1.763889 3.10444,-3.386667 l 3.06917,-2.998611 3.88056,-0.811389 c 2.15194,-0.423334 5.15055,-1.164167 6.70278,-1.622778 1.55222,-0.458611 4.16277,-1.093611 5.82083,-1.411112 1.65805,-0.3175 4.58611,-1.023055 6.52639,-1.5875 4.02167,-1.128889 12.13555,-2.928055 14.21694,-3.139722 0.28223,0 0.10584,0.458611 -0.45861,1.093611 z m 14.39334,7.620001 c 1.5875,1.552222 3.95111,3.704167 5.22111,4.797778 2.25778,1.869722 7.72583,7.514168 7.72583,7.972778 0,0.10583 -5.18583,0.21167 -11.53583,0.17639 -6.38528,0 -14.71084,0.14111 -18.52084,0.3175 l -6.985,0.3175 -0.0705,-1.905 c -0.0353,-1.05833 -0.0706,-2.46945 -0.0706,-3.13972 -0.0353,-0.84667 -0.21167,-1.23473 -0.56444,-1.23473 -0.42334,0 -0.49389,0.45862 -0.42334,2.46945 0.0706,1.34055 0.17639,2.71639 0.28223,3.03389 0.14111,0.49389 -0.38806,0.59972 -3.59834,0.77611 -2.08139,0.14111 -3.84528,0.17639 -3.91583,0.10583 -0.0706,-0.0353 3.63361,-3.88055 8.255,-8.501943 l 8.32556,-8.396111 6.52638,0.211666 6.49112,0.176389 z m -65.828341,3.104444 c 6.914441,0.564445 1.375833,0.811389 -19.54389,0.917223 -9.172223,0.03528 -16.756946,-0.03528 -16.898057,-0.141112 -0.105833,-0.141111 -0.105833,-0.388055 0,-0.564444 0.246945,-0.423333 31.855836,-0.599722 36.441947,-0.211667 z m 5.609167,1.446389 c 0.635,0.564445 1.199444,1.128889 1.164164,1.340556 0,0.176389 -0.634997,0.881944 -1.411108,1.552227 l -1.375834,1.16416 v -2.50472 c 0,-1.375834 0.07056,-2.504723 0.211667,-2.504723 0.105833,0 0.740833,0.423334 1.411111,0.9525 z m -24.906113,2.610553 v 1.72861 h -1.234722 -1.199444 l 0.529166,-1.51694 c 0.282223,-0.811389 0.564445,-1.693334 0.670278,-1.905 0.07056,-0.246945 0.388056,-0.352778 0.705556,-0.246945 0.388055,0.141111 0.529166,0.705556 0.529166,1.940275 z m 2.328334,-1.799164 c 0.740833,0 0.811389,0.105834 0.493889,0.917222 -0.211667,0.493889 -0.352778,1.375832 -0.352778,1.940282 0,0.84666 -0.141111,1.02305 -0.917222,1.02305 -0.846667,0 -0.881945,-0.0705 -0.670278,-1.55222 0.176389,-0.987778 0.105833,-1.622778 -0.141111,-1.763889 -0.599722,-0.388056 -0.458611,-1.023056 0.176389,-0.776111 0.3175,0.105833 0.917222,0.211666 1.411111,0.211666 z m 17.497779,1.128889 c -0.07056,0.740835 0,1.340555 0.176389,1.340555 0.493889,0 1.164166,-1.340555 0.9525,-1.940277 -0.141111,-0.352778 0,-0.529167 0.388055,-0.529167 0.529167,0 0.599723,0.246945 0.458611,1.5875 -0.141111,0.952504 -0.03528,1.693334 0.176389,1.834444 0.635,0.38806 -1.340555,0.74083 -3.104444,0.52917 -1.622778,-0.17639 -1.658056,-0.17639 -1.411111,-1.27 0.105833,-0.59972 0.282222,-1.481669 0.352777,-1.975558 0.07056,-0.493889 0.141111,-0.917222 0.141111,-0.987778 0.03528,-0.07056 0.458612,-0.07056 1.023056,0 0.881945,0.105833 0.9525,0.211667 0.846667,1.411111 z M 58.583174,98.679117 c 0.881944,0.635 0.493888,3.421943 -0.493889,3.421943 -0.458612,0 -0.670278,-0.38805 -0.846667,-1.5875 -0.352778,-2.222498 0.07055,-2.751665 1.340556,-1.834443 z m 5.856111,1.305278 c 0,0.952505 0.141111,1.763885 0.3175,1.763885 0.529167,0 0.740833,-0.52916 0.811389,-2.081385 0.03528,-1.340555 0.141111,-1.446389 1.023056,-1.446389 0.846666,0 0.9525,0.141111 1.164166,1.5875 0.352778,2.187224 0.776111,2.257774 1.058334,0.176389 l 0.246944,-1.763889 h 1.375834 c 0.776111,0 1.411111,0.105834 1.411111,0.211667 0,0.105833 -0.176389,0.881944 -0.388056,1.693337 -0.352778,1.41111 -0.493889,1.55222 -1.658055,1.76389 -0.740834,0.10583 -2.681112,0.21166 -4.374445,0.21166 h -3.104445 v -1.02305 c 0,-1.658059 0.599722,-2.857504 1.411111,-2.857504 0.599723,0 0.705556,0.211667 0.705556,1.763889 z m 18.132779,-1.446389 c 0.141111,0.176389 0.3175,1.058334 0.423333,1.940274 l 0.246945,1.62278 h -1.093611 c -1.023056,0 -1.093612,-0.0705 -1.199445,-1.48166 -0.07056,-0.811394 -0.3175,-1.516949 -0.564444,-1.622783 -0.3175,-0.105833 -0.423334,0.141111 -0.388056,0.670278 0.176389,2.151945 0.03528,2.434165 -1.305278,2.434165 -1.128889,0 -1.234722,-0.0705 -0.9525,-0.81139 0.141111,-0.42333 0.282222,-1.305275 0.282222,-1.940275 v -1.128889 h 2.187223 c 1.199444,0 2.257778,0.141111 2.363611,0.3175 z m 2.8575,0.03528 c 0.105833,0.211667 0.105833,1.058333 -0.03528,1.940274 -0.176389,1.23472 -0.352777,1.5875 -0.881944,1.5875 -0.564445,0 -0.670278,-0.28222 -0.670278,-1.94028 0,-1.693327 0.105833,-1.940272 0.670278,-1.940272 0.388055,0 0.811389,0.176389 0.917222,0.352778 z m 5.573889,0.705556 c -0.282222,0.635 -0.423333,1.446388 -0.3175,1.940278 0.211667,0.88194 0.176389,0.91722 -1.27,1.02305 -0.3175,0.0353 -0.458611,-0.49389 -0.458611,-1.44639 0,-2.010827 -0.670278,-2.081383 -0.881944,-0.10583 -0.141112,1.41111 -0.282223,1.5875 -1.058334,1.5875 -0.987778,0 -0.9525,0 -0.564444,-2.398886 l 0.282222,-1.658056 h 2.398889 2.398889 z m -29.527502,1.234718 c -0.03528,1.76389 -0.105833,1.94028 -0.740833,1.86972 -0.599722,-0.10583 -0.705555,-0.38805 -0.740833,-1.69333 0,-1.904997 0.07055,-2.116664 0.881944,-2.116664 0.493889,0 0.599722,0.3175 0.599722,1.940274 z m 24.306391,2.89278 9.101667,0.21167 -0.917222,0.81139 c -1.340556,1.12888 -6.632223,4.26861 -7.690556,4.55083 -0.493889,0.10583 -1.340556,0.59972 -1.905,1.09361 -0.529167,0.45861 -1.093611,0.84667 -1.199445,0.84667 -0.105833,0.0353 -3.739444,0.10583 -8.043334,0.21166 -5.715,0.10584 -7.866945,0.0353 -7.866945,-0.24694 0,-0.21167 1.199445,-1.5875 2.645834,-3.03389 1.446389,-1.48167 2.645833,-2.78694 2.645833,-2.96333 0,-1.37584 -2.610555,0.59972 -5.362222,4.02166 -0.881945,1.09361 -0.987778,1.41111 -0.635,1.83445 0.388055,0.45861 -0.3175,0.52916 -5.609167,0.52916 -3.316112,0 -6.032501,-0.10583 -6.032501,-0.24694 0,-0.67028 2.010834,-2.92806 3.880556,-4.33917 1.128889,-0.88194 2.081389,-1.86972 2.116667,-2.2225 0,-1.27 -0.881944,-0.67027 -5.044723,3.35139 -1.446389,1.41111 -1.693333,1.83445 -1.516944,2.57528 l 0.211667,0.88194 h -4.445001 c -2.469444,0 -4.409722,-0.0705 -4.339167,-0.14111 0.07056,-0.10583 1.340556,-0.9525 2.786945,-1.94027 1.446389,-0.98778 3.880556,-2.64584 5.362223,-3.73945 l 2.716389,-1.905 4.339167,-0.14111 c 9.560278,-0.21167 16.121945,-0.24694 24.800279,0 z m 83.114448,4.7625 c 0.28222,0.52917 0.35278,2.11667 0.17639,5.18583 -0.10583,2.43417 -0.3175,9.41917 -0.42333,15.45167 l -0.24695,11.04195 h -1.30528 c -0.74083,0 -2.50472,0.21166 -3.91583,0.49389 -2.68111,0.52916 -7.09083,0.77611 -22.5425,1.23472 -4.93889,0.17639 -9.24278,0.38805 -9.59556,0.52916 -0.38805,0.17639 -0.635,0.0706 -0.77611,-0.38805 -0.10583,-0.35278 -0.28222,-4.37445 -0.38805,-8.96056 -0.10584,-4.58611 -0.35278,-9.525 -0.52917,-10.93611 -0.49389,-3.63361 -1.12889,-11.99444 -0.91722,-12.48833 0.17639,-0.49389 11.95917,-1.19945 26.14083,-1.5875 5.43278,-0.14111 10.795,-0.24695 11.88861,-0.28223 1.76389,-0.0705 2.08139,0.0353 2.43417,0.70556 z m -77.293614,1.12889 c 0,0.70555 1.622777,1.65805 2.328333,1.37583 0.564445,-0.21166 0.599722,0.10584 0.388056,3.81 -0.141111,2.2225 -0.246945,5.96195 -0.246945,8.29028 v 4.26861 l -2.010833,0.38806 c -4.727223,0.88194 -6.279445,1.12889 -7.408334,1.12889 h -1.199445 l 0.211667,-1.86973 c 0.141111,-1.02305 0.03528,-4.23333 -0.176389,-7.12611 -0.211666,-2.92805 -0.423333,-5.67972 -0.458611,-6.17361 -0.07055,-0.77611 0.388056,-1.09361 3.986389,-2.8575 2.2225,-1.09361 4.162778,-1.94028 4.339167,-1.83444 0.141111,0.0705 0.246945,0.35277 0.246945,0.59972 z m 35.524724,1.44639 c 0,0.9525 0.17639,4.23333 0.3175,7.23194 0.14111,2.99861 0.21167,9.48973 0.14111,14.39334 -0.0705,8.81944 -0.0705,8.92528 0.67028,9.13694 1.09361,0.28222 0.88194,0.77611 -0.3175,0.74084 -0.56445,-0.0353 -0.9525,-0.17639 -0.84667,-0.35278 0.10584,-0.14111 -0.14111,-0.28222 -0.56444,-0.28222 -0.42334,0 -0.635,0.14111 -0.52917,0.35277 0.38806,0.635 -0.35278,0.38806 -0.9525,-0.3175 -0.35278,-0.42333 -0.45861,-0.81139 -0.24694,-1.12889 0.45861,-0.77611 0.38805,-1.94027 -0.21167,-2.43416 -0.28222,-0.24695 -0.52917,-0.88195 -0.52917,-1.37584 0,-1.16416 -0.9525,-2.04611 -3.31611,-3.175 -1.44639,-0.70555 -2.04611,-0.81138 -4.02167,-0.635 -1.23472,0.14112 -2.71638,0.49389 -3.21027,0.84667 -0.49389,0.3175 -1.69334,0.98778 -2.64584,1.44639 l -1.69333,0.88194 -3.77472,-1.30527 c -2.04611,-0.74084 -4.97417,-1.69334 -6.526392,-2.11667 -1.693333,-0.49389 -2.892778,-1.02306 -3.104444,-1.41111 -0.458611,-0.81139 -0.423334,-18.80306 0.03528,-20.0025 0.3175,-0.84667 0.493889,-0.91723 2.751667,-0.98778 2.892779,-0.0706 10.759719,-0.70556 13.687779,-1.09361 1.16416,-0.14111 4.97416,-0.24695 8.46666,-0.21167 l 6.35,0.0353 z m -45.543614,2.04611 c 0.458611,0.45861 0.881945,5.99722 0.776111,10.65389 l -0.105833,4.93889 -1.411111,0.24694 c -0.776111,0.14111 -4.127501,0.35278 -7.47889,0.49389 -5.08,0.21167 -6.103056,0.17639 -6.244167,-0.24694 -0.105833,-0.28223 -0.246944,-4.02167 -0.3175,-8.32556 l -0.105833,-7.83167 3.915834,-0.14111 c 5.08,-0.17639 10.689167,-0.0705 10.971389,0.21167 z m -15.910279,2.54 v 2.46944 l -6.244167,0.21167 c -5.609167,0.21167 -6.385278,0.3175 -7.514167,1.02306 -0.705555,0.42333 -1.340556,0.74083 -1.411111,0.67027 -0.176389,-0.21166 -0.246945,-1.94027 -0.211667,-4.65666 l 0.03528,-2.36361 7.690556,0.0705 7.655278,0.10583 z m 0.07056,4.16278 c 0.105833,0.14111 0.141111,0.3175 0.07055,0.38805 -0.07055,0.0706 -3.210278,0.21167 -6.985,0.3175 -5.221111,0.14111 -6.738056,0.10584 -6.420556,-0.21166 0.246944,-0.24695 1.411111,-0.52917 2.610556,-0.635 2.822222,-0.24695 10.406945,-0.14111 10.724445,0.14111 z m -0.3175,1.97555 c 0.352778,0.21167 0.458611,1.16417 0.352778,3.95111 l -0.141111,3.66889 h -7.196668 -7.196667 l -0.211666,-0.88194 c -0.141112,-0.49389 -0.352778,-2.01083 -0.493889,-3.42195 -0.246945,-2.50472 -0.246945,-2.54 0.599722,-2.75166 2.610556,-0.67028 13.476112,-1.09361 14.287501,-0.56445 z m 53.234163,12.80584 c 0.24695,-0.635 0.77611,-0.52917 1.905,0.45861 0.56445,0.45861 1.27,0.77611 1.55223,0.67028 0.24694,-0.10584 0.635,0.14111 0.88194,0.56444 0.49389,0.91722 0.28222,1.27 -0.35278,0.52917 -0.52916,-0.635 -1.51694,-0.67028 -2.50472,-0.14111 -0.70556,0.35277 -0.70556,0.38805 -0.0706,0.84666 0.59973,0.49389 0.59973,0.49389 -0.14111,0.52917 -1.02305,0 -1.37583,-0.10583 -1.27,-0.42333 0.0706,-0.14111 -0.24694,-0.45861 -0.67027,-0.67028 -0.70556,-0.38806 -2.25778,-0.3175 -5.64445,0.24694 -1.94028,0.35278 -1.79917,-0.67027 0.17639,-1.27 0.81139,-0.24694 1.5875,-0.56444 1.69333,-0.74083 0.10584,-0.21167 0.56445,-0.21167 1.12889,0 0.74083,0.28222 0.9525,0.28222 0.9525,-0.10583 0,-0.70556 0.74083,-0.88195 1.55222,-0.42334 0.49389,0.28223 0.70556,0.28223 0.81139,-0.0705 z m -6.94972,3.77472 c 0,0.88194 0.56444,1.27 0.84667,0.56444 0.10583,-0.28222 0.42333,-0.52916 0.74083,-0.52916 0.88194,0 2.78694,1.97555 2.82222,2.8575 0,0.45861 0.17639,0.84666 0.42334,0.84666 0.21166,0 0.52916,0.10584 0.67027,0.24695 0.28223,0.3175 3.45723,0.38805 3.73945,0.10583 0.3175,-0.35278 -0.56445,-1.905 -1.12889,-2.04611 -0.28222,-0.0705 -0.88194,0.10583 -1.30528,0.38806 -0.67028,0.38805 -0.81139,0.38805 -1.09361,-0.14111 -0.56444,-0.98778 0.3175,-1.51695 2.46945,-1.48167 1.05833,0.0353 2.11666,-0.0706 2.36361,-0.21167 0.28222,-0.17639 0.56444,-0.10583 0.74083,0.14111 0.14111,0.24695 0.42333,0.35278 0.635,0.21167 0.70556,-0.42333 0.70556,0.35278 0.0353,1.19944 -0.56445,0.74084 -0.70556,0.81139 -1.02306,0.35278 -0.3175,-0.45861 -0.38805,-0.45861 -0.67028,-0.0353 -0.17638,0.28223 -0.24694,0.70556 -0.14111,0.9525 0.0706,0.24695 -0.10583,0.84667 -0.45861,1.37584 -0.77611,1.16416 -1.62278,1.05833 -5.08,-0.67028 -1.5875,-0.81139 -2.68111,-1.16417 -3.24555,-1.02306 -0.42334,0.10584 -0.70556,0.0706 -0.52917,-0.0705 0.28222,-0.35278 -0.74083,-1.5875 -1.34056,-1.5875 -0.24694,0 -0.42333,-0.49389 -0.45861,-1.05833 0,-0.70556 0.14111,-1.05834 0.49389,-1.05834 0.28222,0 0.49389,0.3175 0.49389,0.67028 z m 5.78556,-0.35278 c 0.10583,0.14111 0,0.56445 -0.24695,0.88195 -0.38805,0.52916 -0.49389,0.52916 -1.23472,0.0353 -0.42333,-0.3175 -0.77611,-0.70555 -0.77611,-0.91722 0,-0.38805 2.01083,-0.42333 2.25778,0 z m 4.445,0.0353 c 0,0.17639 -0.24695,0.35278 -0.56445,0.35278 -0.28222,0 -0.42333,-0.17639 -0.3175,-0.35278 0.10584,-0.21167 0.35278,-0.35278 0.56445,-0.35278 0.17639,0 0.3175,0.14111 0.3175,0.35278 z m -7.9375,4.23333 c 0.10583,0.21167 -0.0353,0.24695 -0.3175,0.14111 -0.635,-0.24694 -0.74084,-0.49388 -0.24695,-0.49388 0.21167,0 0.45861,0.14111 0.56445,0.35277 z"
       id="use66"
       style="fill:#000000;stroke:none;stroke-width:0.0352778" /><path
       d="m 193.61931,132.46051 c 0.10583,1.80058 0,3.46267 -0.21167,3.67043 -0.17639,0.27701 -0.24694,0.96955 -0.14111,1.66209 0.10583,0.76177 -0.24694,2.00834 -1.05833,3.53191 -1.27,2.42387 -1.48167,3.73969 -0.84667,5.54028 0.28222,0.83105 0.3175,0.69254 0.14111,-0.55403 -0.17639,-1.24656 0.10584,-2.28535 1.41111,-5.05551 1.41111,-2.97789 1.62278,-3.73968 1.41111,-5.3325 -0.17638,-1.03881 -0.42333,-2.97791 -0.56444,-4.29373 -0.24694,-2.14685 -0.28222,-2.00834 -0.14111,0.83106 z"
       id="path7-0"
       style="display:inline;fill:#000000;stroke:none;stroke-width:0.0494278" /></g><g
     inkscape:groupmode="layer"
     id="layer2"
     inkscape:label="Cut"
     style="display:inline"
     sodipodi:insensitive="true"><path
       d="M 25.283138,77.029488 C 0,0 0,0 25.283138,77.029488 Z"
       id="path1-3"
       style="display:inline;fill:none;fill-opacity:1;stroke:#f30127;stroke-width:0.1;stroke-dasharray:none;stroke-opacity:1"
       sodipodi:nodetypes="cc"
       inkscape:label="path1-3" /><path
       d="m 194.13023,149.28069 c 0.42334,-0.38805 -0.10583,-1.12889 -1.12888,-1.62277 -0.56445,-0.24695 -1.64367,-0.83905 -1.64367,-0.83905 0,0 0.29013,0.36593 0.16241,-0.57475 -0.16939,-1.24753 0.1104,-2.23331 1.41567,-5.00347 1.41111,-2.97789 1.58346,-3.79867 1.37179,-5.39149 -0.17638,-1.03881 -0.44299,-4.37403 -0.61048,-5.91527 -0.20277,-1.8019 0.0795,-3.11564 1.38473,-6.61894 1.41111,-3.76606 1.62278,-4.72946 1.41111,-6.74386 -0.17638,-1.31374 -0.22867,-4.07195 -0.39993,-5.77602 0.25208,0.13635 0.32264,0.0306 0.18153,-0.32226 -0.10583,-0.3175 -0.0353,-1.16416 0.14111,-1.94027 0.28222,-1.05834 0.24694,-1.72862 -0.21167,-2.92806 -0.3175,-0.88194 -0.67026,-2.08139 -0.7761,-2.64583 -0.10583,-0.59973 -0.42333,-1.37584 -0.67028,-1.76389 -0.24694,-0.38806 -0.56444,-1.375826 -0.70555,-2.222499 -0.14111,-0.81139 -0.38806,-1.5875 -0.52917,-1.69333 -0.17639,-0.10584 -0.3175,-0.77611 -0.3175,-1.51695 0,-0.84666 -0.28222,-1.69333 -0.74083,-2.29305 -0.45861,-0.59973 -0.67028,-1.30528 -0.59972,-2.04611 0.0705,-0.98778 0.24694,-1.16417 0.91722,-1.09362 l 0.81139,0.10584 -0.9525,-1.23472 c -0.49389,-0.67028 -1.05834,-1.23473 -1.19945,-1.23473 -0.14111,0 -0.59972,-0.91722 -1.02305,-2.04611 -0.74084,-2.01083 -1.72861,-3.38666 -3.77473,-5.432776 -0.88194,-0.846667 -0.91722,-1.058334 -0.67027,-2.645834 0.17639,-0.917222 0.35277,-2.398889 0.38805,-3.280833 0.0706,-0.881945 0.21167,-2.398889 0.35278,-3.35139 0.28222,-2.469444 -0.3175,-5.432778 -1.5875,-7.514167 -0.70556,-1.128889 -1.09362,-2.187222 -1.09362,-3.069167 0,-0.846666 -0.4586,-2.187222 -1.30528,-3.739444 -1.27,-2.363611 -1.44639,-2.504723 -4.51555,-3.880556 -0.56444,-0.282222 -1.5875,-0.846667 -2.25777,-1.305278 -1.1289,-0.740833 -1.4464,-0.776111 -5.11529,-0.564444 -6.24417,0.3175 -8.53722,0.740833 -11.1125,2.081389 -2.36361,1.234722 -5.32695,2.398889 -5.57389,2.187222 -0.0353,-0.07056 -0.70556,-1.305278 -1.44639,-2.751667 -1.27,-2.54 -1.37583,-2.645833 -3.24556,-3.280833 -1.44638,-0.493889 -3.175,-0.670278 -6.87916,-0.740834 -6.80861,-0.105833 -7.69056,-0.3175 -10.19528,-2.328333 -1.51695,-1.234722 -2.64582,-1.799167 -4.33916,-2.2225 -3.03389,-0.776111 -6.10305,-0.987778 -7.16139,-0.529167 l 2e-5,6e-6 c -0.49389,0.211667 -1.79916,0.423333 -2.89277,0.493889 -1.27001,0.07055 -2.50473,0.388055 -3.28084,0.846667 -0.67028,0.388055 -1.48167,0.635 -1.76389,0.529166 -1.05833,-0.423333 -1.65805,0.564445 -1.51694,2.469445 l 0.10583,1.799167 -1.05833,-0.07056 c -3.59834,-0.282222 -7.9375,-0.776111 -9.10167,-0.987778 -0.98778,-0.176389 -1.552223,-0.105833 -2.2225,0.352778 -0.811389,0.529167 -0.952501,0.529167 -1.516945,0.03528 -0.705556,-0.635 -4.021667,-0.776111 -5.468056,-0.211667 -0.493889,0.176389 -1.375833,0.811389 -1.940278,1.446389 -1.446389,1.481667 -1.481667,3.210278 -0.141111,4.303889 1.905,1.552223 3.316111,3.175001 3.81,4.339167 0.352778,0.846667 0.917223,1.411111 1.763889,1.763889 0.705556,0.282223 1.199445,0.635 1.093611,0.811389 -0.246944,0.388056 -5.044722,1.199445 -5.468055,0.917222 -0.564445,-0.3175 -3.210278,0.458612 -4.974167,1.516945 -0.881945,0.493889 -1.940278,0.881945 -2.398889,0.811389 -0.458612,-0.03528 -1.340556,0.3175 -2.010834,0.811389 -0.635,0.493889 -1.5875,0.917222 -2.046111,0.917222 -0.458611,0 -1.446389,0.423334 -2.187223,0.917222 l -1.340555,0.881945 -0.811389,-0.776111 c -1.023056,-0.9525 -1.552222,-2.716389 -1.693334,-5.820834 -0.105833,-1.975556 -0.3175,-2.575278 -1.411111,-4.162778 -0.705555,-1.023056 -1.27,-2.293056 -1.27,-2.822222 0,-1.516945 -2.046111,-3.386667 -3.704167,-3.386667 -0.740833,0 -1.869722,-0.352778 -2.54,-0.740834 -1.693333,-1.058333 -5.503334,-0.811389 -8.078611,0.493889 -1.023056,0.493889 -2.751667,1.093612 -3.880556,1.27 -2.54,0.423334 -3.316112,0.705556 -5.856112,2.187223 -2.645833,1.552222 -4.868333,4.445 -4.868333,6.279445 0,0.881944 -0.246945,1.552222 -0.705556,1.975555 -0.705556,0.635 -0.740833,0.635 -1.763889,-0.493889 -1.234722,-1.305277 -1.411111,-1.305277 -4.938889,0.564445 -4.374445,2.328333 -7.302501,6.138334 -8.184445,10.689167 -0.423334,2.151945 -0.529167,2.293056 -2.081389,3.139723 -2.076816,1.023055 -9.006496,8.255 -8.643056,8.255 0.148886,2.047969 0.893225,3.649348 1.638615,5.24994 0,0 0.104506,-0.300536 -0.847994,0.687242 -1.199445,1.198909 -1.199445,2.222501 0,3.774721 l 0.9525,1.23472 -0.881945,0.564447 c -1.5875,1.02305 -3.4925,3.13972 -3.4925,3.880559 0,0.42333 0.388056,1.51694 0.881945,2.43416 0.493888,0.91722 0.881944,1.83445 0.881944,2.08139 0,0.24695 0.3175,0.59972 0.705556,0.81139 0.423333,0.21167 0.599722,0.56444 0.458611,0.91722 -0.352778,0.9525 0.670278,2.18722 2.575278,3.10445 1.375833,0.67027 2.010833,1.19944 2.469444,2.18722 0.635,1.30528 2.187223,2.25778 3.668889,2.25778 0.9525,0 1.587501,1.55222 1.093612,2.78694 -0.211667,0.49389 -0.282223,1.79917 -0.211667,2.8575 0.458611,6.13834 0.529167,8.78417 0.176389,9.66611 -0.176389,0.52917 -0.458611,2.29306 -0.564445,3.95112 l -0.246944,2.96333 -2.151945,1.48167 c -3.457222,2.32833 -5.115278,3.59833 -5.150556,3.88055"
       id="use66-2"
       style="display:inline;fill:none;fill-opacity:1;stroke:#ff2a05;stroke-width:0.835;stroke-dasharray:none;stroke-opacity:1"
       sodipodi:nodetypes="cccsccccccccccsccssccccsccccccsccccccccccccccccccccccccccccccccscccccssccccscccccccccccsssccccsccccccc" /></g><g
     inkscape:groupmode="layer"
     id="layer3"
     inkscape:label="schild_!"
     style="display:none"
     sodipodi:insensitive="true"><path
       inkscape:connector-curvature="0"
       id="rect4822-1-9-7-17-4-9"
       d="m 18.536752,141.58866 c 3.525172,3.46568 -3.731462,5.67591 -9.8510185,8.73973 l 13.6798285,6.40388 c 2.426645,6.39195 9.281789,12.06355 19.419625,16.64594 v 12.66324 H 89.81077 l 15.58746,6.77419 15.58654,-6.77419 h 48.02559 v -12.64669 c 10.17386,-4.59068 17.05042,-10.27678 19.47393,-16.68626 l 11.42228,-4.96433 -11.47476,-4.98734"
       style="color:#000000;font-style:normal;font-variant:normal;font-weight:normal;font-stretch:normal;font-size:medium;line-height:normal;font-family:sans-serif;text-indent:0;text-align:start;text-decoration:none;text-decoration-line:none;text-decoration-style:solid;text-decoration-color:#000000;letter-spacing:normal;word-spacing:normal;text-transform:none;writing-mode:lr-tb;direction:ltr;baseline-shift:baseline;text-anchor:start;white-space:normal;clip-rule:nonzero;display:inline;overflow:visible;visibility:visible;isolation:auto;mix-blend-mode:normal;color-interpolation:sRGB;color-interpolation-filters:linearRGB;solid-color:#000000;solid-opacity:1;fill:none;fill-opacity:1;fill-rule:evenodd;stroke:#000000;stroke-width:1.46453;stroke-linecap:butt;stroke-linejoin:miter;stroke-miterlimit:4;stroke-dasharray:none;stroke-dashoffset:0;stroke-opacity:1;color-rendering:auto;image-rendering:auto;shape-rendering:auto;text-rendering:auto;enable-background:accumulate"
       sodipodi:nodetypes="ccccccccccccc" /><text
       xml:space="preserve"
       style="font-size:13.9068px;fill:none;fill-opacity:1;stroke:#ff2a05;stroke-width:0.685759;stroke-dasharray:none;stroke-opacity:1"
       x="211.81715"
       y="92.604813"
       id="text1"
       transform="matrix(0.59680618,-0.07066232,0.06346397,1.6680717,0,0)"><tspan
         id="tspan1"
         style="font-style:normal;font-variant:normal;font-weight:bold;font-stretch:normal;font-size:20.8601px;font-family:'Noto Sans Chakma';-inkscape-font-specification:'Noto Sans Chakma Bold';stroke-width:0.685758"
         x="211.81715"
         y="92.604813"
         sodipodi:role="line">2024</tspan></text><text
       xml:space="preserve"
       style="font-style:normal;font-variant:normal;font-weight:bold;font-stretch:normal;font-size:25.5672px;font-family:'.Diwan Kufi PUA';-inkscape-font-specification:'.Diwan Kufi PUA Bold';fill:#ff0000;fill-opacity:1;stroke:#ff2a05;stroke-width:0.945562;stroke-dasharray:none;stroke-opacity:1"
       x="40.061996"
       y="146.72723"
       id="text2"
       transform="scale(0.87831831,1.1385394)"
       inkscape:transform-center-x="2.5169492"
       inkscape:transform-center-y="1.8877119"><tspan
         sodipodi:role="line"
         id="tspan2"
         style="font-style:normal;font-variant:normal;font-weight:bold;font-stretch:normal;font-size:25.5672px;font-family:'Bradley Hand';-inkscape-font-specification:'Bradley Hand Bold';fill:#ff0000;fill-opacity:1;stroke-width:0.94556"
         x="40.061996"
         y="146.72723">ich war dabei !!</tspan></text><text
       xml:space="preserve"
       style="font-style:normal;font-variant:normal;font-weight:bold;font-stretch:normal;font-size:22.5778px;font-family:'Noto Sans Chakma';-inkscape-font-specification:'Noto Sans Chakma Bold';fill:#ff0000;fill-opacity:1;stroke:#ff2a05;stroke-width:0.835001;stroke-dasharray:none;stroke-opacity:1"
       x="76.974266"
       y="169.52135"
       id="text3"><tspan
         sodipodi:role="line"
         id="tspan3"
         style="stroke-width:0.835"
         x="76.974266"
         y="169.52135" /></text><text
       xml:space="preserve"
       style="font-style:normal;font-variant:normal;font-weight:bold;font-stretch:normal;font-size:22.5778px;font-family:'Noto Sans Chakma';-inkscape-font-specification:'Noto Sans Chakma Bold';fill:#ff0000;fill-opacity:1;stroke:#ff2a05;stroke-width:0.835001;stroke-dasharray:none;stroke-opacity:1"
       x="125.4725"
       y="187.98628"
       id="text4"><tspan
         sodipodi:role="line"
         id="tspan4"
         style="stroke-width:0.835"
         x="125.4725"
         y="187.98628" /></text></g><g
     inkscape:groupmode="layer"
     id="layer4"
     inkscape:label="Schild_2"
     style="display:inline"><path
       id="rect4"
       style="fill:none;stroke:#ff2a05;stroke-width:0.831889"
       d="m 194.3684,148.89171 -0.0787,40.51026 -176.585095,-0.0787 0.235964,-47.74649"
       sodipodi:nodetypes="cccc" /><text
       xml:space="preserve"
       style="font-style:normal;font-variant:normal;font-weight:bold;font-stretch:normal;font-size:33.6693px;font-family:'Noto Sans Chakma';-inkscape-font-specification:'Noto Sans Chakma Bold';fill:none;fill-opacity:1;stroke:#000000;stroke-width:1.253;stroke-dasharray:none;stroke-opacity:1"
       x="33.365582"
       y="120.1531"
       id="text5"
       transform="scale(0.65796226,1.519844)"><tspan
         sodipodi:role="line"
         id="tspan5"
         style="font-size:33.6693px;stroke-width:1.253;stroke-dasharray:none;stroke:#000000;stroke-opacity:1"
         x="33.365582"
         y="120.1531">2024</tspan></text><text
       xml:space="preserve"
       style="font-style:normal;font-variant:normal;font-weight:bold;font-stretch:normal;font-size:19.1562px;font-family:'Noto Sans Elbasan';-inkscape-font-specification:'Noto Sans Elbasan Bold';fill:none;fill-opacity:1;stroke:#000000;stroke-width:0.944612;stroke-dasharray:none;stroke-opacity:1"
       x="81.33313"
       y="190.72464"
       id="text6"
       transform="scale(1.1688957,0.8555083)"><tspan
         sodipodi:role="line"
         style="font-style:normal;font-variant:normal;font-weight:bold;font-stretch:normal;font-size:19.1562px;font-family:Papyrus;-inkscape-font-specification:'Papyrus Bold';stroke-width:0.944612;stroke:#000000;stroke-opacity:1"
         x="81.33313"
         y="190.72464"
         id="tspan8">ich </tspan><tspan
         sodipodi:role="line"
         style="font-style:normal;font-variant:normal;font-weight:bold;font-stretch:normal;font-size:19.1562px;font-family:Papyrus;-inkscape-font-specification:'Papyrus Bold';stroke-width:0.944612;stroke:#000000;stroke-opacity:1"
         x="81.33313"
         y="215.58788"
         id="tspan7">war dabei</tspan></text></g></svg>
